<svg xmlns="http://www.w3.org/2000/svg" viewBox="0 0 100 100"><rect width="100" height="100" rx="22" fill="#16244A"/><g transform="translate(-102.104,-51.425) scale(0.14940)"><path d="M1164.16,596.147 C1160.66,631.78 1139.35,669.16 1117.39,697.037 C1116.99,695.891 1115.89,695.966 1116.03,696.935 C1116.03,696.935 1105.16,708.081 1105.16,708.081 C1099.26,714.132 1093.47,719.372 1089.87,726.945 C1089.87,726.945 1080.51,746.665 1080.51,746.665 C1064.69,779.985 1038.23,800.373 999.901,797.794 C982.659,796.634 967.199,787.105 955.903,774.324 C954.956,774.363 954.544,774.999 954.076,775.17 C941.613,757.079 938.89,733.455 942.957,711.014 C943.216,709.585 942.813,708.279 941.989,707.536 C941.544,707.135 940.589,706.853 939.598,706.986 C941.77,690.317 943.604,673.703 942.334,656.594 C943.488,657.213 945.135,658.191 946.91,658.177 C948.966,658.16 949.709,656.749 949.746,655.526 C949.798,653.788 948.902,653.377 947.249,652.678 C911.934,637.749 880.469,603.21 867.504,566.963 C873.597,565.367 878.221,564.135 883.568,560.658 C893.635,587.383 921.004,621.565 947.056,632.833 C948.683,633.537 950.089,630.619 949.723,629.622 C948.539,626.393 937.681,624.234 936.255,619.019 C936.255,619.019 931.042,599.958 931.042,599.958 C931.996,599.771 933.213,598.783 933.483,597.973 C934.861,593.842 918.716,568.578 926.786,530.466 C929.143,529.601 929.795,527.547 930.439,525.446 C935.805,507.933 945.419,493.358 958.519,480.614 C1011.37,429.201 1097.82,439.65 1139.67,501.4 C1157.37,527.524 1164.87,559.185 1163.04,590.849 C1162.9,593.286 1163.62,594.857 1164.16,596.147 Z M968.763,533.658 C969.353,534.047 969.983,534.088 970.415,533.991 C970.462,533.98 977.595,520.863 995.322,511.116 C1026.62,493.907 1065.63,498.625 1092.66,522.676 C1115.17,542.704 1124.97,573.237 1123.52,603.21 C1123.52,603.21 1123.52,605.497 1123.52,605.497 C1123.51,605.946 1124.39,606.591 1125.07,606.469 C1117.07,642.202 1096.35,670.881 1064.66,691.575 C1062.84,692.768 1061.41,693.869 1062.47,696.06 C1062.95,697.035 1064.61,698.487 1066.37,697.357 C1085.08,685.342 1101.16,670.171 1112.79,650.967 C1132.48,618.469 1139.99,580.026 1129.73,543.347 C1125.06,526.632 1116.45,512.935 1104.38,500.644 C1071.2,466.859 1015.79,465.12 982.065,498.982 C969.25,511.848 962.192,528.777 961.423,546.082 C968.349,551.957 965.903,543.993 968.763,533.658 Z M1013.92,539.517 C1014.17,536.582 1012.58,533.199 1008.53,532.137 C993.904,528.302 977.234,537.525 973.74,553.138 C993.659,534.78 1012.83,552.181 1013.92,539.517 Z M1089.52,553.441 C1089.49,547.543 1085.73,544.164 1082.4,540.512 C1075.4,532.813 1064.72,529.182 1054.71,532.499 C1051.15,533.677 1049.53,536.369 1049.56,539.602 C1049.58,542.304 1052.39,546.288 1056.01,545.234 C1067.96,541.749 1079.81,543.944 1089.52,553.441 Z M1019.47,625.873 C1036.8,604.368 1029.13,566.878 1004.65,558.474 C994.107,554.857 983.017,559.288 976.102,568.366 C963.168,585.347 963.289,610.394 976.657,627.038 C982.529,634.348 990.834,638.835 999.971,637.783 C1007.79,636.884 1014.34,632.246 1019.47,625.873 Z M1077.16,634.698 C1100.18,621.417 1102.91,586.515 1085.38,566.684 C1076.97,557.167 1064.18,554.28 1052.86,560.89 C1031.49,573.372 1029.39,607.044 1044.14,626.54 C1052.04,636.975 1065.65,641.341 1077.16,634.698 Z M988.818,719.005 C990.884,718.738 989.816,716.261 989.925,715.22 C990.729,707.518 996.023,703.328 1001.64,699.516 C1012.54,692.115 1014.41,677.488 1009.54,666.494 C1006.62,659.913 1004.53,652.642 997.915,647.743 C997.045,647.098 995.211,648.841 995.099,649.653 C994.431,654.495 1004.14,659.068 1003.57,669.883 C1003.24,676.327 999.482,681.524 994.96,685.988 C994.96,685.988 983.407,697.394 983.407,697.394 C974.776,709.609 984.543,727.849 989.756,725.313 C991.704,724.365 991.337,722.561 990.14,720.871 C990.14,720.871 988.818,719.005 988.818,719.005 Z " fill="rgb(117,207,187)"/><path d="M1125.07,606.469 C1124.39,606.591 1123.51,605.946 1123.52,605.497 C1123.52,605.497 1123.52,603.21 1123.52,603.21 C1124.97,573.237 1115.17,542.704 1092.66,522.676 C1065.63,498.625 1026.62,493.907 995.322,511.116 C977.595,520.863 970.462,533.98 970.415,533.991 C969.983,534.088 969.353,534.047 968.763,533.658 C981.241,488.557 1032.09,468.526 1074.1,486.805 C1102.7,499.247 1121.73,525.957 1126.84,556.227 C1129.74,573.424 1128.74,590.082 1125.07,606.469 Z " fill="rgb(54,162,149)"/><path d="M1164.16,596.147 C1163.62,594.857 1162.9,593.286 1163.04,590.849 C1164.87,559.185 1157.37,527.524 1139.67,501.4 C1097.82,439.65 1011.37,429.201 958.519,480.614 C945.419,493.358 935.805,507.933 930.439,525.446 C929.795,527.547 929.143,529.601 926.786,530.466 C939.66,469.665 997.503,429.521 1059.56,439.424 C1105.13,446.694 1139.66,476.465 1156.76,519.366 C1165.91,542.328 1167.78,567.174 1164.94,591.973 C1164.76,593.558 1165.75,595.39 1164.16,596.147 Z " fill="rgb(244,239,218)"/><path d="M1117.39,697.037 C1117.39,697.037 1101.38,717.361 1101.38,717.361 C1093.45,727.421 1089.1,738.797 1084.71,750.727 C1079.54,764.77 1071.78,777.552 1060.6,787.446 C1028.38,815.964 979.041,811.407 954.076,775.17 C954.544,774.999 954.956,774.363 955.903,774.324 C967.199,787.105 982.659,796.634 999.901,797.794 C1038.23,800.373 1064.69,779.985 1080.51,746.665 C1080.51,746.665 1089.87,726.945 1089.87,726.945 C1093.47,719.372 1099.26,714.132 1105.16,708.081 C1105.16,708.081 1116.03,696.935 1116.03,696.935 C1115.89,695.966 1116.99,695.891 1117.39,697.037 Z " fill="rgb(51,164,146)"/><path d="M988.818,719.005 C985.429,714.221 983.82,706.853 987.458,701.435 C987.458,701.435 1001.35,687.661 1001.35,687.661 C1007.17,681.889 1010.21,674.28 1009.54,666.494 C1014.41,677.488 1012.54,692.115 1001.64,699.516 C996.023,703.328 990.729,707.518 989.925,715.22 C989.816,716.261 990.884,718.738 988.818,719.005 Z " fill="rgb(59,162,149)"/><path d="M1205.36,801.347 C1199.48,797.931 1204.17,810.953 1202.27,821.172 C1201.14,827.312 1197.84,834.349 1191.7,836.284 C1186.27,837.995 1181.95,832.942 1180.83,828.013 C1177.25,812.213 1183.93,795.164 1172.74,784.216 C1171.95,783.438 1170.33,784.641 1170.02,785.476 C1168.32,790.052 1175.62,794.869 1173.17,803.244 C1170.79,806.587 1163.76,806.184 1160.4,804.919 C1156.86,803.588 1155.24,800.889 1154.74,798.397 C1153.13,790.434 1163.85,786.457 1166.04,779.098 C1168.62,770.468 1172.66,763.474 1180.36,758.157 C1181.92,757.077 1179.15,752.962 1177.11,753.838 C1172.91,755.645 1170.73,758.737 1167.68,762.798 C1164.85,756.776 1166.94,750.332 1172.31,746.134 C1184.16,736.873 1206.38,735.187 1210.13,749.47 C1201.4,747.598 1190.72,745.012 1189.72,749.526 C1188.28,756.066 1206.73,747.726 1220.91,765.062 C1225.05,770.126 1228.55,775.643 1230.23,781.897 C1233.96,795.884 1237.34,812.663 1225.53,820.198 C1226.39,810.682 1226.82,796.625 1222.38,796.048 C1216.56,795.292 1223.84,810.084 1218.32,825.174 C1215.96,831.624 1210.21,836.322 1203.34,834.415 C1210,824.352 1210.23,804.178 1205.36,801.347 Z " fill="rgb(243,236,216)"/><path d="M1004.32,868.794 C1007.17,876.552 1007.04,884.848 1006.99,893.367 C979.457,904.373 941.042,909.824 912.765,898.012 C908.515,884.268 914.824,869.068 928.283,863.306 C947.206,855.206 968.748,863.562 978.057,881.858 C978.951,883.616 979.702,883.99 981.347,883.626 C984.259,882.983 981.861,874.363 975.88,869.423 C975.88,869.423 978.168,867.385 978.168,867.385 C978.722,866.891 978.666,864.429 977.766,864.107 C977.766,864.107 961.63,858.34 961.63,858.34 C963.261,853.484 966.732,850.619 971.21,848.841 C972.028,849.789 972.796,852.81 971.72,853.562 C970.417,854.474 968.471,854.986 968.319,856.666 C967.82,862.217 989.432,863.084 999.725,855.691 C1001.68,853.909 1000.03,849.245 999.786,846.869 C1005.69,847.826 1009.34,854.629 1006.73,859.699 C1003.87,865.242 993.879,864.769 994.02,868.488 C994.068,869.783 995.111,871.285 996.933,870.792 C996.933,870.792 1004.32,868.794 1004.32,868.794 Z " fill="rgb(243,236,217)"/><path d="M1056.09,860.741 C1055.73,861.622 1054.92,862.339 1055.93,863.273 C1055.33,864.087 1054.11,864.833 1053.91,865.685 C1053.58,867.094 1054.41,868.532 1056.25,869.385 C1050.37,875.99 1047.88,883.678 1052.44,883.846 C1054.53,883.923 1054.21,882.596 1055.09,880.937 C1063.61,865.003 1082.17,856.702 1099.56,861.416 C1115.77,865.812 1124.8,882.122 1120.06,897.787 C1115.24,900.33 1110.73,901.709 1105.65,902.689 C1078.63,907.902 1050.4,902.908 1025.69,893.46 C1024.46,885.25 1024.42,876.885 1028.19,869.582 C1028.19,869.582 1034.99,870.561 1034.99,870.561 C1037.19,870.879 1038.63,869.636 1038.42,867.539 C1038.1,864.401 1030.17,866.013 1026.09,860.925 C1024.07,858.398 1024.01,854.578 1025.86,851.702 C1027.05,849.85 1029.29,847.273 1032.49,847.319 C1031.44,849.954 1030.76,852.247 1031.52,853.835 C1032.02,854.899 1033.79,855.973 1035.27,856.822 C1041.69,860.49 1049.04,860.392 1056.09,860.741 Z " fill="rgb(243,237,218)"/><path d="M1174.82,737.623 C1171.77,728.146 1168.55,719.597 1163.56,711.378 C1158.85,703.488 1152.94,697.153 1145.4,691.161 C1147.01,683.127 1145.85,675.943 1144.98,667.654 C1158.72,676.777 1169.76,688.101 1178.48,701.384 C1184.26,711.415 1188.61,721.486 1191.62,733.37 C1185.91,733.834 1181.62,734.909 1174.82,737.623 Z " fill="rgb(114,203,181)"/><path d="M1009.77,898.853 C1008.12,900.65 1007.69,904.007 1010.01,905.371 C1009.05,907.177 1007.19,907.647 1005.32,908.41 C977.989,919.587 948.529,923.267 919.734,916.381 C916.797,915.679 912.405,914.728 910.952,912.238 C909.543,909.822 910.527,906.073 910.421,902.993 C938.935,915.721 977.243,911.068 1006.49,899.403 C1007.71,898.917 1008.88,898.93 1009.77,898.853 Z " fill="rgb(242,234,214)"/><path d="M1022.45,906.238 C1024.22,904.094 1024.02,901.728 1025.44,899.538 C1053.53,910.378 1093.32,915.576 1121.88,903.685 C1122.57,906.785 1122.69,910.035 1121.29,912.318 C1120.08,914.294 1116.97,915.111 1114.69,915.695 C1089.26,922.215 1063.12,920.967 1038.28,912.748 C1032.58,910.864 1027.37,909.614 1022.45,906.238 Z " fill="rgb(243,235,216)"/><path d="M1037.31,852.208 C1039.89,840.611 1040.5,829.831 1039.27,818.495 C1045.65,818.392 1050.9,816.347 1056.05,812.643 C1058.59,827.085 1057.45,840.821 1053.55,854.687 C1048,855.198 1042.74,854.532 1037.31,852.208 Z " fill="rgb(119,204,184)"/><path d="M995.076,851.766 C989.695,854.494 983.888,855.205 978.478,855.008 C974.134,841.204 973.519,827.578 975.679,813.609 C980.997,818.003 986.15,820.803 992.593,821.566 C991.296,831.587 992.405,841.044 995.076,851.766 Z " fill="rgb(121,207,184)"/><path d="M1006.99,893.367 C1007.04,884.848 1007.17,876.552 1004.32,868.794 C1004.32,868.794 1007.53,867.063 1007.53,867.063 C1012.64,875.115 1013,890.962 1010.47,891.975 C1010.47,891.975 1006.99,893.367 1006.99,893.367 Z " fill="rgb(171,163,158)"/><path d="M1028.19,869.582 C1024.42,876.885 1024.46,885.25 1025.69,893.46 C1024.21,892.895 1021.41,892.67 1020.98,890.019 C1019.68,881.996 1021,873.913 1025.36,867.826 C1025.36,867.826 1028.19,869.582 1028.19,869.582 Z " fill="rgb(182,173,169)"/><path d="M1055.93,863.273 C1054.92,862.339 1055.73,861.622 1056.09,860.741 C1056.09,860.741 1061.94,859.746 1061.94,859.746 C1063.84,859.423 1065.05,857.003 1064.48,855.909 C1063.75,854.51 1061.71,854.036 1060.22,853.515 C1059.32,852.986 1059.93,850.079 1061.31,848.761 C1065.77,850.319 1069.75,853.663 1070.95,858.978 C1070.95,858.978 1066.38,860.437 1066.38,860.437 C1062.69,861.617 1059.58,863.198 1055.93,863.273 Z " fill="rgb(253,251,239)"/><path d="M1025.44,899.538 C1024.02,901.728 1024.22,904.094 1022.45,906.238 C1021.03,905.263 1018.47,904.686 1018.48,903.04 C1018.48,903.04 1018.52,896.869 1018.52,896.869 C1018.52,896.869 1025.44,899.538 1025.44,899.538 Z " fill="rgb(183,173,163)"/><path d="M1010.01,905.371 C1007.69,904.007 1008.12,900.65 1009.77,898.853 C1009.77,898.853 1011.19,897.359 1011.19,897.359 C1011.85,896.672 1013.37,896.759 1013.36,897.568 C1013.36,897.568 1013.35,900.978 1013.35,900.978 C1013.35,902.637 1013.46,903.97 1012.48,904.929 C1011.93,905.465 1010.67,905.45 1010.01,905.371 Z " fill="rgb(184,181,175)"/><path d="M858.789,561.683 C853.148,561.392 848.802,558.15 847.681,553.066 C855.795,554.547 864.215,553.451 863.634,549.664 C863.518,548.904 862.324,547.676 860.924,547.887 C844.975,550.29 831.277,539.646 827.941,524.09 C826.86,519.047 824.841,515.479 820.821,512.134 C810.256,503.344 796.321,488.037 805.508,481.185 C815.108,474.025 827.024,491.531 833.343,504.311 C833.749,505.34 831.822,506.674 831.03,507.816 C830.137,509.863 830.374,511.281 831.98,512.377 C833.285,513.267 834.765,512.85 836.118,511.043 C849.076,493.737 866.394,495.405 866.685,491.298 C866.779,489.957 865.781,488.614 864.026,488.561 C861.065,488.472 858.776,489.204 855.836,490.387 C853.06,476.025 839.633,465.046 843.713,454.769 C845.072,451.346 848.279,449.065 851.534,448.885 C862.862,448.259 865.851,468.726 867.791,481.993 C868.573,487.341 869.082,492.189 872.984,496.332 C864.878,504.28 859.538,519.25 866.42,518.847 C869.049,518.693 868.248,517.083 868.855,514.912 C874.643,494.197 899.107,480.074 907.083,489.881 C909.5,492.852 908.4,497.443 905.889,499.936 C905.889,499.936 895.895,509.858 895.895,509.858 C891.657,514.066 888.402,518.171 887.109,524.048 C885.485,531.435 881.2,537.033 874.77,540.871 C873.753,541.478 874.589,543.719 875.49,544.041 C880.213,545.732 883.22,541.35 888.016,536.194 C890.818,539.738 890.118,543.606 887.97,547.098 C881.875,557.011 870.749,562.301 858.789,561.683 Z " fill="rgb(242,235,215)"/><path d="M837.705,500.362 C834.652,494.059 830.833,488.959 826.459,483.581 C818.804,474.167 813.638,459.463 822.389,455.876 C825.382,454.649 829.685,455.511 832.379,458.764 C840.562,468.648 846.065,480.035 850.978,491.936 C846.222,494.157 842.733,496.051 837.705,500.362 Z " fill="rgb(243,235,215)"/><path d="M993.521,600.654 C990.593,608.003 991.985,616.481 996.821,623.114 C999.913,627.355 1004.28,628.568 1009.31,628.507 C1000.46,635.46 989.215,632.822 982.064,624.626 C968.455,609.028 968.747,584.643 983.041,569.156 C992.38,559.037 1006.98,561.846 1014.92,572.21 C1021.83,581.238 1024.46,592.541 1022.66,603.494 C1020.32,598.142 1018.42,594.097 1015.14,592.068 C1010.66,589.294 1004.27,588.361 1000.58,591.891 C1003.23,593.996 1005.48,597.544 1003.21,600.657 C1001.28,603.296 997.913,604.468 993.521,600.654 Z " fill="rgb(240,236,223)"/><path d="M1061.58,600.351 C1058.51,608.113 1059.38,616.925 1064.65,623.198 C1067.99,627.174 1072.18,629.042 1077.12,628.499 C1069.96,633.848 1060.68,633.502 1053.93,628.127 C1044.98,620.998 1040.44,610.458 1040.19,599.005 C1039.79,580.51 1049.43,562.509 1066.46,562.806 C1082.91,563.092 1093.69,586.44 1090.62,604.36 C1086.15,593.137 1079.76,587.044 1068.44,591.169 C1070.22,593.129 1071.57,594.335 1071.91,595.697 C1072.52,598.169 1072.29,600.874 1070.29,602.364 C1067.76,604.244 1064.26,603.205 1061.58,600.351 Z " fill="rgb(240,236,224)"/></g></svg>