<svg xmlns="http://www.w3.org/2000/svg" viewBox="0 0 40 40">
  <rect width="40" height="40" rx="9" fill="#0a0e14"/>
  <g transform="rotate(-8 18 20)">
    <path
      d="M11 8
         C 18 4, 27 7, 27 16
         C 27 20, 24 22, 23 25
         C 22 28, 24 32, 19 33
         C 15 33, 13 30, 15 26
         C 16 23, 12 22, 11 19
         C 8 19, 7 15, 10 13
         C 7 10, 8 7, 11 8 Z"
      fill="#3dd7c6"/>
    <path
      d="M15 13 C 20 11, 24 14, 23 18 C 22 21, 20 21, 19 20"
      fill="none" stroke="#0a0e14" stroke-width="1.6" stroke-linecap="round"/>
    <circle cx="18" cy="22" r="1.4" fill="#0a0e14"/>
  </g>
  <path d="M30 14 Q33 20 30 26"
        fill="none" stroke="#3dd7c6" stroke-width="1.8" stroke-linecap="round"/>
  <path d="M34 10 Q39 20 34 30"
        fill="none" stroke="#3dd7c6" stroke-width="1.8" stroke-linecap="round" opacity="0.55"/>
</svg>
