<svg xmlns="http://www.w3.org/2000/svg" viewBox="331.88723396653614 1054.7826592443937 335.34009838790513 416.49883128210445"><path d="M545.765,1403.97 C548.206,1409.53 551.564,1414.37 556.846,1417.26 C558.923,1418.4 561.246,1419.89 564.036,1419.95 C564.036,1419.95 562.985,1421.91 562.985,1421.91 C569.489,1422.72 574.118,1420.88 577.01,1421.27 C583.45,1422.12 588.752,1420.13 591.006,1413.93 C591.006,1413.93 593.023,1414.21 593.023,1414.21 C602.047,1415.23 619.369,1422.3 613.091,1429.41 C606.792,1434.82 595.333,1438.9 586.023,1440.29 C586.023,1440.29 555.914,1444.82 555.914,1444.82 C521.223,1447.89 486.831,1448.25 452.325,1444.98 C452.325,1444.98 439.212,1443.73 439.212,1443.73 C423.23,1442.22 393.711,1438.18 385.506,1427.6 C383.906,1423.76 390.046,1419.48 393.072,1418.37 C393.072,1418.37 404.14,1414.33 404.14,1414.33 C404.509,1414.19 405.197,1413.85 405.131,1413.46 C405.05,1412.99 404.951,1412.23 405.142,1411.69 C405.93,1412.12 406.29,1413.14 406.204,1413.99 C407,1417.38 409.729,1419.87 412.905,1421.04 C413.454,1424.03 417.395,1423.68 420.187,1422.09 C421.441,1420.93 422.555,1419.8 424.165,1419.94 C430.521,1420.52 438.035,1419.95 439.073,1416.59 C444.22,1415.95 447.674,1410.77 449.862,1406.12 C450.756,1406.31 450.984,1405.81 451.266,1405.49 C451.729,1404.96 452.738,1406.25 452.863,1406.43 C452.863,1406.43 496.074,1404.36 496.074,1404.36 C505.082,1403.93 513.788,1404.35 522.201,1404.91 C522.201,1404.91 536.194,1405.84 536.194,1405.84 C539.886,1406.08 543.742,1407.42 545.765,1403.97 Z " fill="rgb(11,13,27)"/><path d="M595.535,1252.8 C596.827,1254.59 601.305,1254.78 600.543,1258.82 C592.517,1256.56 586.72,1260.04 589.499,1261.01 C589.948,1261.17 590.892,1261.19 591.278,1259.97 C605.362,1259.11 617.845,1269.54 618.637,1283.87 C624.548,1290.51 630.558,1296.93 637.872,1299.61 C639.601,1301.91 641.972,1304.05 641.68,1306.51 C641.206,1310.5 639.462,1313.38 635.941,1315.58 C628.009,1307.32 616.633,1296.44 617.081,1287.06 C615.513,1287.53 615.022,1288.27 614.262,1289.23 C618.231,1302.96 629.398,1309.64 636.355,1320.04 C635.506,1323.07 633.345,1325.44 629.838,1325.38 C626.73,1325.82 621.156,1324.07 619.731,1320.69 C614.679,1308.69 606.862,1303.05 606.187,1294.08 C608.091,1292.46 605.884,1290.9 604.543,1292.63 C603.495,1303.28 614.737,1309.86 617.552,1321.03 C618.423,1324.49 617.368,1327.95 614.937,1330.18 C613.177,1329.76 610.997,1330.35 608.935,1328.95 C603.992,1325.6 600.739,1320.78 597.978,1316.01 C597.978,1316.01 589.896,1302.06 589.896,1302.06 C586.811,1296.74 579.655,1292.21 574.011,1297.33 C570.8,1300.23 568.47,1304.82 562.93,1305.14 C559.978,1305.31 556.658,1305.37 554.363,1303.36 C552.782,1301.98 549.89,1299.16 551.155,1295.92 C552.466,1292.56 557.296,1291.47 560.212,1290.39 C564.566,1288.77 568.273,1285.54 569.722,1280.75 C571.795,1273.91 575.332,1268.53 580.378,1263.12 C575.99,1263.61 573.839,1267.03 572.436,1270.34 C570.439,1267.01 573.015,1264.52 572.692,1262.25 C578.378,1255.22 586.386,1251.76 595.535,1252.8 Z " fill="rgb(253,253,253)"/><path d="M426.15,1266.14 C425.8,1266.9 426.859,1268.7 424.661,1269.71 C422.833,1266.63 421.381,1263.64 417.263,1263.63 C424.208,1269.28 425.018,1276.08 427.226,1282.83 C430.73,1293.55 451.697,1289.36 445.152,1300.23 C441.14,1306.89 431.371,1307.34 426.253,1301.43 C426.253,1301.43 422.182,1296.72 422.182,1296.72 C419.248,1294.85 413.859,1294.95 410.876,1297.85 C401.376,1307.06 397.844,1328.32 382.976,1329.99 C379.767,1328.07 379.069,1324.23 379.854,1320.98 C382.809,1308.78 393.816,1304.67 392.855,1293.39 C392.14,1292.95 390.977,1292.33 389.813,1292.04 C394.145,1303.15 380.492,1308.84 378.11,1320.12 C377.129,1324.77 367.599,1328 362.653,1324.16 C361.571,1323.32 361.531,1319.52 362.471,1318.42 C362.471,1318.42 368.914,1310.93 368.914,1310.93 C374.854,1304.02 380.703,1297.63 383.745,1289.19 C380.202,1284.02 382.996,1290.17 376.324,1298.48 C375.865,1297.62 376.069,1297.2 375.931,1295.81 C375.931,1295.81 363.798,1308.88 363.798,1308.88 C362.109,1310.7 361.317,1312.94 361.815,1315.09 C359.01,1314.63 356.704,1311.51 356.14,1309.33 C355.191,1305.66 357.024,1302.86 359.804,1300.79 C366.935,1295.5 373.811,1290.19 378.975,1283.36 C380.017,1268.14 394.034,1258.79 408.288,1259.79 C405.065,1256.64 400.659,1257.99 396.745,1258.8 C396.311,1255.6 398.915,1254.93 399.832,1253.97 C408.79,1249.96 422.943,1256.18 426.15,1266.14 Z " fill="rgb(253,253,253)"/><path d="M595.535,1252.8 C586.386,1251.76 578.378,1255.22 572.692,1262.25 C572.534,1261.14 572.202,1259.82 574.197,1258.56 C570.169,1250 565.983,1241.53 560.127,1233.86 C560.127,1233.86 545.297,1255.57 545.297,1255.57 C538.188,1264.34 529.798,1272.93 528.397,1284.41 C528.397,1284.41 527.08,1295.18 527.08,1295.18 C534.236,1294.03 542.509,1293.49 549.514,1294.5 C551.933,1293.1 554.853,1289.29 558.647,1289.13 C559.013,1289.63 559.848,1290.25 560.212,1290.39 C557.296,1291.47 552.466,1292.56 551.155,1295.92 C549.89,1299.16 552.782,1301.98 554.363,1303.36 C556.658,1305.37 559.978,1305.31 562.93,1305.14 C568.47,1304.82 570.8,1300.23 574.011,1297.33 C579.655,1292.21 586.811,1296.74 589.896,1302.06 C589.896,1302.06 597.978,1316.01 597.978,1316.01 C596.328,1316.39 595.89,1315.56 594.926,1314.02 C594.926,1314.02 586.214,1300.12 586.214,1300.12 C583.773,1296.23 578.026,1295.96 574.76,1298.92 C574.76,1298.92 577.313,1307.93 577.313,1307.93 C579.616,1316.06 566.12,1325.21 557.353,1331.47 C556.73,1332.01 556.13,1332.15 555.471,1330.88 C566.814,1323.76 581.629,1312.17 573.045,1302.08 C569.019,1306.31 564.414,1307.82 558.919,1307.14 C553.249,1306.43 549.36,1301.91 549,1296.07 C549,1296.07 539.083,1296.04 539.083,1296.04 C539.1,1295.39 538.772,1294.99 538.388,1294.87 C537.301,1294.56 536.189,1295.64 535.442,1295.75 C535.442,1295.75 526.236,1297.15 526.236,1297.15 C523.956,1303.91 520.819,1309.71 514.923,1313.85 C514.923,1313.85 532.939,1312.91 532.939,1312.91 C532.939,1312.91 550.213,1313.46 550.213,1313.46 C552.079,1311.56 552.512,1308.73 555.401,1308.01 C553.735,1312.72 550.064,1316.13 545.632,1318.93 C520.285,1334.9 493.494,1348.06 464.641,1358.49 C460.955,1363.49 461.574,1370.05 465.234,1375.17 C491.505,1365.2 516.792,1353.64 540.981,1339.98 C541.087,1340.13 541.321,1341.54 540.855,1341.82 C540.855,1341.82 533.128,1346.52 533.128,1346.52 C532.639,1346.82 533.419,1348.23 534.011,1348.52 C534.582,1348.79 535.651,1348.91 536.406,1348.4 C540.77,1345.46 545.735,1345.57 551.253,1344.72 C553.32,1344.4 555.029,1341.56 557.255,1343.67 C555.958,1344.69 554.357,1344.26 553.276,1346.38 C562.683,1351.6 569.683,1359 575.481,1367.37 C585.168,1381.34 591.239,1406.78 579.343,1418.25 C578.635,1418.94 578.067,1418.95 577.528,1419.09 C576.911,1419.24 576.771,1420.54 577.01,1421.27 C574.118,1420.88 569.489,1422.72 562.985,1421.91 C562.985,1421.91 564.036,1419.95 564.036,1419.95 C567.888,1420.01 572.506,1420.66 576.235,1418.17 C589.909,1409.01 583.739,1379.47 571.157,1364.81 C571.157,1364.81 564.181,1356.67 564.181,1356.67 C560.486,1352.37 555.104,1348.59 548.989,1347.15 C544.247,1346.04 539.756,1349.74 535.704,1350.47 C531.849,1348.92 527.622,1347.77 523.82,1352.65 C527.487,1355.21 533.368,1355.23 534.633,1358.09 C539.639,1369.41 532.291,1381.66 528.021,1380.49 C523.07,1379.13 525.69,1373 520.74,1373.05 C520.74,1373.05 520.869,1377.29 520.869,1377.29 C517.136,1377.25 520.665,1371.79 516.074,1370.95 C514.401,1370.65 513.528,1369.43 514.018,1368.05 C514.018,1368.05 531.996,1375.26 531.996,1375.26 C535.934,1368.73 535.285,1359.24 530.537,1357.66 C530.537,1357.66 519.832,1354.1 519.832,1354.1 C519.832,1354.1 501.745,1362.53 501.745,1362.53 C501.745,1362.53 511.061,1366.87 511.061,1366.87 C511.726,1367.18 513.061,1366.96 513.309,1368.27 C510.914,1370.83 505.285,1364.39 498.056,1363.98 C498.056,1363.98 476.762,1372.37 476.762,1372.37 C477.731,1373.88 477.855,1374.6 477.606,1375.11 C477.338,1375.66 476.424,1376.06 475.894,1376.08 C475.921,1375.7 476.224,1374.09 475.991,1373.59 C475.776,1373.13 474.497,1373.3 474.112,1373.64 C471.042,1376.33 472.062,1378.38 470.032,1379.59 C465.062,1382.54 457.054,1369.9 461.96,1358.12 C465.415,1354.78 470.431,1354 475.145,1352.49 C468.758,1348.27 467.125,1347.54 461.279,1350.77 C452.278,1342.91 441.694,1347.54 433.738,1355.8 C433.738,1355.8 427.874,1361.89 427.874,1361.89 C422.19,1367.79 418.355,1375.42 415.55,1383.65 C410.951,1397.15 411.624,1416.03 424.165,1419.94 C422.555,1419.8 421.441,1420.93 420.187,1422.09 C417.395,1423.68 413.454,1424.03 412.905,1421.04 C415.105,1421.29 417.22,1421.68 419.573,1420.09 C417.377,1417.77 415.176,1416.04 414.152,1413.78 C407.552,1399.22 412.503,1380.44 421.392,1367.08 C426.63,1359.2 433.349,1351.7 442.228,1347.25 C443.647,1346.54 444.948,1346.42 444.743,1344.86 C444.687,1344.16 445.228,1343.85 445.587,1344 C445.587,1344 447.238,1344.69 447.238,1344.69 C450.89,1344.62 454.611,1344.1 457.734,1346.37 C459.704,1347.8 462.084,1349.38 464.514,1346.88 C459.666,1344.57 455.188,1342.35 451.751,1338.91 C451.142,1338.3 450.887,1338.92 450.452,1338.85 C449.822,1338.74 449.799,1337.13 450.138,1336.73 C450.138,1336.73 466.948,1346.01 466.948,1346.01 C468.464,1346.85 469.962,1346.39 470.992,1346.28 C473.643,1350.4 478.348,1351.71 483.107,1349.38 C483.107,1349.38 493.44,1344.33 493.44,1344.33 C494.184,1343.96 494.408,1343.31 493.576,1342.98 C494.67,1341.33 496.651,1343.11 497.624,1342.68 C514.985,1335.01 530.9,1326.59 547.214,1315.59 C535.267,1314.15 523.676,1315.25 511.126,1316.36 C497.253,1323.19 481.371,1324.56 467.036,1315.97 C458.428,1317.18 452.909,1313.26 448.896,1315.61 C448.896,1315.61 462.988,1324.97 462.988,1324.97 C464.448,1325.93 465.331,1326.53 464.982,1328.03 C464.982,1328.03 452.099,1319.83 452.099,1319.83 C447.61,1316.97 442.008,1315.09 440.31,1309.39 C444.624,1312.2 447.123,1315.02 452.32,1313.25 C449.95,1310.48 448.806,1305.45 448.309,1302.33 C449.193,1301.32 449.357,1299.83 448.766,1297.98 C447.67,1298.47 447.232,1299.22 447.035,1300.06 C445.968,1304.59 440.946,1307.08 436.036,1307.12 C431.404,1307.16 427.606,1305.83 424.639,1302.07 C420.577,1304.58 419.536,1309.63 421.894,1314.14 C424.898,1319.89 430.119,1323.63 435.076,1326.87 C435.295,1328.01 437.578,1328.53 436.223,1330.65 C429.676,1323.51 422.484,1322.04 419.313,1312.66 C416.161,1303.34 427.531,1300.02 419.573,1297.53 C420.019,1295.97 421.241,1296.3 422.182,1296.72 C422.182,1296.72 426.253,1301.43 426.253,1301.43 C431.371,1307.34 441.14,1306.89 445.152,1300.23 C451.697,1289.36 430.73,1293.55 427.226,1282.83 C427.381,1282.53 428.707,1281.52 428.876,1282.9 C433.676,1290.86 444.771,1286.58 449.767,1297.33 C451.632,1294.17 448.662,1292.44 450.901,1290.66 C453.906,1304.26 464.188,1314.17 477.216,1318.22 C498.675,1324.88 524.508,1312.26 525.687,1290.02 C526.026,1283.62 527.634,1278.32 530.919,1272.94 C530.919,1272.94 537.938,1260.41 537.938,1260.41 C543.688,1256.37 547.46,1249.27 551.974,1242.94 C574.575,1211.24 585.275,1171.8 572.894,1135.4 C564.547,1110.85 545.662,1091.57 520.896,1084.16 C520.914,1083.15 521.788,1082.63 522.94,1083.03 C556.101,1094.55 576.29,1123.45 579.487,1157.48 C581.438,1178.26 576.918,1198.46 568.65,1218.22 C577.753,1228.03 584.983,1239.09 590.534,1251.04 C593.785,1250.16 594.527,1251.41 595.535,1252.8 Z M567.691,1241.97 C567.691,1241.97 572.883,1251.7 572.883,1251.7 C577.152,1248.02 581.838,1246.58 587.072,1248.13 C583.719,1240.33 579.294,1234.19 574.53,1228 C573.868,1228.92 573.365,1229.01 572.834,1228.89 C573.062,1228.3 572.753,1228.03 572.248,1227.86 C571.727,1227.69 573.126,1226.51 572.87,1226.15 C571.885,1224.77 569.661,1221.84 567.909,1220.55 C567.909,1220.55 561.149,1232.69 561.149,1232.69 C561.149,1232.69 567.691,1241.97 567.691,1241.97 Z M467.791,1376.44 C466.392,1378.05 468.022,1378.13 468.606,1378.12 C469.809,1378.11 470.383,1377.11 469.994,1376.46 C469.646,1375.87 468.592,1375.51 467.791,1376.44 Z M531.612,1376.85 C529.3,1375.35 527.792,1375.86 525.968,1376.28 C526.995,1378.21 529.544,1379.15 531.612,1376.85 Z " fill="rgb(5,6,6)"/><path d="M539.083,1296.04 C539.083,1296.04 549,1296.07 549,1296.07 C549.36,1301.91 553.249,1306.43 558.919,1307.14 C564.414,1307.82 569.019,1306.31 573.045,1302.08 C581.629,1312.17 566.814,1323.76 555.471,1330.88 C555.471,1330.88 540.981,1339.98 540.981,1339.98 C516.792,1353.64 491.505,1365.2 465.234,1375.17 C461.574,1370.05 460.955,1363.49 464.641,1358.49 C493.494,1348.06 520.285,1334.9 545.632,1318.93 C550.064,1316.13 553.735,1312.72 555.401,1308.01 C552.512,1308.73 552.079,1311.56 550.213,1313.46 C550.213,1313.46 532.939,1312.91 532.939,1312.91 C535.706,1307.72 536.887,1302.25 535.88,1296.19 C535.88,1296.19 539.083,1296.04 539.083,1296.04 Z " fill="rgb(133,208,182)"/><path d="M448.309,1302.33 C448.806,1305.45 449.95,1310.48 452.32,1313.25 C447.123,1315.02 444.624,1312.2 440.31,1309.39 C442.008,1315.09 447.61,1316.97 452.099,1319.83 C452.099,1319.83 464.982,1328.03 464.982,1328.03 C464.982,1328.03 493.576,1342.98 493.576,1342.98 C494.408,1343.31 494.184,1343.96 493.44,1344.33 C493.44,1344.33 470.992,1346.28 470.992,1346.28 C469.962,1346.39 468.464,1346.85 466.948,1346.01 C466.948,1346.01 450.138,1336.73 450.138,1336.73 C450.138,1336.73 435.076,1326.87 435.076,1326.87 C430.119,1323.63 424.898,1319.89 421.894,1314.14 C419.536,1309.63 420.577,1304.58 424.639,1302.07 C427.606,1305.83 431.404,1307.16 436.036,1307.12 C440.946,1307.08 445.968,1304.59 447.035,1300.06 C447.521,1299.77 448.063,1300.22 447.979,1300.56 C447.88,1300.97 448.245,1301.93 448.309,1302.33 Z " fill="rgb(138,211,184)"/><path d="M419.599,1168.08 C421.39,1181.25 425.037,1195.67 433.891,1207 C441.849,1217.19 448.141,1226.85 450.417,1239.82 C452.274,1250.4 452.68,1261.54 450.839,1272.18 C450.839,1272.18 449.591,1247.41 449.591,1247.41 C449.265,1240.93 448.121,1234.89 444.83,1228.93 C441.249,1230.81 437.625,1233 435.344,1236.45 C435.344,1236.45 424.976,1252.17 424.976,1252.17 C424.976,1252.17 422.255,1257.86 422.255,1257.86 C425.113,1259.64 427.525,1263.17 426.15,1266.14 C422.943,1256.18 408.79,1249.96 399.832,1253.97 C400.241,1251.35 403.738,1250.26 407.148,1251.14 C412.974,1235.75 421.949,1223.1 435.738,1212.92 C430.879,1207.63 427.556,1202.06 425.391,1195.64 C425.391,1195.64 419.101,1176.97 419.101,1176.97 C417.861,1173.3 417.195,1168.86 418.669,1166 C419.48,1166.87 419.491,1167.29 419.599,1168.08 Z M436.92,1232.37 C433.691,1227.72 429.852,1221.7 430.855,1219.06 C422.356,1226.3 415.487,1235.74 410.74,1246.84 C416.073,1246.59 420.296,1247.87 424.161,1251.48 C427.978,1244.36 431.446,1237.83 436.92,1232.37 Z " fill="rgb(1,1,1)"/><path d="M583.971,1370.04 C583.971,1370.04 590.601,1385.17 590.601,1385.17 C590.601,1385.17 591.601,1388.38 591.601,1388.38 C594.184,1396.68 593.915,1405.93 591.006,1413.93 C588.752,1420.13 583.45,1422.12 577.01,1421.27 C576.771,1420.54 576.911,1419.24 577.528,1419.09 C578.067,1418.95 578.635,1418.94 579.343,1418.25 C591.239,1406.78 585.168,1381.34 575.481,1367.37 C575.901,1366.23 576.614,1366.08 577.158,1366.63 C577.158,1366.63 582.641,1372.18 582.641,1372.18 C582.641,1372.18 583.971,1370.04 583.971,1370.04 Z " fill="rgb(252,253,253)"/><path d="M505.144,1081.57 C484.525,1081.86 464.248,1086.85 448.3,1101.19 C435.722,1112.5 426.748,1126.14 423.008,1141.88 C423.008,1141.88 420.897,1141 420.897,1141 C422.069,1132.74 425.887,1125.3 430.067,1118 C432.171,1114.33 434.569,1110.48 437.321,1107.27 C449.343,1093.27 466.274,1083.82 484.991,1081.26 C484.991,1081.26 505.144,1081.57 505.144,1081.57 Z " fill="rgb(209,246,233)"/><path d="M564.811,1346.34 C572.893,1352.62 579.866,1360.67 583.971,1370.04 C583.971,1370.04 582.641,1372.18 582.641,1372.18 C582.641,1372.18 577.158,1366.63 577.158,1366.63 C576.614,1366.08 575.901,1366.23 575.481,1367.37 C569.683,1359 562.683,1351.6 553.276,1346.38 C554.357,1344.26 555.958,1344.69 557.255,1343.67 C557.255,1343.67 564.811,1346.34 564.811,1346.34 Z " fill="rgb(209,205,199)"/><path d="M519.948,1084.08 C515.049,1083.64 509.997,1081.5 505.144,1081.57 C505.144,1081.57 484.991,1081.26 484.991,1081.26 C466.274,1083.82 449.343,1093.27 437.321,1107.27 C436.154,1106.34 436.468,1105.78 437.24,1104.92 C457.557,1082.47 486.363,1073.86 517.328,1081.52 C517.328,1081.52 519.455,1082.05 519.455,1082.05 C520.024,1082.19 520.363,1083.39 519.948,1084.08 Z " fill="rgb(6,7,9)"/><path d="M378.11,1320.12 C378.739,1320.13 379.272,1320.68 379.854,1320.98 C379.069,1324.23 379.767,1328.07 382.976,1329.99 C382.337,1330.95 381.223,1331.01 380.374,1329.98 C378.22,1327.36 378.339,1325.09 377.473,1325.11 C375.106,1325.17 368.053,1332.21 360.789,1324.71 C359.095,1322.96 359.689,1317.46 361.704,1316.19 C363.306,1315.18 364.778,1314.27 364.836,1312.79 C364.836,1312.79 376.324,1298.48 376.324,1298.48 C382.996,1290.17 380.202,1284.02 383.745,1289.19 C380.703,1297.63 374.854,1304.02 368.914,1310.93 C368.914,1310.93 362.471,1318.42 362.471,1318.42 C361.531,1319.52 361.571,1323.32 362.653,1324.16 C367.599,1328 377.129,1324.77 378.11,1320.12 Z " fill="rgb(9,9,9)"/><path d="M426.569,1349.39 C426.569,1349.39 414.906,1366.18 414.906,1366.18 C411.273,1370.88 409.366,1376.39 407.187,1382.23 C403.682,1391.63 402.83,1402.21 405.142,1411.69 C404.951,1412.23 405.05,1412.99 405.131,1413.46 C405.197,1413.85 404.509,1414.19 404.14,1414.33 C396.321,1392.02 410.259,1364.42 426.569,1349.39 Z " fill="rgb(5,5,7)"/><path d="M637.872,1299.61 C642.414,1301.27 644.959,1305.58 641.87,1311.21 C640.255,1314.15 637.232,1316.91 636.355,1320.04 C629.398,1309.64 618.231,1302.96 614.262,1289.23 C615.022,1288.27 615.513,1287.53 617.081,1287.06 C616.633,1296.44 628.009,1307.32 635.941,1315.58 C639.462,1313.38 641.206,1310.5 641.68,1306.51 C641.972,1304.05 639.601,1301.91 637.872,1299.61 Z " fill="rgb(9,8,8)"/><path d="M629.838,1325.38 C629.858,1325.6 630.329,1326.75 630.567,1326.45 C631.129,1325.76 632.45,1324.97 633.21,1326.54 C628.461,1328.86 624.078,1326.67 619.044,1323.64 C619.753,1327.29 617.582,1330.81 614.937,1330.18 C617.368,1327.95 618.423,1324.49 617.552,1321.03 C614.737,1309.86 603.495,1303.28 604.543,1292.63 C605.884,1290.9 608.091,1292.46 606.187,1294.08 C606.862,1303.05 614.679,1308.69 619.731,1320.69 C621.156,1324.07 626.73,1325.82 629.838,1325.38 Z " fill="rgb(8,7,6)"/><path d="M430.067,1118 C425.887,1125.3 422.069,1132.74 420.897,1141 C420.897,1141 419.54,1150.58 419.54,1150.58 C419.54,1150.58 419.006,1164.99 419.006,1164.99 C418.525,1165.03 417.916,1165.12 417.081,1164.86 C417.081,1164.86 417.401,1152.15 417.401,1152.15 C417.686,1140.85 425.076,1120.47 427.979,1118.45 C428.602,1118.01 429.164,1117.82 430.067,1118 Z " fill="rgb(6,8,10)"/><path d="M590.601,1385.17 C590.601,1385.17 583.971,1370.04 583.971,1370.04 C579.866,1360.67 572.893,1352.62 564.811,1346.34 C564.606,1345.98 565.147,1345.01 565.468,1345.08 C565.781,1345.14 566.471,1345.76 567.007,1346.17 C578.651,1355.05 585.662,1367.66 591.068,1381.11 C591.471,1382.11 592.08,1382.42 592.065,1383.52 C592.052,1384.39 591.952,1385.05 590.601,1385.17 Z " fill="rgb(9,9,9)"/><path d="M376.324,1298.48 C376.324,1298.48 364.836,1312.79 364.836,1312.79 C364.195,1313.58 362.857,1314.48 361.815,1315.09 C361.317,1312.94 362.109,1310.7 363.798,1308.88 C363.798,1308.88 375.931,1295.81 375.931,1295.81 C376.069,1297.2 375.865,1297.62 376.324,1298.48 Z " fill="rgb(181,176,175)"/><path d="M423.008,1141.88 C423.008,1141.88 421.237,1149.33 421.237,1149.33 C421.237,1149.33 420.828,1168.86 420.828,1168.86 C420.821,1169.17 419.556,1168.58 419.599,1168.08 C419.491,1167.29 419.48,1166.87 418.669,1166 C418.857,1165.8 419.152,1165.42 419.006,1164.99 C419.006,1164.99 419.54,1150.58 419.54,1150.58 C419.54,1150.58 420.897,1141 420.897,1141 C420.897,1141 423.008,1141.88 423.008,1141.88 Z " fill="rgb(178,236,216)"/><path d="M593.023,1414.21 C593.023,1414.21 591.006,1413.93 591.006,1413.93 C593.915,1405.93 594.184,1396.68 591.601,1388.38 C591.922,1387.79 591.707,1387.03 592.408,1385.96 C595.612,1395.32 595.875,1404.78 593.023,1414.21 Z " fill="rgb(8,8,9)"/><path d="M548.436,1218.14 C552.923,1211.78 555.965,1195.73 555.851,1186.99 C555.851,1186.99 555.495,1159.49 555.495,1159.49 C553.524,1143.85 546.309,1129.68 533.39,1120.75 C525.367,1115.2 520.433,1121.33 517.171,1121.05 C517.171,1121.05 514.165,1120.79 514.165,1120.79 C512.728,1119.27 511.504,1117.61 511.854,1115.5 C512.152,1113.69 513.298,1112.37 515.234,1111.09 C507.471,1108.06 499.965,1108.45 491.636,1110.16 C494.856,1112.66 495.516,1115.71 493.794,1118.76 C491.163,1120.85 487.661,1121.58 484.254,1119.61 C470.034,1115.64 456.73,1130.8 452.215,1145.28 C446.58,1163.35 449.266,1183.3 459.665,1199.14 C464.215,1206.07 470.242,1210.47 477.698,1213.38 C477.698,1213.38 484.648,1217.95 484.648,1217.95 C488.892,1223.28 491.712,1229.67 490.461,1237.06 C488.181,1250.54 473.853,1250.18 475.106,1259.89 C474.481,1259.86 473.6,1259.74 473.482,1258.74 C472.955,1254.3 475.497,1251.15 479.209,1249.21 C487.248,1244.99 491.043,1235.69 487.681,1227.34 C485.105,1220.94 480.375,1216.47 473.979,1213.95 C466.926,1211.18 461.55,1205.71 457.49,1199.42 C442.676,1176.49 443.574,1142.89 463.565,1123.19 C461.764,1121.82 460.849,1120.58 460.607,1119.47 C460.263,1117.88 460.808,1116.34 462.066,1115.02 C468.932,1107.96 478.604,1106.4 487.813,1108.91 C498.039,1106.3 508.149,1105.9 517.904,1109.82 C526.646,1105.76 535.765,1107.47 542.444,1113.57 C544.467,1114.8 545.886,1117.06 545.587,1119.06 C545.224,1121.49 543.613,1123.03 540.814,1124.25 C550.887,1134.02 555.886,1146.63 557.449,1160.47 C557.449,1160.47 557.714,1189.02 557.714,1189.02 C556.784,1205.65 552.114,1221.6 543.7,1235.64 C538.953,1243.55 533.346,1251.67 524.428,1255.05 C535.755,1244.31 547.558,1232.83 548.436,1218.14 Z " fill="rgb(1,1,1)"/><path d="M548.436,1218.14 C548.436,1218.14 549.7,1196.98 549.7,1196.98 C550.309,1186.77 545.148,1178.61 544.609,1171.73 C551.741,1159.12 547.841,1141.45 534.804,1135.58 C535.256,1131.9 526.449,1126.42 520.891,1124.25 C519.04,1123.53 517.442,1122.88 517.171,1121.05 C520.433,1121.33 525.367,1115.2 533.39,1120.75 C546.309,1129.68 553.524,1143.85 555.495,1159.49 C555.495,1159.49 555.851,1186.99 555.851,1186.99 C555.965,1195.73 552.923,1211.78 548.436,1218.14 Z " fill="rgb(105,182,156)"/><path d="M477.216,1318.22 C477.231,1317.35 477.291,1317.3 477.615,1317.07 C478.472,1316.48 479.002,1316.58 480.113,1316.6 C498.112,1316.9 515.23,1305.77 520.16,1288.3 C523.347,1277.01 528.681,1266.91 537.938,1260.41 C537.938,1260.41 530.919,1272.94 530.919,1272.94 C527.634,1278.32 526.026,1283.62 525.687,1290.02 C524.508,1312.26 498.675,1324.88 477.216,1318.22 Z " fill="rgb(99,182,154)"/><path d="M475.106,1259.89 C473.853,1250.18 488.181,1250.54 490.461,1237.06 C491.712,1229.67 488.892,1223.28 484.648,1217.95 C491.774,1220.48 498.967,1226.37 499.941,1235.08 C501.579,1249.72 488.816,1260.59 475.106,1259.89 Z " fill="rgb(101,181,156)"/><path d="M499.136,1144.04 C501.593,1147.2 502.452,1152.3 503.156,1155.76 C503.706,1165.92 499.009,1176.62 489.645,1181.49 C480.439,1186.28 469.911,1182.24 464.093,1174 C454.877,1160.94 458.508,1143.12 472.821,1135.87 C482.723,1130.85 493.308,1135.55 499.136,1144.04 Z M486.31,1180.62 C494.171,1177.97 499.135,1170.09 500.513,1163.74 C502.341,1155.32 499.854,1147.2 494.574,1141.6 C487.884,1134.49 477.651,1133.77 469.919,1139.89 C459.96,1147.78 458.334,1161.26 465.144,1171.89 C469.573,1178.8 477.549,1183.58 486.31,1180.62 Z " fill="rgb(8,9,7)"/><path d="M534.804,1135.58 C547.841,1141.45 551.741,1159.12 544.609,1171.73 C541.118,1177.91 535.062,1182.47 528.442,1182.95 C515.111,1183.9 504.642,1171.32 504.788,1158.78 C504.84,1154.38 505.311,1150.58 507.015,1146.82 C511.853,1136.15 523.859,1130.66 534.804,1135.58 Z M536.324,1177.83 C546.176,1171.03 548.397,1159.14 544.428,1148.65 C541.646,1141.3 535.581,1136.4 528.398,1135.75 C520.738,1135.05 513.705,1138.86 509.762,1145.85 C503.866,1156.3 506.461,1169.55 515.882,1177.15 C521.918,1182.02 529.694,1182.41 536.324,1177.83 Z " fill="rgb(10,11,9)"/><path d="M514.165,1120.79 C512.082,1123.39 502.735,1118.37 493.794,1118.76 C495.516,1115.71 494.856,1112.66 491.636,1110.16 C499.965,1108.45 507.471,1108.06 515.234,1111.09 C513.298,1112.37 512.152,1113.69 511.854,1115.5 C511.504,1117.61 512.728,1119.27 514.165,1120.79 Z " fill="rgb(102,178,154)"/><path d="M507.015,1146.82 C505.311,1150.58 504.84,1154.38 504.788,1158.78 C504.788,1158.78 503.156,1155.76 503.156,1155.76 C502.452,1152.3 501.593,1147.2 499.136,1144.04 C502.131,1143.54 501.273,1147.08 504.656,1149.19 C505.446,1147.67 506.166,1146.93 507.015,1146.82 Z " fill="rgb(164,232,213)"/><path d="M564.181,1356.67 C564.181,1356.67 571.157,1364.81 571.157,1364.81 C569.832,1365.18 569.899,1365.82 570.355,1366.67 C576.626,1378.29 579.361,1391.31 576.208,1404.16 C574.266,1412.08 567.076,1416.8 558.993,1416.15 C557.952,1416.07 557.299,1415.97 556.846,1417.26 C551.564,1414.37 548.206,1409.53 545.765,1403.97 C545.765,1403.97 544.03,1396.23 544.03,1396.23 C541.506,1384.95 546.34,1375.8 554.624,1367.16 C545.862,1370.84 542.636,1380.94 541.29,1389.02 C541.29,1389.02 538.83,1388.79 538.83,1388.79 C537.273,1387.56 535.925,1386.26 534.688,1383.99 C531.553,1385.35 528.538,1386.41 525.671,1384.81 C523.281,1383.48 521.583,1380.2 520.869,1377.29 C520.869,1377.29 520.74,1373.05 520.74,1373.05 C525.69,1373 523.07,1379.13 528.021,1380.49 C532.291,1381.66 539.639,1369.41 534.633,1358.09 C534.581,1356.88 535.152,1356.26 535.731,1356.22 C535.731,1356.22 538.916,1355.96 538.916,1355.96 C547.984,1352.08 557.035,1353.32 564.616,1359.51 C565.333,1358.01 563.973,1357.41 564.181,1356.67 Z " fill="rgb(253,253,253)"/><path d="M461.96,1358.12 C457.054,1369.9 465.062,1382.54 470.032,1379.59 C472.062,1378.38 471.042,1376.33 474.112,1373.64 C474.497,1373.3 475.776,1373.13 475.991,1373.59 C476.224,1374.09 475.921,1375.7 475.894,1376.08 C475.162,1379.77 473.971,1385.05 468.981,1385.39 C468.981,1385.39 462.21,1384.18 462.21,1384.18 C460.292,1386.61 458.22,1388.66 455.203,1389.24 C455.203,1389.24 454.443,1385.04 454.443,1385.04 C453.224,1378.3 450.041,1370.1 442.217,1366.87 C447.054,1373.04 451.959,1378.5 452.883,1386.09 C453.69,1392.73 452.726,1400.05 449.862,1406.12 C447.674,1410.77 444.22,1415.95 439.073,1416.59 C439.073,1416.59 431.33,1415.5 431.33,1415.5 C414.896,1411.16 417.219,1379.14 429.001,1363.35 C428.323,1362.83 428.165,1362.41 427.874,1361.89 C427.874,1361.89 433.738,1355.8 433.738,1355.8 C433.824,1356.64 434.169,1357.17 434.582,1357.25 C435.88,1357.5 444.647,1349.97 460.074,1355.26 C460.718,1355.48 463.735,1355.38 463.102,1356.36 C463.102,1356.36 461.96,1358.12 461.96,1358.12 Z " fill="rgb(253,253,253)"/><path d="M439.073,1416.59 C438.035,1419.95 430.521,1420.52 424.165,1419.94 C411.624,1416.03 410.951,1397.15 415.55,1383.65 C418.355,1375.42 422.19,1367.79 427.874,1361.89 C428.165,1362.41 428.323,1362.83 429.001,1363.35 C417.219,1379.14 414.896,1411.16 431.33,1415.5 C431.33,1415.5 439.073,1416.59 439.073,1416.59 Z " fill="rgb(193,192,189)"/><path d="M564.036,1419.95 C561.246,1419.89 558.923,1418.4 556.846,1417.26 C557.299,1415.97 557.952,1416.07 558.993,1416.15 C567.076,1416.8 574.266,1412.08 576.208,1404.16 C579.361,1391.31 576.626,1378.29 570.355,1366.67 C569.899,1365.82 569.832,1365.18 571.157,1364.81 C583.739,1379.47 589.909,1409.01 576.235,1418.17 C572.506,1420.66 567.888,1420.01 564.036,1419.95 Z " fill="rgb(198,194,190)"/><path d="M421.392,1367.08 C412.503,1380.44 407.552,1399.22 414.152,1413.78 C411.378,1414.08 408.73,1414.5 406.204,1413.99 C406.29,1413.14 405.93,1412.12 405.142,1411.69 C402.83,1402.21 403.682,1391.63 407.187,1382.23 C409.366,1376.39 411.273,1370.88 414.906,1366.18 C415.998,1365.68 416.696,1364.42 417.841,1364.3 C418.035,1367 420.407,1366.08 421.392,1367.08 Z " fill="rgb(252,253,253)"/><path d="M414.152,1413.78 C415.176,1416.04 417.377,1417.77 419.573,1420.09 C417.22,1421.68 415.105,1421.29 412.905,1421.04 C409.729,1419.87 407,1417.38 406.204,1413.99 C408.73,1414.5 411.378,1414.08 414.152,1413.78 Z " fill="rgb(219,218,215)"/><path d="M379.854,1320.98 C379.272,1320.68 378.739,1320.13 378.11,1320.12 C380.492,1308.84 394.145,1303.15 389.813,1292.04 C390.977,1292.33 392.14,1292.95 392.855,1293.39 C393.816,1304.67 382.809,1308.78 379.854,1320.98 Z " fill="rgb(9,9,9)"/><path d="M530.537,1357.66 C535.285,1359.24 535.934,1368.73 531.996,1375.26 C531.996,1375.26 514.018,1368.05 514.018,1368.05 C513.76,1368.33 513.465,1368.28 513.309,1368.27 C513.061,1366.96 511.726,1367.18 511.061,1366.87 C511.177,1365.52 512.466,1365.21 513.606,1364.68 C513.606,1364.68 527.425,1358.26 527.425,1358.26 C527.425,1358.26 530.537,1357.66 530.537,1357.66 Z " fill="rgb(131,204,181)"/><path d="M567.691,1241.97 C567.691,1241.97 572.834,1228.89 572.834,1228.89 C573.365,1229.01 573.868,1228.92 574.53,1228 C579.294,1234.19 583.719,1240.33 587.072,1248.13 C581.838,1246.58 577.152,1248.02 572.883,1251.7 C572.883,1251.7 567.691,1241.97 567.691,1241.97 Z " fill="rgb(134,210,178)"/><path d="M539.083,1296.04 C539.083,1296.04 535.88,1296.19 535.88,1296.19 C536.887,1302.25 535.706,1307.72 532.939,1312.91 C532.939,1312.91 514.923,1313.85 514.923,1313.85 C520.819,1309.71 523.956,1303.91 526.236,1297.15 C526.236,1297.15 535.442,1295.75 535.442,1295.75 C536.189,1295.64 537.301,1294.56 538.388,1294.87 C538.772,1294.99 539.1,1295.39 539.083,1296.04 Z " fill="rgb(40,55,52)"/><path d="M564.181,1356.67 C563.973,1357.41 565.333,1358.01 564.616,1359.51 C557.035,1353.32 547.984,1352.08 538.916,1355.96 C538.916,1355.96 535.731,1356.22 535.731,1356.22 C535.152,1356.26 534.581,1356.88 534.633,1358.09 C533.368,1355.23 527.487,1355.21 523.82,1352.65 C527.622,1347.77 531.849,1348.92 535.704,1350.47 C539.756,1349.74 544.247,1346.04 548.989,1347.15 C555.104,1348.59 560.486,1352.37 564.181,1356.67 Z " fill="rgb(215,212,208)"/><path d="M530.537,1357.66 C530.537,1357.66 527.425,1358.26 527.425,1358.26 C527.425,1358.26 513.606,1364.68 513.606,1364.68 C512.466,1365.21 511.177,1365.52 511.061,1366.87 C511.061,1366.87 501.745,1362.53 501.745,1362.53 C501.745,1362.53 519.832,1354.1 519.832,1354.1 C519.832,1354.1 530.537,1357.66 530.537,1357.66 Z " fill="rgb(46,70,63)"/><path d="M572.834,1228.89 C572.834,1228.89 567.691,1241.97 567.691,1241.97 C567.691,1241.97 561.149,1232.69 561.149,1232.69 C561.149,1232.69 567.909,1220.55 567.909,1220.55 C569.661,1221.84 571.885,1224.77 572.87,1226.15 C573.126,1226.51 571.727,1227.69 572.248,1227.86 C572.753,1228.03 573.062,1228.3 572.834,1228.89 Z " fill="rgb(50,68,62)"/><path d="M493.44,1344.33 C493.44,1344.33 483.107,1349.38 483.107,1349.38 C478.348,1351.71 473.643,1350.4 470.992,1346.28 C470.992,1346.28 493.44,1344.33 493.44,1344.33 Z " fill="rgb(57,87,77)"/><path d="M531.612,1376.85 C529.544,1379.15 526.995,1378.21 525.968,1376.28 C527.792,1375.86 529.3,1375.35 531.612,1376.85 Z " fill="rgb(226,228,225)"/><path d="M448.309,1302.33 C448.245,1301.93 447.88,1300.97 447.979,1300.56 C448.063,1300.22 447.521,1299.77 447.035,1300.06 C447.232,1299.22 447.67,1298.47 448.766,1297.98 C449.357,1299.83 449.193,1301.32 448.309,1302.33 Z " fill="rgb(79,118,104)"/><path d="M467.791,1376.44 C468.592,1375.51 469.646,1375.87 469.994,1376.46 C470.383,1377.11 469.809,1378.11 468.606,1378.12 C468.022,1378.13 466.392,1378.05 467.791,1376.44 Z " fill="rgb(212,215,208)"/><path d="M461.96,1358.12 C461.96,1358.12 463.102,1356.36 463.102,1356.36 C463.735,1355.38 460.718,1355.48 460.074,1355.26 C444.647,1349.97 435.88,1357.5 434.582,1357.25 C434.169,1357.17 433.824,1356.64 433.738,1355.8 C441.694,1347.54 452.278,1342.91 461.279,1350.77 C467.125,1347.54 468.758,1348.27 475.145,1352.49 C470.431,1354 465.415,1354.78 461.96,1358.12 Z " fill="rgb(206,203,199)"/><path d="M436.92,1232.37 C431.446,1237.83 427.978,1244.36 424.161,1251.48 C420.296,1247.87 416.073,1246.59 410.74,1246.84 C415.487,1235.74 422.356,1226.3 430.855,1219.06 C429.852,1221.7 433.691,1227.72 436.92,1232.37 Z " fill="rgb(129,205,176)"/><path d="M519.948,1084.08 C519.948,1084.08 520.896,1084.16 520.896,1084.16 C545.662,1091.57 564.547,1110.85 572.894,1135.4 C585.275,1171.8 574.575,1211.24 551.974,1242.94 C547.46,1249.27 543.688,1256.37 537.938,1260.41 C528.681,1266.91 523.347,1277.01 520.16,1288.3 C515.23,1305.77 498.112,1316.9 480.113,1316.6 C479.002,1316.58 478.472,1316.48 477.615,1317.07 C477.291,1317.3 477.231,1317.35 477.216,1318.22 C464.188,1314.17 453.906,1304.26 450.901,1290.66 C450.179,1284.54 450.314,1278.26 450.839,1272.18 C452.68,1261.54 452.274,1250.4 450.417,1239.82 C448.141,1226.85 441.849,1217.19 433.891,1207 C425.037,1195.67 421.39,1181.25 419.599,1168.08 C419.556,1168.58 420.821,1169.17 420.828,1168.86 C420.828,1168.86 421.237,1149.33 421.237,1149.33 C421.237,1149.33 423.008,1141.88 423.008,1141.88 C426.748,1126.14 435.722,1112.5 448.3,1101.19 C464.248,1086.85 484.525,1081.86 505.144,1081.57 C509.997,1081.5 515.049,1083.64 519.948,1084.08 Z M475.106,1259.89 C488.816,1260.59 501.579,1249.72 499.941,1235.08 C498.967,1226.37 491.774,1220.48 484.648,1217.95 C484.648,1217.95 477.698,1213.38 477.698,1213.38 C470.242,1210.47 464.215,1206.07 459.665,1199.14 C449.266,1183.3 446.58,1163.35 452.215,1145.28 C456.73,1130.8 470.034,1115.64 484.254,1119.61 C487.661,1121.58 491.163,1120.85 493.794,1118.76 C502.735,1118.37 512.082,1123.39 514.165,1120.79 C514.165,1120.79 517.171,1121.05 517.171,1121.05 C517.442,1122.88 519.04,1123.53 520.891,1124.25 C526.449,1126.42 535.256,1131.9 534.804,1135.58 C523.859,1130.66 511.853,1136.15 507.015,1146.82 C506.166,1146.93 505.446,1147.67 504.656,1149.19 C501.273,1147.08 502.131,1143.54 499.136,1144.04 C493.308,1135.55 482.723,1130.85 472.821,1135.87 C458.508,1143.12 454.877,1160.94 464.093,1174 C469.911,1182.24 480.439,1186.28 489.645,1181.49 C499.009,1176.62 503.706,1165.92 503.156,1155.76 C503.156,1155.76 504.788,1158.78 504.788,1158.78 C504.642,1171.32 515.111,1183.9 528.442,1182.95 C535.062,1182.47 541.118,1177.91 544.609,1171.73 C545.148,1178.61 550.309,1186.77 549.7,1196.98 C549.7,1196.98 548.436,1218.14 548.436,1218.14 C547.558,1232.83 535.755,1244.31 524.428,1255.05 C533.346,1251.67 538.953,1243.55 543.7,1235.64 C552.114,1221.6 556.784,1205.65 557.714,1189.02 C557.714,1189.02 557.449,1160.47 557.449,1160.47 C555.886,1146.63 550.887,1134.02 540.814,1124.25 C543.613,1123.03 545.224,1121.49 545.587,1119.06 C545.886,1117.06 544.467,1114.8 542.444,1113.57 C535.765,1107.47 526.646,1105.76 517.904,1109.82 C508.149,1105.9 498.039,1106.3 487.813,1108.91 C478.604,1106.4 468.932,1107.96 462.066,1115.02 C460.808,1116.34 460.263,1117.88 460.607,1119.47 C460.849,1120.58 461.764,1121.82 463.565,1123.19 C443.574,1142.89 442.676,1176.49 457.49,1199.42 C461.55,1205.71 466.926,1211.18 473.979,1213.95 C480.375,1216.47 485.105,1220.94 487.681,1227.34 C491.043,1235.69 487.248,1244.99 479.209,1249.21 C475.497,1251.15 472.955,1254.3 473.482,1258.74 C473.6,1259.74 474.481,1259.86 475.106,1259.89 Z " fill="rgb(138,212,186)"/><path d="M444.743,1344.86 C444.948,1346.42 443.647,1346.54 442.228,1347.25 C433.349,1351.7 426.63,1359.2 421.392,1367.08 C420.407,1366.08 418.035,1367 417.841,1364.3 C416.696,1364.42 415.998,1365.68 414.906,1366.18 C414.906,1366.18 426.569,1349.39 426.569,1349.39 C431.355,1349.59 434.801,1341.87 444.743,1344.86 Z " fill="rgb(215,210,203)"/><path d="M486.31,1180.62 C477.549,1183.58 469.573,1178.8 465.144,1171.89 C458.334,1161.26 459.96,1147.78 469.919,1139.89 C477.651,1133.77 487.884,1134.49 494.574,1141.6 C499.854,1147.2 502.341,1155.32 500.513,1163.74 C499.135,1170.09 494.171,1177.97 486.31,1180.62 Z M478.325,1148.41 C471.571,1150.62 468.793,1157.64 471.202,1163.48 C473.698,1169.53 480.177,1172.24 485.771,1170.28 C491.922,1168.13 494.878,1161.41 493.226,1156.2 C491.097,1149.48 484.749,1146.3 478.325,1148.41 Z " fill="rgb(253,253,253)"/><path d="M536.324,1177.83 C529.694,1182.41 521.918,1182.02 515.882,1177.15 C506.461,1169.55 503.866,1156.3 509.762,1145.85 C513.705,1138.86 520.738,1135.05 528.398,1135.75 C535.581,1136.4 541.646,1141.3 544.428,1148.65 C548.397,1159.14 546.176,1171.03 536.324,1177.83 Z M520.611,1168.94 C526.4,1172.43 532.913,1169.26 535.76,1164.33 C538.587,1159.43 537.473,1152.89 532.675,1149.34 C527.301,1145.35 519.946,1147.37 516.577,1152.34 C513.046,1157.55 514.55,1165.29 520.611,1168.94 Z " fill="rgb(253,253,253)"/><path d="M544.03,1396.23 C540.914,1398.04 543.105,1394.8 541.263,1390.52 C540.289,1391.12 539.1,1391.21 538.537,1390.08 C538.336,1389.67 538.051,1389.46 538.83,1388.79 C538.83,1388.79 541.29,1389.02 541.29,1389.02 C542.636,1380.94 545.862,1370.84 554.624,1367.16 C546.34,1375.8 541.506,1384.95 544.03,1396.23 Z " fill="rgb(8,8,7)"/><path d="M454.443,1385.04 C454.077,1385.75 453.601,1386.13 452.883,1386.09 C451.959,1378.5 447.054,1373.04 442.217,1366.87 C450.041,1370.1 453.224,1378.3 454.443,1385.04 Z " fill="rgb(33,33,30)"/><path d="M478.325,1148.41 C484.749,1146.3 491.097,1149.48 493.226,1156.2 C494.878,1161.41 491.922,1168.13 485.771,1170.28 C480.177,1172.24 473.698,1169.53 471.202,1163.48 C468.793,1157.64 471.571,1150.62 478.325,1148.41 Z M477.237,1153.35 C475.601,1153.79 474.768,1155.56 475.111,1156.52 C475.745,1158.31 477.251,1158.67 478.532,1158.31 C480.18,1157.85 480.848,1156.08 480.104,1154.64 C479.733,1153.93 478.812,1152.93 477.237,1153.35 Z " fill="rgb(1,1,1)"/><path d="M520.611,1168.94 C514.55,1165.29 513.046,1157.55 516.577,1152.34 C519.946,1147.37 527.301,1145.35 532.675,1149.34 C537.473,1152.89 538.587,1159.43 535.76,1164.33 C532.913,1169.26 526.4,1172.43 520.611,1168.94 Z M520.041,1153.49 C518.363,1154.82 518.886,1156.65 519.678,1157.63 C520.746,1158.95 521.831,1158.76 522.713,1158.24 C524.567,1157.17 524.645,1155.8 523.972,1154.53 C523.372,1153.4 521.663,1152.21 520.041,1153.49 Z " fill="rgb(1,1,1)"/><path d="M477.237,1153.35 C478.812,1152.93 479.733,1153.93 480.104,1154.64 C480.848,1156.08 480.18,1157.85 478.532,1158.31 C477.251,1158.67 475.745,1158.31 475.111,1156.52 C474.768,1155.56 475.601,1153.79 477.237,1153.35 Z " fill="rgb(253,253,252)"/><path d="M520.041,1153.49 C521.663,1152.21 523.372,1153.4 523.972,1154.53 C524.645,1155.8 524.567,1157.17 522.713,1158.24 C521.831,1158.76 520.746,1158.95 519.678,1157.63 C518.886,1156.65 518.363,1154.82 520.041,1153.49 Z " fill="rgb(254,253,253)"/></svg>