<svg xmlns="http://www.w3.org/2000/svg" viewBox="1091.843557686741 561.2506945535281 375.03193563830814 426.96062678567193"><path d="M1316.54,655.15 C1319.98,670.607 1318.52,686.458 1314.77,701.795 C1312.52,712.094 1307.87,722.637 1302.16,733.91 C1299.05,729.212 1296.35,726.292 1292.03,723.841 C1298.82,702.479 1301.02,679.781 1296.21,657.885 C1293.83,647.055 1288.19,638.076 1280.84,630.375 C1283.7,630.138 1284.87,628.908 1285.62,627.08 C1286.38,625.191 1286.03,623.225 1284.38,621.588 C1278,614.274 1267.98,612.589 1258.63,615.82 C1248.62,613.299 1238.12,612.957 1227.99,615.79 C1219.7,612.732 1211.04,614.695 1204.04,620.127 C1202.01,621.146 1200.71,622.995 1200.45,624.737 C1200.15,626.841 1200.65,628.752 1203.38,630.407 C1180.19,651.878 1182.63,696.525 1207.45,716.7 C1207.45,716.7 1194.34,719.463 1194.34,719.463 C1194.03,718.227 1193.72,717.279 1193.4,717.023 C1192.89,716.621 1191.71,717.11 1191.86,717.497 C1193.91,722.744 1183.2,723.123 1180.82,735.372 C1177.71,729.579 1176.43,722.84 1175.6,715.76 C1175.3,713.963 1172.31,711.706 1171.35,709.786 C1166.01,699.017 1159.7,687.167 1160.45,675.271 C1160.45,675.271 1161.47,659.364 1161.47,659.364 C1163.22,631.758 1184.35,604.376 1209.96,594.805 C1220.59,590.834 1231.34,587.863 1243.03,589.186 C1244.18,589.316 1245.07,588.884 1245.02,587.62 C1283.07,591.982 1309.98,618.037 1316.54,655.15 Z " fill="rgb(137,211,185)"/><path d="M1314.77,701.795 C1315.82,702.992 1315.78,704.043 1315.22,706.264 C1315.22,706.264 1333.63,701.54 1333.63,701.54 C1333.63,701.54 1354.98,696.368 1354.98,696.368 C1359.08,695.375 1360.89,694.354 1362.3,690.263 C1363,688.209 1365.34,686.015 1367,686.717 C1360.55,692.777 1361.82,700.724 1364.96,709.631 C1365.74,711.856 1366.84,713.915 1368.66,715.064 C1370.48,716.214 1373.79,716.679 1375.38,714.868 C1375.38,714.868 1372.46,707.617 1372.46,707.617 C1371.86,706.106 1370.79,704.61 1372.08,702.3 C1373.84,704.685 1374.75,707.137 1375.44,709.026 C1376.67,712.367 1378.42,715.962 1383.32,716.883 C1383.74,716.834 1384.07,717.466 1384.04,718.386 C1381.98,718.267 1379.77,717.964 1377.58,716.368 C1369.1,721.53 1366.03,712.902 1362.97,713.571 C1362.97,713.571 1323.99,722.093 1323.99,722.093 C1318.48,723.297 1313.24,722.662 1307.58,725.176 C1311.78,729.775 1314.16,734.554 1316.14,739.677 C1315.54,740.082 1315.05,740.02 1314.76,740.314 C1313.59,737.94 1313.27,735.621 1311.19,733.768 C1311.19,733.768 1304.89,745.382 1304.89,745.382 C1303.66,747.657 1306.19,751.868 1303.4,754.6 C1301.64,756.331 1299.33,759.367 1295.17,758.485 C1293.3,758.088 1289.81,757.181 1288.23,759.148 C1283.62,764.882 1276.83,765.628 1270.57,762.697 C1269.81,763.8 1268.82,763.773 1268.41,763.779 C1268.01,763.785 1267.7,765.219 1268.03,765.485 C1268.5,765.86 1280.44,769.82 1286.12,770.265 C1286.14,771.736 1285.33,772.334 1284.03,772.122 C1284.03,772.122 1277.19,771.01 1277.19,771.01 C1275.75,773.498 1275.23,775.529 1273.02,777.609 C1271.61,775.82 1273.57,775.277 1274.17,774.728 C1274.46,774.469 1274.04,773.556 1273.26,773.732 C1273.26,773.732 1275.97,770.169 1275.97,770.169 C1275.97,770.169 1271.99,768.984 1271.99,768.984 C1271.99,768.984 1263.43,765.542 1263.43,765.542 C1258.74,763.657 1254.34,763.008 1249.89,765.867 C1232.67,776.945 1207.21,782.375 1193.27,766.49 C1192.84,769.819 1192.7,771.791 1191.68,773.988 C1190.39,771.53 1190.89,768.273 1191.1,764.961 C1187.94,763.539 1187.16,760 1186.49,757.546 C1182.29,755.392 1181.17,750.981 1180.44,746.506 C1180.44,746.506 1178.75,736.099 1178.75,736.099 C1176.01,728.995 1173.37,722.289 1173.83,715.118 C1171.41,714.776 1171.14,712.476 1170.87,711.178 C1169.39,710.675 1170.47,709.454 1171.35,709.786 C1172.31,711.706 1175.3,713.963 1175.6,715.76 C1176.43,722.84 1177.71,729.579 1180.82,735.372 C1183.2,723.123 1193.91,722.744 1191.86,717.497 C1191.71,717.11 1192.89,716.621 1193.4,717.023 C1193.72,717.279 1194.03,718.227 1194.34,719.463 C1194.34,719.463 1207.45,716.7 1207.45,716.7 C1182.63,696.525 1180.19,651.878 1203.38,630.407 C1200.65,628.752 1200.15,626.841 1200.45,624.737 C1200.71,622.995 1202.01,621.146 1204.04,620.127 C1211.04,614.695 1219.7,612.732 1227.99,615.79 C1238.12,612.957 1248.62,613.299 1258.63,615.82 C1267.98,612.589 1278,614.274 1284.38,621.588 C1286.03,623.225 1286.38,625.191 1285.62,627.08 C1284.87,628.908 1283.7,630.138 1280.84,630.375 C1288.19,638.076 1293.83,647.055 1296.21,657.885 C1301.02,679.781 1298.82,702.479 1292.03,723.841 C1296.35,726.292 1299.05,729.212 1302.16,733.91 C1307.87,722.637 1312.52,712.094 1314.77,701.795 Z M1232.87,626.955 C1226.14,630.378 1222.03,619.131 1205.97,631.093 C1186.57,645.542 1184.73,680.114 1197.75,702.223 C1201.02,707.771 1205.83,714.889 1212.18,716.568 C1225.13,719.992 1236.95,724.583 1244.59,736.272 C1247.87,729.405 1254.13,728.744 1259.94,726.435 C1263.9,724.859 1268.71,715.588 1288.04,722.311 C1288.34,722.574 1288.8,723.076 1290.19,722.836 C1296.56,702.383 1298.79,680.663 1294.55,659.431 C1292.12,647.266 1285.57,636.735 1276.14,629.058 C1271.09,624.939 1265.71,624.046 1260.06,627.121 C1257.1,628.734 1253.73,627.024 1252.68,624.677 C1251.34,621.689 1252.11,619.15 1255.17,617.238 C1247.16,615.341 1239.82,615.256 1231.7,617.163 C1233.33,618.743 1234.71,619.82 1235.06,621.496 C1235.55,623.883 1234.41,625.341 1232.87,626.955 Z M1321.44,720.238 C1326.63,720.271 1330.56,718.956 1334.94,717.88 C1334.94,717.88 1358.57,712.08 1358.57,712.08 C1356.19,707.415 1355.34,703.1 1355.14,698.153 C1355.14,698.153 1337.99,702.123 1337.99,702.123 C1333.36,703.196 1328.9,704.439 1325.41,706.112 C1325.59,711.394 1323.1,715.312 1321.44,720.238 Z M1216.16,734.518 C1206.1,740.188 1196.46,744.575 1190.09,753.981 C1188.39,756.535 1187.93,759.423 1189.84,761.561 C1194.94,767.248 1205.89,763.531 1211.93,753.819 C1214.34,749.938 1215.84,744.843 1220.84,743.036 C1219.33,747.486 1215.72,749.925 1215.53,753.562 C1221.11,758.573 1227.03,756.658 1232.03,753.21 C1232.03,753.21 1246.4,743.311 1246.4,743.311 C1239.12,727.659 1223.77,719.107 1207.34,719.251 C1197.77,719.335 1188.09,723.388 1184.07,731.895 C1191,726.514 1196.92,719.688 1205.92,722.103 C1196.76,724.728 1189.81,727.436 1184.68,734.705 C1182.57,737.693 1180.48,740.994 1182.27,745.215 C1187.61,735.955 1196.5,728.921 1207.32,727.436 C1208.6,727.261 1209.41,727.772 1208.95,729.272 C1194.79,730.082 1179.14,745.485 1184.05,753.353 C1184.87,754.675 1186.62,755.622 1187.73,754.076 C1194.47,744.688 1204.45,736.572 1216.16,734.518 Z M1276.64,749.161 C1276.18,747.93 1276.15,747.13 1276.52,746.803 C1278.79,744.801 1277.72,751.159 1278.99,752.462 C1281.29,754.833 1294.1,757.29 1298.5,749.309 C1300.17,752.899 1297.38,753.902 1295.74,755.881 C1300.21,756.184 1302.53,752.109 1302.6,748.317 C1302.74,739.716 1297.55,731.681 1288.46,730.315 C1290.77,727.128 1293.41,729.803 1296.35,729.804 C1288.86,721.959 1269.64,718.067 1262.72,727.704 C1276.75,731.704 1279.74,746.634 1276.02,744.53 C1274.75,743.811 1276.16,741.433 1272.89,737.169 C1269.53,732.789 1265.34,729.907 1260.39,729.65 C1253.92,729.315 1246.39,733.143 1246.41,739.116 C1246.42,740.399 1248.22,742.311 1248.42,739.756 C1252.4,736.446 1259.57,736.981 1263.77,741.145 C1267.07,744.414 1268.67,747.635 1268.12,752.415 C1267.72,755.894 1265.13,758.88 1261.72,761.704 C1269.85,764.215 1277.47,756.961 1276.64,749.161 Z M1196.75,766.37 C1213.56,782.321 1240.63,771.599 1257.77,757.472 C1260.46,755.251 1259.94,751.061 1258.77,747.828 C1257.92,745.508 1254.51,741.684 1251.24,742.357 C1251.24,742.357 1225.07,760.002 1225.07,760.002 C1221.02,762.728 1215.6,762.433 1212.31,758.928 C1208.69,764.596 1203.37,765.872 1196.75,766.37 Z M1278.11,755.741 C1277.57,756.718 1278.7,757.493 1279.45,757.045 C1279.76,756.866 1279.96,756.487 1279.6,755.967 C1279.42,755.709 1278.73,754.611 1278.11,755.741 Z M1214.13,757.187 C1214.13,756.629 1213.68,756.176 1213.12,756.176 C1212.56,756.176 1212.11,756.629 1212.11,757.187 C1212.11,757.745 1212.56,758.198 1213.12,758.198 C1213.68,758.198 1214.13,757.745 1214.13,757.187 Z " fill="rgb(2,3,2)"/><path d="M1270.96,770.774 C1271.3,771.913 1270.74,772.866 1269.9,773.972 C1265.01,780.419 1262.16,787.572 1260.34,795.24 C1258.91,801.272 1255.47,805.914 1251.34,810.36 C1237.41,825.327 1225.26,819.279 1224.23,825.997 C1202.88,823.737 1188.07,804.88 1191.19,782.899 C1191.47,780.871 1192.36,778.815 1192.03,777.005 C1192.09,776.546 1192.58,775.834 1192.3,775.251 C1192.42,774.739 1194.07,773.079 1194.86,773.77 C1208.71,785.902 1228.9,780.148 1246.03,774.007 C1256.24,770.348 1260.83,770.352 1270.96,770.774 Z " fill="rgb(137,211,186)"/><path d="M1223.09,906.123 C1222.25,908.022 1221.2,911.153 1219,911.845 C1212.57,913.864 1218.4,928.056 1204.72,935.758 C1203.86,936.244 1203.04,937.367 1203.16,938.332 C1203.16,938.332 1187.31,941.565 1187.31,941.565 C1177.4,943.586 1155.66,940.799 1149.87,933.184 C1147.11,929.564 1147.67,924.865 1148.08,921.012 C1148.08,921.012 1148.28,919.085 1148.28,919.085 C1151.12,908.319 1161.72,903.179 1173.08,903.71 C1186.52,904.339 1196.13,913.001 1201.83,925.512 C1201.29,915.34 1192.48,909.057 1184.74,904.3 C1183.42,904.568 1183.1,903.63 1183.46,903.038 C1183.85,902.405 1184.59,901.917 1185.13,902.009 C1190.48,902.924 1184.47,896.449 1190.78,891.914 C1192.5,891.271 1194.07,890.665 1196.64,890.182 C1196.96,891.496 1196.93,892.913 1196.7,894.951 C1194.95,894.756 1193.26,895.407 1192.42,896.852 C1191.83,897.882 1192.46,899.958 1193.93,901.184 C1204.43,909.931 1219.74,905.504 1218.62,899.577 C1218.43,898.581 1216.79,897.357 1215.24,897.722 C1214.59,896.229 1214.52,895.184 1214.58,893.851 C1218.44,895.087 1221.19,897.031 1223,899.882 C1224.62,902.416 1224.03,904.014 1223.09,906.123 Z " fill="rgb(253,253,253)"/><path d="M1397.18,713.762 C1383.98,715.182 1377.98,708.334 1377.53,708.202 C1377.1,708.076 1376.42,708.622 1375.44,709.026 C1374.75,707.137 1373.84,704.685 1372.08,702.3 C1370.79,704.61 1371.86,706.106 1372.46,707.617 C1372.36,708.594 1372.17,709.638 1371.34,709.727 C1370.11,709.86 1369.53,710.19 1367.83,709.9 C1367.44,710.622 1366.38,710.853 1366.24,710.44 C1366.11,710.095 1365.63,709.495 1364.96,709.631 C1361.82,700.724 1360.55,692.777 1367,686.717 C1367.82,687.065 1369.52,685.603 1370.97,687.442 C1369.87,689.109 1368.54,692.699 1371.3,693.961 C1372.8,682.524 1379.93,673.751 1390.08,671.112 C1393.71,670.169 1399.57,668.628 1402.58,672.64 C1408.33,680.306 1408.6,698.546 1400.42,700.943 C1392.72,703.198 1392.92,689.86 1392.63,678.692 C1388.67,684.02 1391.13,690.401 1390.88,695.965 C1390,698.912 1385.24,700.057 1382.87,701.876 C1386.37,703.702 1389.22,700.102 1391.59,698.046 C1392.96,700.151 1393.81,701.774 1396.27,703.295 C1393.96,706.92 1395.5,710.52 1397.18,713.762 Z " fill="rgb(252,253,253)"/><path d="M1267.07,829.084 C1267.23,829.277 1267.28,829.53 1267.07,829.775 C1267.07,829.775 1268.76,835.027 1268.76,835.027 C1268.76,835.027 1273.84,859.026 1273.84,859.026 C1273.84,859.026 1274.59,864.476 1274.59,864.476 C1274.59,864.476 1275.25,876.839 1275.25,876.839 C1275.25,876.839 1275.52,897.403 1275.52,897.403 C1270.89,898.592 1266.32,898.584 1261.68,897.087 C1261.68,897.087 1260.42,872.856 1260.42,872.856 C1260.42,872.856 1259.62,862.345 1259.62,862.345 C1259.62,862.345 1257.26,849.88 1257.26,849.88 C1257.26,849.88 1252.82,833.241 1252.82,833.241 C1252.82,833.241 1252.05,831.105 1252.05,831.105 C1257.21,830.234 1261.23,828.414 1265.78,825.787 C1265.78,825.787 1267.07,829.084 1267.07,829.084 Z " fill="rgb(141,215,186)"/><path d="M1314.76,740.314 C1314.76,740.314 1315.74,742.312 1315.74,742.312 C1318.11,747.166 1319.09,754.411 1316.06,760.251 C1313.71,764.764 1308.72,769.215 1302.52,770.582 C1302.52,770.582 1286.86,770.947 1286.86,770.947 C1286.47,770.956 1286.14,770.665 1286.12,770.265 C1280.44,769.82 1268.5,765.86 1268.03,765.485 C1267.7,765.219 1268.01,763.785 1268.41,763.779 C1268.82,763.773 1269.81,763.8 1270.57,762.697 C1276.83,765.628 1283.62,764.882 1288.23,759.148 C1289.81,757.181 1293.3,758.088 1295.17,758.485 C1299.33,759.367 1301.64,756.331 1303.4,754.6 C1306.19,751.868 1303.66,747.657 1304.89,745.382 C1304.89,745.382 1311.19,733.768 1311.19,733.768 C1313.27,735.621 1313.59,737.94 1314.76,740.314 Z " fill="rgb(136,208,183)"/><path d="M1192.03,777.005 C1192.36,778.815 1191.47,780.871 1191.19,782.899 C1188.07,804.88 1202.88,823.737 1224.23,825.997 C1227.46,826.338 1230.66,826.342 1234.08,825.995 C1234.08,825.995 1233.86,828.014 1233.86,828.014 C1233.86,828.014 1223.86,828.103 1223.86,828.103 C1220.68,835.279 1218.89,842.673 1217.56,850.003 C1217.13,848.777 1216.87,848.077 1215.85,848.212 C1215.85,848.212 1219.8,834.204 1219.8,834.204 C1214.98,834.006 1210.34,832.19 1206.35,828.791 C1199.87,846.609 1198.14,864.266 1198.76,882.823 C1198.76,882.823 1199.42,902.512 1199.42,902.512 C1203.66,904.507 1208.11,904.306 1212.88,903.562 C1212.88,903.562 1212.2,886.143 1212.2,886.143 C1212.08,882.929 1212.66,880.761 1212.82,878.104 C1212.82,878.104 1213.76,862.981 1213.76,862.981 C1214.39,862.944 1215.16,862.865 1215.52,863.02 C1216.15,863.288 1216.56,864.814 1215,865.259 C1215,865.259 1214.7,879.627 1214.7,879.627 C1213.29,883.432 1213.99,887.569 1214.5,891.575 C1221.6,894.102 1227.1,901.064 1225.94,904.444 C1225.62,905.354 1224.24,906.367 1223.09,906.123 C1224.03,904.014 1224.62,902.416 1223,899.882 C1221.19,897.031 1218.44,895.087 1214.58,893.851 C1214.52,895.184 1214.59,896.229 1215.24,897.722 C1216.79,897.357 1218.43,898.581 1218.62,899.577 C1219.74,905.504 1204.43,909.931 1193.93,901.184 C1192.46,899.958 1191.83,897.882 1192.42,896.852 C1193.26,895.407 1194.95,894.756 1196.7,894.951 C1196.93,892.913 1196.96,891.496 1196.64,890.182 C1194.07,890.665 1192.5,891.271 1190.78,891.914 C1190.39,891.421 1189.71,890.407 1190.71,890.111 C1192.98,889.32 1194.72,888.473 1196.8,888.793 C1196.8,888.793 1197.41,862.308 1197.41,862.308 C1198.87,848.416 1201.7,835.467 1206.74,822.022 C1192.05,811.868 1186.03,794.713 1190.08,778 C1190.38,776.782 1191.13,776.717 1192.03,777.005 Z " fill="rgb(1,1,1)"/><path d="M1306.96,940.719 C1310.8,940.371 1315.04,938.871 1318.72,937.625 C1319.47,937.677 1320.62,937.535 1320.73,938.612 C1320.84,939.764 1319.22,943.403 1317.56,945.807 C1294.82,951.258 1270.25,947.456 1249.89,935.363 C1245.86,932.974 1245.18,928.311 1247,925.176 C1247.53,925.125 1248.14,923.988 1248.57,924.1 C1247.46,923.81 1271.23,943.947 1306.96,940.719 Z " fill="rgb(252,252,252)"/><path d="M1273.26,773.732 C1268.26,780.298 1266.88,789.149 1266.21,797.972 C1266.21,797.972 1264.61,804.849 1264.61,804.849 C1261.26,812.684 1254.5,819.167 1246.76,822.986 C1242.88,824.9 1238.35,825.559 1234.08,825.995 C1230.66,826.342 1227.46,826.338 1224.23,825.997 C1225.26,819.279 1237.41,825.327 1251.34,810.36 C1255.47,805.914 1258.91,801.272 1260.34,795.24 C1262.16,787.572 1265.01,780.419 1269.9,773.972 C1270.74,772.866 1271.3,771.913 1270.96,770.774 C1270.96,770.774 1271.99,768.984 1271.99,768.984 C1271.99,768.984 1275.97,770.169 1275.97,770.169 C1275.97,770.169 1273.26,773.732 1273.26,773.732 Z " fill="rgb(96,178,151)"/><path d="M1273.84,859.026 C1274.45,858.558 1276.17,858.99 1276.03,859.764 C1275.58,862.187 1276.53,863.761 1276.63,865.449 C1276.63,865.449 1277.81,884.931 1277.81,884.931 C1277.81,884.931 1285.03,887.724 1285.03,887.724 C1288.77,889.172 1288.93,893.368 1289.25,896.557 C1291,897.7 1293.43,899.41 1295.04,901.801 C1303.36,897.132 1312.74,896.437 1321.1,900.939 C1325.67,903.398 1332.1,911.814 1328.64,912.251 C1327.22,908.256 1324.43,905.013 1320.91,903.156 C1304.27,894.374 1288.82,903.885 1280.5,920.758 C1280.1,912.198 1287.49,907.658 1292.61,902.325 C1293.71,901.177 1289.84,897.532 1288.36,898.898 C1287.53,899.668 1287,900.544 1286.57,900.622 C1283.22,901.225 1289.87,895.327 1285.43,890.212 C1283.79,888.321 1280.41,887.177 1277.27,887.445 C1278,890.785 1278.05,892.189 1277.82,895.277 C1279.92,894.492 1279.84,892.656 1278.99,891.183 C1280.74,890.566 1281.66,891.645 1281.99,892.564 C1284.04,898.112 1267.04,904.481 1256.25,895.976 C1255.2,895.148 1255.4,894.152 1255.42,893.57 C1255.44,892.807 1257.14,892.048 1257.82,893.577 C1257.35,895.821 1260.44,895.07 1258.88,893.257 C1259.31,891.87 1259.17,890.221 1258.5,889.755 C1257.91,889.348 1256.42,889.921 1255.45,889.801 C1256.21,888.677 1257.57,887.884 1259.65,887.147 C1259.65,887.147 1258.54,873.506 1258.54,873.506 C1258.54,873.506 1257.65,862.321 1257.65,862.321 C1257.65,862.321 1255.82,851.909 1255.82,851.909 C1255.63,850.823 1255.61,850.072 1257.26,849.88 C1257.26,849.88 1259.62,862.345 1259.62,862.345 C1259.62,862.345 1260.42,872.856 1260.42,872.856 C1260.42,872.856 1261.68,897.087 1261.68,897.087 C1266.32,898.584 1270.89,898.592 1275.52,897.403 C1275.52,897.403 1275.25,876.839 1275.25,876.839 C1275.25,876.839 1274.59,864.476 1274.59,864.476 C1274.59,864.476 1273.84,859.026 1273.84,859.026 Z " fill="rgb(7,8,9)"/><path d="M1441.35,669.824 C1437.25,676.718 1430.23,680.137 1423.14,682.688 C1425.74,682.852 1427.58,682.622 1428.02,684.046 C1420.13,684.673 1408.89,688.338 1408.98,688.961 C1408.98,688.961 1406.83,673.646 1406.83,673.646 C1418.73,672.281 1434.56,662.237 1441.35,669.824 Z " fill="rgb(253,254,254)"/><path d="M1406.83,673.646 C1406.83,673.646 1408.98,688.961 1408.98,688.961 C1408.89,688.338 1420.13,684.673 1428.02,684.046 C1428.65,683.997 1429.09,683.715 1429.01,682.999 C1429.01,682.999 1431.01,683.005 1431.01,683.005 C1431.3,683.688 1431.05,684.688 1430.47,684.929 C1430.47,684.929 1428.66,685.688 1428.66,685.688 C1426.51,686.587 1423.78,685.938 1421.66,687.718 C1423.21,688.932 1423.07,689.353 1423.12,690.274 C1421.57,689.272 1420.86,687.702 1418.18,687.187 C1415.63,689.713 1412.12,690.987 1408.42,691.393 C1407.66,696.442 1406.26,700.506 1401.21,703.128 C1410.35,706.307 1421.06,703.752 1423.74,696.113 C1424.31,695.712 1425.2,696.334 1424.84,697.033 C1424.84,697.033 1422.47,701.675 1422.47,701.675 C1425.8,705.065 1425.43,708.672 1423.67,712.221 C1419.37,720.916 1408.71,716.667 1404.99,718.762 C1401.7,720.619 1400.31,719.324 1397.9,719.185 C1399.31,718.093 1400.99,719.025 1402.61,716.948 C1402.61,716.948 1397.18,713.762 1397.18,713.762 C1395.5,710.52 1393.96,706.92 1396.27,703.295 C1393.81,701.774 1392.96,700.151 1391.59,698.046 C1389.22,700.102 1386.37,703.702 1382.87,701.876 C1385.24,700.057 1390,698.912 1390.88,695.965 C1391.13,690.401 1388.67,684.02 1392.63,678.692 C1392.92,689.86 1392.72,703.198 1400.42,700.943 C1408.6,698.546 1408.33,680.306 1402.58,672.64 C1399.57,668.628 1393.71,670.169 1390.08,671.112 C1389.98,670.562 1389.82,669.973 1390.2,669.029 C1393.64,669.225 1397.42,668.392 1400.69,669.3 C1400.69,669.3 1406.83,673.646 1406.83,673.646 Z M1421.54,712.057 C1423,709.2 1423.38,705.524 1421.35,702.687 C1414.1,707.466 1405.43,707.181 1398.21,704.037 C1396.43,706.24 1396.75,708.504 1397.7,710.589 C1400.15,715.912 1417.7,719.592 1421.54,712.057 Z " fill="rgb(16,15,14)"/><path d="M1271.99,768.984 C1271.99,768.984 1270.96,770.774 1270.96,770.774 C1260.83,770.352 1256.24,770.348 1246.03,774.007 C1228.9,780.148 1208.71,785.902 1194.86,773.77 C1194.07,773.079 1192.42,774.739 1192.3,775.251 C1192.3,775.251 1191.68,773.988 1191.68,773.988 C1192.7,771.791 1192.84,769.819 1193.27,766.49 C1207.21,782.375 1232.67,776.945 1249.89,765.867 C1254.34,763.008 1258.74,763.657 1263.43,765.542 C1263.43,765.542 1271.99,768.984 1271.99,768.984 Z " fill="rgb(65,101,90)"/><path d="M1328.64,912.251 C1330.54,917.607 1331.16,925.847 1326.67,930.643 C1321.6,936.071 1313.61,937.669 1306.98,938.652 C1298.87,939.857 1290.7,938.947 1282.94,937.273 C1283.07,936.08 1283.88,935.779 1285,935.735 C1295.12,935.339 1304.82,934.255 1313.66,929.719 C1322.4,925.238 1326.29,914.874 1321.75,906.391 C1321.75,906.391 1320.04,904.531 1320.04,904.531 C1319.75,904.22 1320.81,903.498 1320.91,903.156 C1324.43,905.013 1327.22,908.256 1328.64,912.251 Z " fill="rgb(199,196,192)"/><path d="M1316.54,655.15 C1309.98,618.037 1283.07,591.982 1245.02,587.62 C1213.38,583.993 1182.26,599.159 1167,630.863 C1167,630.863 1164.5,637.174 1164.5,637.174 C1163.66,637.214 1163.23,636.894 1163.02,636.508 C1162.41,635.368 1163.6,635.159 1163.74,634.756 C1167.24,624.644 1173.43,615.811 1181.07,608.108 C1207.7,581.276 1247.99,578.589 1279.67,597.307 C1301.81,610.391 1310.8,627.484 1317.36,649.659 C1317.94,651.607 1319.05,654.215 1316.54,655.15 Z " fill="rgb(5,7,7)"/><path d="M1245.02,587.62 C1245.07,588.884 1244.18,589.316 1243.03,589.186 C1231.34,587.863 1220.59,590.834 1209.96,594.805 C1184.35,604.376 1163.22,631.758 1161.47,659.364 C1161.47,659.364 1160.45,675.271 1160.45,675.271 C1158.3,670.497 1158.94,665.583 1159.5,660.556 C1160.37,652.606 1161.55,644.621 1164.5,637.174 C1164.5,637.174 1167,630.863 1167,630.863 C1182.26,599.159 1213.38,583.993 1245.02,587.62 Z " fill="rgb(209,247,234)"/><path d="M1267.07,829.084 C1267.07,829.084 1265.78,825.787 1265.78,825.787 C1261.23,828.414 1257.21,830.234 1252.05,831.105 C1252.05,831.105 1252.82,833.241 1252.82,833.241 C1249.8,834.28 1251.93,827.118 1246.76,822.986 C1254.5,819.167 1261.26,812.684 1264.61,804.849 C1267.3,804.674 1265.34,808.421 1261.74,813.133 C1261.74,813.133 1267.29,824.957 1267.29,824.957 C1267.29,824.957 1268.24,827.479 1268.24,827.479 C1268.55,828.291 1268.1,829.085 1267.07,829.084 Z " fill="rgb(1,1,1)"/><path d="M1423.12,690.274 C1423.23,692.161 1424.23,694.049 1423.74,696.113 C1421.06,703.752 1410.35,706.307 1401.21,703.128 C1406.26,700.506 1407.66,696.442 1408.42,691.393 C1412.12,690.987 1415.63,689.713 1418.18,687.187 C1420.86,687.702 1421.57,689.272 1423.12,690.274 Z " fill="rgb(253,253,253)"/><path d="M1185.13,902.009 C1184.59,901.917 1183.85,902.405 1183.46,903.038 C1183.1,903.63 1183.42,904.568 1184.74,904.3 C1192.48,909.057 1201.29,915.34 1201.83,925.512 C1196.13,913.001 1186.52,904.339 1173.08,903.71 C1161.72,903.179 1151.12,908.319 1148.28,919.085 C1147.01,919.211 1146.32,917.638 1147.08,916.573 C1147.08,916.573 1148.97,913.912 1148.97,913.912 C1152.41,907.063 1160.3,901.552 1167.92,901.967 C1167.92,901.967 1181.54,902.709 1181.54,902.709 C1182,902.762 1183.19,901.368 1183.66,901.267 C1184.19,901.153 1185,900.863 1185.13,902.009 Z " fill="rgb(13,12,12)"/><path d="M1397.18,713.762 C1397.18,713.762 1402.61,716.948 1402.61,716.948 C1400.99,719.025 1399.31,718.093 1397.9,719.185 C1397.9,719.185 1384.04,718.386 1384.04,718.386 C1384.07,717.466 1383.74,716.834 1383.32,716.883 C1378.42,715.962 1376.67,712.367 1375.44,709.026 C1376.42,708.622 1377.1,708.076 1377.53,708.202 C1377.98,708.334 1383.98,715.182 1397.18,713.762 Z " fill="rgb(206,204,201)"/><path d="M1286.86,770.947 C1286.86,770.947 1302.52,770.582 1302.52,770.582 C1308.72,769.215 1313.71,764.764 1316.06,760.251 C1319.09,754.411 1318.11,747.166 1315.74,742.312 C1315.5,740.715 1317.3,740.947 1316.73,741.874 C1322.35,751.007 1320.16,760.788 1312.27,767.374 C1302.61,775.452 1287.26,772.943 1287.02,772.512 C1286.83,772.153 1286.94,771.319 1286.86,770.947 Z " fill="rgb(6,7,8)"/><path d="M1432.22,683.602 C1432.31,681.94 1431.37,681.858 1430.51,681.929 C1429.8,681.987 1429.06,681.866 1429.01,682.999 C1429.09,683.715 1428.65,683.997 1428.02,684.046 C1427.58,682.622 1425.74,682.852 1423.14,682.688 C1430.23,680.137 1437.25,676.718 1441.35,669.824 C1443.63,672.381 1443.45,676.134 1440.16,678.318 C1440.16,678.318 1432.22,683.602 1432.22,683.602 Z " fill="rgb(219,217,215)"/><path d="M1268.76,835.027 C1268.76,835.027 1267.07,829.775 1267.07,829.775 C1269,829.613 1268.81,830.773 1269.53,831.948 C1270.21,833.058 1270.62,834.6 1268.76,835.027 Z " fill="rgb(1,1,1)"/><path d="M1432.22,683.602 C1432.2,682.595 1431.29,682.872 1431.01,683.005 C1431.01,683.005 1429.01,682.999 1429.01,682.999 C1429.06,681.866 1429.8,681.987 1430.51,681.929 C1431.37,681.858 1432.31,681.94 1432.22,683.602 Z " fill="rgb(253,254,254)"/><path d="M1245.19,924.327 C1245.19,924.327 1244.96,926.408 1244.96,926.408 C1244.85,927.365 1245.89,927.166 1245.92,926.58 C1245.94,926.055 1245.67,925.304 1247,925.176 C1245.18,928.311 1245.86,932.974 1249.89,935.363 C1270.25,947.456 1294.82,951.258 1317.56,945.807 C1321.25,944.922 1325.25,944.043 1328.81,941.79 C1332.65,939.354 1332.94,933.835 1330.24,930.606 C1329.26,931.457 1328.33,932.259 1327.63,932.18 C1328.36,930.818 1329.43,929.558 1330.73,928.376 C1338.3,934.88 1353.31,932.135 1361.57,942.489 C1363.39,944.766 1359.44,948.246 1357.15,949.349 C1341.63,956.855 1325.37,959.384 1307.88,961.022 C1265.12,965.028 1223.05,965.339 1180.09,961.507 C1180.09,961.507 1146.95,957.398 1146.95,957.398 C1135.38,955.964 1114.16,949.944 1115.95,942.63 C1116.99,938.393 1128.22,933.999 1133.9,932.993 C1133.9,932.993 1146.58,931.217 1146.58,931.217 C1143.65,934.072 1142.02,938.116 1143.41,942.107 C1145.12,941.839 1145.49,943.027 1145.9,943.364 C1161.67,956.316 1192.12,952.517 1210.9,945.245 C1210.9,945.245 1217.69,942.616 1217.69,942.616 C1222.34,940.817 1224.49,935.816 1222.94,930.843 C1222.78,930.338 1221.58,930.345 1221.09,930.251 C1220.86,930.207 1220.52,929.949 1220.14,930.022 C1221.34,928.451 1220.94,925.701 1221.45,924.253 C1222.04,922.562 1221.92,921.374 1221.91,918.223 C1223.81,920.061 1223.3,922.126 1223.62,923.964 C1223.62,923.964 1245.19,924.327 1245.19,924.327 Z " fill="rgb(10,12,26)"/><path d="M1208.74,938.694 C1208.74,938.694 1210.89,938.835 1210.89,938.835 C1210.13,941.583 1210.36,943.322 1210.9,945.245 C1192.12,952.517 1161.67,956.316 1145.9,943.364 C1143.96,940.289 1143.59,936.305 1147.26,933.307 C1149.65,936.49 1152.9,938.888 1156.85,940.184 C1175.28,946.243 1190.87,944.361 1208.74,938.694 Z " fill="rgb(252,252,252)"/><path d="M1221.45,924.253 C1220.94,925.701 1221.34,928.451 1220.14,930.022 C1216.14,935.297 1209.32,937.076 1203.16,938.332 C1203.04,937.367 1203.86,936.244 1204.72,935.758 C1218.4,928.056 1212.57,913.864 1219,911.845 C1219.98,916.001 1221.37,919.838 1221.45,924.253 Z " fill="rgb(205,202,197)"/><path d="M1210.9,945.245 C1210.36,943.322 1210.13,941.583 1210.89,938.835 C1210.89,938.835 1208.74,938.694 1208.74,938.694 C1213,937.345 1217.67,936.031 1220.92,931.898 C1220.92,931.898 1221.09,930.251 1221.09,930.251 C1221.58,930.345 1222.78,930.338 1222.94,930.843 C1224.49,935.816 1222.34,940.817 1217.69,942.616 C1217.69,942.616 1210.9,945.245 1210.9,945.245 Z " fill="rgb(215,215,212)"/><path d="M1282.94,937.273 C1290.7,938.947 1298.87,939.857 1306.98,938.652 C1306.98,938.652 1306.96,940.719 1306.96,940.719 C1271.23,943.947 1247.46,923.81 1248.57,924.1 C1248.14,923.988 1247.53,925.125 1247,925.176 C1245.67,925.304 1245.94,926.055 1245.92,926.58 C1245.89,927.166 1244.85,927.365 1244.96,926.408 C1244.96,926.408 1245.19,924.327 1245.19,924.327 C1246.82,923.808 1248.36,922.044 1248.65,919.921 C1253.18,929.565 1271.13,934.725 1282.94,937.273 Z " fill="rgb(9,8,7)"/><path d="M1148.08,921.012 C1147.67,924.865 1147.11,929.564 1149.87,933.184 C1155.66,940.799 1177.4,943.586 1187.31,941.565 C1187.31,941.565 1203.16,938.332 1203.16,938.332 C1209.32,937.076 1216.14,935.297 1220.14,930.022 C1220.52,929.949 1220.86,930.207 1221.09,930.251 C1221.09,930.251 1220.92,931.898 1220.92,931.898 C1217.67,936.031 1213,937.345 1208.74,938.694 C1190.87,944.361 1175.28,946.243 1156.85,940.184 C1152.9,938.888 1149.65,936.49 1147.26,933.307 C1143.59,936.305 1143.96,940.289 1145.9,943.364 C1145.49,943.027 1145.12,941.839 1143.41,942.107 C1142.02,938.116 1143.65,934.072 1146.58,931.217 C1145.7,927.447 1145.89,924.09 1146.14,919.914 C1146.94,920.527 1147.36,920.941 1148.08,921.012 Z " fill="rgb(14,13,12)"/><path d="M1317.56,945.807 C1319.22,943.403 1320.84,939.764 1320.73,938.612 C1320.62,937.535 1319.47,937.677 1318.72,937.625 C1321.96,936.53 1326.12,935.006 1327.63,932.18 C1328.33,932.259 1329.26,931.457 1330.24,930.606 C1332.94,933.835 1332.65,939.354 1328.81,941.79 C1325.25,944.043 1321.25,944.922 1317.56,945.807 Z " fill="rgb(203,201,196)"/><path d="M1232.87,626.955 C1233.62,626.575 1234.72,625.604 1235.57,625.566 C1241.6,625.291 1248.13,628.146 1253.93,629.028 C1263.74,630.518 1271.29,635.491 1276.92,643.319 C1269.74,638.948 1261,639.265 1253.98,645.252 C1241.95,655.508 1241.92,674.555 1253.98,684.876 C1264.07,693.519 1277.74,690.105 1284.48,679.616 C1290.93,693.202 1290.78,707.911 1288.04,722.311 C1268.71,715.588 1263.9,724.859 1259.94,726.435 C1254.13,728.744 1247.87,729.405 1244.59,736.272 C1236.95,724.583 1225.13,719.992 1212.18,716.568 C1205.83,714.889 1201.02,707.771 1197.75,702.223 C1184.73,680.114 1186.57,645.542 1205.97,631.093 C1222.03,619.131 1226.14,630.378 1232.87,626.955 Z M1231.92,686.818 C1240.58,681.06 1244.3,672.066 1243.1,661.647 C1242.15,653.338 1236.23,644.341 1226.8,641.352 C1217.68,638.46 1208.2,643.337 1203.24,651.259 C1196.39,662.214 1198.38,676.199 1208.02,684.912 C1214.75,690.986 1224.43,691.8 1231.92,686.818 Z " fill="rgb(137,211,186)"/><path d="M1216.16,734.518 C1204.45,736.572 1194.47,744.688 1187.73,754.076 C1186.62,755.622 1184.87,754.675 1184.05,753.353 C1179.14,745.485 1194.79,730.082 1208.95,729.272 C1209.41,727.772 1208.6,727.261 1207.32,727.436 C1196.5,728.921 1187.61,735.955 1182.27,745.215 C1180.48,740.994 1182.57,737.693 1184.68,734.705 C1189.81,727.436 1196.76,724.728 1205.92,722.103 C1196.92,719.688 1191,726.514 1184.07,731.895 C1188.09,723.388 1197.77,719.335 1207.34,719.251 C1223.77,719.107 1239.12,727.659 1246.4,743.311 C1246.4,743.311 1232.03,753.21 1232.03,753.21 C1227.03,756.658 1221.11,758.573 1215.53,753.562 C1215.72,749.925 1219.33,747.486 1220.84,743.036 C1215.84,744.843 1214.34,749.938 1211.93,753.819 C1205.89,763.531 1194.94,767.248 1189.84,761.561 C1187.93,759.423 1188.39,756.535 1190.09,753.981 C1196.46,744.575 1206.1,740.188 1216.16,734.518 Z " fill="rgb(253,253,253)"/><path d="M1276.64,749.161 C1277.47,756.961 1269.85,764.215 1261.72,761.704 C1265.13,758.88 1267.72,755.894 1268.12,752.415 C1268.67,747.635 1267.07,744.414 1263.77,741.145 C1259.57,736.981 1252.4,736.446 1248.42,739.756 C1248.22,742.311 1246.42,740.399 1246.41,739.116 C1246.39,733.143 1253.92,729.315 1260.39,729.65 C1265.34,729.907 1269.53,732.789 1272.89,737.169 C1276.16,741.433 1274.75,743.811 1276.02,744.53 C1279.74,746.634 1276.75,731.704 1262.72,727.704 C1269.64,718.067 1288.86,721.959 1296.35,729.804 C1293.41,729.803 1290.77,727.128 1288.46,730.315 C1297.55,731.681 1302.74,739.716 1302.6,748.317 C1302.53,752.109 1300.21,756.184 1295.74,755.881 C1297.38,753.902 1300.17,752.899 1298.5,749.309 C1294.1,757.29 1281.29,754.833 1278.99,752.462 C1277.72,751.159 1278.79,744.801 1276.52,746.803 C1276.15,747.13 1276.18,747.93 1276.64,749.161 Z " fill="rgb(252,253,253)"/><path d="M1196.75,766.37 C1203.37,765.872 1208.69,764.596 1212.31,758.928 C1215.6,762.433 1221.02,762.728 1225.07,760.002 C1225.07,760.002 1251.24,742.357 1251.24,742.357 C1254.51,741.684 1257.92,745.508 1258.77,747.828 C1259.94,751.061 1260.46,755.251 1257.77,757.472 C1240.63,771.599 1213.56,782.321 1196.75,766.37 Z " fill="rgb(134,207,182)"/><path d="M1321.44,720.238 C1323.1,715.312 1325.59,711.394 1325.41,706.112 C1328.9,704.439 1333.36,703.196 1337.99,702.123 C1337.99,702.123 1355.14,698.153 1355.14,698.153 C1355.34,703.1 1356.19,707.415 1358.57,712.08 C1358.57,712.08 1334.94,717.88 1334.94,717.88 C1330.56,718.956 1326.63,720.271 1321.44,720.238 Z " fill="rgb(133,207,182)"/><path d="M1214.13,757.187 C1214.13,757.745 1213.68,758.198 1213.12,758.198 C1212.56,758.198 1212.11,757.745 1212.11,757.187 C1212.11,756.629 1212.56,756.176 1213.12,756.176 C1213.68,756.176 1214.13,756.629 1214.13,757.187 Z " fill="rgb(35,49,41)"/><path d="M1278.11,755.741 C1278.73,754.611 1279.42,755.709 1279.6,755.967 C1279.96,756.487 1279.76,756.866 1279.45,757.045 C1278.7,757.493 1277.57,756.718 1278.11,755.741 Z " fill="rgb(33,36,34)"/><path d="M1288.04,722.311 C1290.78,707.911 1290.93,693.202 1284.48,679.616 C1292.24,667.537 1289.13,650.765 1276.92,643.319 C1271.29,635.491 1263.74,630.518 1253.93,629.028 C1248.13,628.146 1241.6,625.291 1235.57,625.566 C1234.72,625.604 1233.62,626.575 1232.87,626.955 C1234.41,625.341 1235.55,623.883 1235.06,621.496 C1234.71,619.82 1233.33,618.743 1231.7,617.163 C1239.82,615.256 1247.16,615.341 1255.17,617.238 C1252.11,619.15 1251.34,621.689 1252.68,624.677 C1253.73,627.024 1257.1,628.734 1260.06,627.121 C1265.71,624.046 1271.09,624.939 1276.14,629.058 C1285.57,636.735 1292.12,647.266 1294.55,659.431 C1298.79,680.663 1296.56,702.383 1290.19,722.836 C1288.8,723.076 1288.34,722.574 1288.04,722.311 Z " fill="rgb(104,181,156)"/><path d="M1364.96,709.631 C1365.63,709.495 1366.11,710.095 1366.24,710.44 C1366.38,710.853 1367.44,710.622 1367.83,709.9 C1369.53,710.19 1370.11,709.86 1371.34,709.727 C1372.17,709.638 1372.36,708.594 1372.46,707.617 C1372.46,707.617 1375.38,714.868 1375.38,714.868 C1373.79,716.679 1370.48,716.214 1368.66,715.064 C1366.84,713.915 1365.74,711.856 1364.96,709.631 Z " fill="rgb(220,218,214)"/><path d="M1215.85,848.212 C1215.85,848.212 1213.76,862.981 1213.76,862.981 C1213.76,862.981 1212.82,878.104 1212.82,878.104 C1212.66,880.761 1212.08,882.929 1212.2,886.143 C1212.2,886.143 1212.88,903.562 1212.88,903.562 C1208.11,904.306 1203.66,904.507 1199.42,902.512 C1199.42,902.512 1198.76,882.823 1198.76,882.823 C1198.14,864.266 1199.87,846.609 1206.35,828.791 C1210.34,832.19 1214.98,834.006 1219.8,834.204 C1219.8,834.204 1215.85,848.212 1215.85,848.212 Z " fill="rgb(139,211,183)"/><path d="M1320.91,903.156 C1320.81,903.498 1319.75,904.22 1320.04,904.531 C1320.04,904.531 1321.75,906.391 1321.75,906.391 C1326.29,914.874 1322.4,925.238 1313.66,929.719 C1304.82,934.255 1295.12,935.339 1285,935.735 C1283.88,935.779 1283.07,936.08 1282.94,937.273 C1271.13,934.725 1253.18,929.565 1248.65,919.921 C1249.2,915.877 1249.17,911.592 1251.52,907.587 C1254.37,902.727 1246.95,896.001 1251.14,892.943 C1251.14,892.943 1255.45,889.801 1255.45,889.801 C1256.42,889.921 1257.91,889.348 1258.5,889.755 C1259.17,890.221 1259.31,891.87 1258.88,893.257 C1260.44,895.07 1257.35,895.821 1257.82,893.577 C1257.14,892.048 1255.44,892.807 1255.42,893.57 C1255.4,894.152 1255.2,895.148 1256.25,895.976 C1267.04,904.481 1284.04,898.112 1281.99,892.564 C1281.66,891.645 1280.74,890.566 1278.99,891.183 C1279.84,892.656 1279.92,894.492 1277.82,895.277 C1278.05,892.189 1278,890.785 1277.27,887.445 C1280.41,887.177 1283.79,888.321 1285.43,890.212 C1289.87,895.327 1283.22,901.225 1286.57,900.622 C1287,900.544 1287.53,899.668 1288.36,898.898 C1289.84,897.532 1293.71,901.177 1292.61,902.325 C1287.49,907.658 1280.1,912.198 1280.5,920.758 C1288.82,903.885 1304.27,894.374 1320.91,903.156 Z M1272.88,910.032 C1278.23,911.045 1282.17,907.185 1283.37,903.056 C1279.21,906.288 1276.74,908.191 1272.88,910.032 Z " fill="rgb(253,253,253)"/><path d="M1421.54,712.057 C1417.7,719.592 1400.15,715.912 1397.7,710.589 C1396.75,708.504 1396.43,706.24 1398.21,704.037 C1405.43,707.181 1414.1,707.466 1421.35,702.687 C1423.38,705.524 1423,709.2 1421.54,712.057 Z " fill="rgb(252,252,253)"/><path d="M1231.92,686.818 C1224.43,691.8 1214.75,690.986 1208.02,684.912 C1198.38,676.199 1196.39,662.214 1203.24,651.259 C1208.2,643.337 1217.68,638.46 1226.8,641.352 C1236.23,644.341 1242.15,653.338 1243.1,661.647 C1244.3,672.066 1240.58,681.06 1231.92,686.818 Z M1223.43,687.83 C1232.69,686.363 1237.98,679.021 1240.28,672.208 C1243.12,663.808 1240.44,655.48 1234.97,649.092 C1229.05,642.192 1219.89,640.568 1212.05,645.205 C1205.17,649.268 1201.62,656.551 1201.27,663.63 C1200.56,677.912 1212.03,689.635 1223.43,687.83 Z " fill="rgb(10,12,9)"/><path d="M1276.92,643.319 C1289.13,650.765 1292.24,667.537 1284.48,679.616 C1277.74,690.105 1264.07,693.519 1253.98,684.876 C1241.92,674.555 1241.95,655.508 1253.98,645.252 C1261,639.265 1269.74,638.948 1276.92,643.319 Z M1285.28,657.568 C1283.13,651.179 1278.56,644.357 1270.46,642.511 C1260.73,640.292 1251.09,647.533 1248.24,657.234 C1245.74,665.755 1247.74,674.977 1253.48,681.429 C1257.37,685.791 1262.56,688.256 1268.37,687.747 C1280.45,686.688 1290.16,672.013 1285.28,657.568 Z " fill="rgb(9,11,8)"/><path d="M1272.88,910.032 C1276.74,908.191 1279.21,906.288 1283.37,903.056 C1282.17,907.185 1278.23,911.045 1272.88,910.032 Z " fill="rgb(24,20,17)"/><path d="M1223.43,687.83 C1212.03,689.635 1200.56,677.912 1201.27,663.63 C1201.62,656.551 1205.17,649.268 1212.05,645.205 C1219.89,640.568 1229.05,642.192 1234.97,649.092 C1240.44,655.48 1243.12,663.808 1240.28,672.208 C1237.98,679.021 1232.69,686.363 1223.43,687.83 Z M1237.48,671.426 C1240.48,666.806 1239.85,661.021 1236.09,657.42 C1232.44,653.913 1226.35,653.343 1222.25,657.301 C1219.49,659.952 1219.39,664.247 1219.85,668.02 C1220.39,672.474 1224.07,675.554 1227.57,676.206 C1231.59,676.955 1235.34,674.725 1237.48,671.426 Z " fill="rgb(252,253,253)"/><path d="M1285.28,657.568 C1290.16,672.013 1280.45,686.688 1268.37,687.747 C1262.56,688.256 1257.37,685.791 1253.48,681.429 C1247.74,674.977 1245.74,665.755 1248.24,657.234 C1251.09,647.533 1260.73,640.292 1270.46,642.511 C1278.56,644.357 1283.13,651.179 1285.28,657.568 Z M1284.5,665.53 C1284.71,658.445 1279.43,653.684 1273.53,654.107 C1267.14,654.564 1264.27,660.578 1265.16,667.098 C1265.91,672.654 1270.22,676.369 1275.54,675.867 C1280.43,675.405 1284.33,671.348 1284.5,665.53 Z " fill="rgb(253,253,253)"/><path d="M1237.48,671.426 C1235.34,674.725 1231.59,676.955 1227.57,676.206 C1224.07,675.554 1220.39,672.474 1219.85,668.02 C1219.39,664.247 1219.49,659.952 1222.25,657.301 C1226.35,653.343 1232.44,653.913 1236.09,657.42 C1239.85,661.021 1240.48,666.806 1237.48,671.426 Z M1224.99,658.321 C1222.94,658.934 1222.23,660.733 1222.95,662.394 C1223.36,663.322 1224.74,664.101 1226.12,663.592 C1227.51,663.083 1228.51,662.319 1228.33,660.511 C1228.21,659.378 1226.98,657.724 1224.99,658.321 Z " fill="rgb(1,1,1)"/><path d="M1284.5,665.53 C1284.33,671.348 1280.43,675.405 1275.54,675.867 C1270.22,676.369 1265.91,672.654 1265.16,667.098 C1264.27,660.578 1267.14,654.564 1273.53,654.107 C1279.43,653.684 1284.71,658.445 1284.5,665.53 Z M1273.16,661.745 C1274.37,659.8 1273.28,658.388 1272.37,657.966 C1271.06,657.362 1269.66,657.74 1268.89,658.875 C1267.74,660.58 1268.06,661.99 1268.8,662.694 C1270.18,664.01 1272.03,663.566 1273.16,661.745 Z " fill="rgb(1,1,1)"/><path d="M1224.99,658.321 C1226.98,657.724 1228.21,659.378 1228.33,660.511 C1228.51,662.319 1227.51,663.083 1226.12,663.592 C1224.74,664.101 1223.36,663.322 1222.95,662.394 C1222.23,660.733 1222.94,658.934 1224.99,658.321 Z " fill="rgb(251,250,249)"/><path d="M1273.16,661.745 C1272.03,663.566 1270.18,664.01 1268.8,662.694 C1268.06,661.99 1267.74,660.58 1268.89,658.875 C1269.66,657.74 1271.06,657.362 1272.37,657.966 C1273.28,658.388 1274.37,659.8 1273.16,661.745 Z " fill="rgb(251,251,250)"/></svg>