<svg xmlns="http://www.w3.org/2000/svg" viewBox="156.0655125175748 561.875113741819 378.9414874824252 426.4359427139309"><path d="M377.612,716.804 C370.257,736.045 357.753,753.485 344.146,769.887 C344.146,769.887 342.871,771.848 342.871,771.848 C342.013,771.776 341.821,771.004 341.884,770.143 C333.856,777.273 330.219,786.274 327.24,796.321 C322.523,812.231 307.292,822.478 291.17,823.917 C289.488,824.067 289.156,825.258 289.121,826.41 C274.804,824.917 263.039,814.387 258.697,800.083 C256.475,792.762 257.545,784.729 258.645,776.886 C258.645,776.886 258.986,759.955 258.986,759.955 C259.211,748.753 256.763,737.654 251.281,728.734 C251.281,728.734 243.728,716.446 243.728,716.446 C247.41,713.775 248.408,709.198 245.229,706.766 C244.711,710.273 244.916,713.721 242.61,715.917 C240.521,717.906 237.011,717.667 233.949,717.402 C233.949,717.402 228.392,711.031 228.392,711.031 C235.453,702.352 249.4,702.802 252.663,697.647 C256.019,692.346 252.09,686.81 248.281,683.87 C249.222,675.601 246.978,668.266 246.49,660.658 C246.278,657.361 245.025,654.243 244.361,650.986 C242.975,644.186 239.971,638.671 236.535,633.237 C236.865,630.606 238.162,628.27 239.975,625.945 C247.415,616.401 255.634,607.426 266.035,601.158 C276.505,594.848 287.746,590.723 299.927,589.948 C304.971,589.627 309.726,590.782 314.008,589.43 C314.061,588.844 314.655,588.848 315.029,588.937 C354.148,594.135 381.866,625.265 384.997,665.082 C386.4,682.929 383.816,700.571 377.612,716.804 Z M280.431,767.362 C290.163,768.967 299.795,764.081 304.882,754.886 C309.826,745.947 307.399,735.966 299.173,729.686 C298.615,729.26 298.095,728.451 297.392,728.209 C296.47,727.892 295.83,728.372 294.829,728.875 C288.338,718.834 272.789,721.546 262.347,698.676 C251.078,673.996 254.816,639.114 281.011,627.077 C288.272,623.74 294.63,630.529 298.917,628.085 C298.917,628.085 301.907,626.379 301.907,626.379 C308.742,626.022 314.929,628.501 321.291,629.567 C330.078,631.039 337.943,635.415 342.152,643.237 C335.222,639.701 327.073,640.559 320.877,645.936 C313.711,652.154 310.628,661.14 312.406,671.047 C313.727,678.411 319.483,686.831 328.115,689.836 C337.241,693.013 346.582,688.196 351.442,680.525 C357.267,693.84 358.806,707.569 355.568,721.973 C355.161,723.78 354.647,725.587 356.371,727.043 C351.29,741.14 342.886,752.455 331.374,762.964 C345.176,755.718 352.75,741.901 358.185,728.117 C365.81,708.781 367.014,687.853 364.829,667.058 C363.361,653.081 357.271,641.138 347.868,631.276 C350.61,631.235 352.301,629.732 352.987,628.374 C356.549,621.322 339.721,610.927 324.966,616.685 C315.738,613.517 304.852,614.936 295.12,616.134 C285.528,614.516 275.997,614.794 268.984,623.202 C267.092,625.47 267.106,628.98 270.52,631.135 C248.244,651.589 249.767,691.119 269.182,712.775 C278.412,723.072 287.941,721.577 294.04,731.937 C299.278,740.834 296.036,751.374 287.284,756.33 C283.081,758.71 280.456,762.385 280.431,767.362 Z M310.284,666.982 C310.179,658.158 307.564,649.992 300.02,644.993 C291.329,639.235 280.287,640.39 273.171,648.288 C265.167,657.171 263.959,670.509 270.116,680.745 C273.565,686.478 279.387,689.972 284.716,690.906 C297.534,693.155 310.462,682.054 310.284,666.982 Z " fill="rgb(137,211,186)"/><path d="M499.76,701.55 C499.643,703.527 502.111,702.04 502.174,704.732 C496.567,703.563 491.028,704.293 484.94,705.049 C484.94,705.049 480.495,705.6 480.495,705.6 C476.757,706.064 472.434,705.12 468.598,704.823 C467.86,702.785 467.206,701.222 465.017,701.365 C471.916,711.884 470.045,722.439 473.284,717.617 C486.014,720.391 497.427,707.363 506.125,719.851 C506.011,721.204 506.151,722.841 506.677,724.271 C506.677,724.271 501.111,726.432 501.111,726.432 C501.492,725.082 503.068,724.8 503.073,722.581 C503.073,722.581 465.954,728.831 465.954,728.831 C458.442,730.096 451.713,732.27 443.809,729.861 C443.403,730.484 442.394,730.899 442.229,730.5 C442.092,730.17 441.717,729.637 441.007,729.861 C440.637,729.978 439.92,729.717 438.902,730.37 C438.902,730.37 442.418,733.895 442.418,733.895 C439.196,738.378 435.19,736.255 432.039,738.218 C427.322,734.829 423.393,730.457 421.959,724.806 C421.754,722.184 422.195,719.564 424.827,717.864 C425.611,719.672 426.899,721.006 428.369,720.396 C426.018,715.939 423.789,711.912 425.701,707.74 C427.825,703.106 430.54,698.433 429.949,692.971 C429.18,685.856 418.711,684.802 419.306,679.665 C419.86,674.877 429.136,670.58 436.624,674.683 C440.859,677.003 442.022,681.938 442.211,687.123 C442.323,690.198 445.863,696.277 449.018,696.482 C449.018,696.482 483.967,698.75 483.967,698.75 C489.811,699.129 494.836,700.708 499.76,701.55 Z M441.257,706.233 C449.346,703.438 455.944,707.47 462.869,713.057 C459.492,704.631 448.866,701.681 441.232,704.289 C436.6,705.872 432.405,709.679 433.345,714.112 C435.501,710.315 437.566,707.509 441.257,706.233 Z " fill="rgb(252,253,253)"/><path d="M357.318,899.722 C358.257,900.916 360.221,901.905 360.173,903.823 C354.227,907.188 347.712,913.851 347.513,921.676 C353.118,910.46 361.254,903.083 372.94,900.783 C378.759,900.703 384.622,901.482 389.27,904.834 C388.625,905.094 387.965,904.799 386.897,905.287 C390.046,909.979 391.094,915.31 389.095,921.29 C384.857,933.968 365.045,936.171 351.017,936.694 C349.884,936.736 349.05,937.118 348.923,938.262 C338.374,935.869 319.606,929.612 316.86,922.129 C315.392,918.129 315.912,913.538 318.546,909.577 C322.432,903.731 315.27,901.059 317.315,895.931 C318.765,892.298 325.049,890.618 325.56,890.889 C326.399,891.334 326.174,895.479 325.585,895.856 C325.236,896.079 324.607,895.267 324.06,894.906 C324.042,894.285 323.643,894.246 323.345,894.313 C318.027,895.505 334.263,906.985 347.491,897.701 C348.901,896.711 349.418,895.261 348.82,893.672 C348.481,892.769 347.379,891.801 345.773,892.694 C347.155,894.398 346.706,896.244 344.618,896.806 C344.618,896.806 344.168,888.808 344.168,888.808 C347.517,888.273 350.675,889.281 352.596,891.862 C354.435,894.333 353.595,897.354 352.762,901.068 C354.859,900.248 355.867,899.332 357.318,899.722 Z M350.761,904.025 C346.737,906.72 344.098,908.706 339.656,910.468 C344.184,911.96 348.873,908.461 350.761,904.025 Z " fill="rgb(253,253,253)"/><path d="M283.049,895.733 C286.423,897.082 289.832,899.583 290.448,903.04 C291.109,906.751 289.457,911.775 286.042,913.098 C279.434,915.657 286.007,928.608 271.805,936.88 C271.805,936.88 267.936,940.378 267.936,940.378 C253.962,944.111 234.214,945.034 221.184,937.863 C217.767,935.983 215.204,933.426 215.051,929.772 C215.051,929.772 214.975,927.964 214.975,927.964 C214.663,920.499 218.077,913.13 224.888,908.847 C232.075,904.327 240.809,904.431 248.186,906.81 C257.786,909.906 263.927,916.841 268.68,926.664 C268.426,915.721 259.029,909.977 250.324,905.249 C251.572,903.391 253.651,903.232 255.029,902.415 C253.862,899.96 254.462,899.191 254.948,897.852 C255.113,897.398 254.904,896.235 254.59,895.723 C257.033,894.28 259.703,892.276 263,893.005 C263.989,893.224 263.878,895.985 263.183,896.026 C261.347,896.12 260.083,897.033 259.495,898.013 C256.455,903.079 271.9,911.706 283.633,904.867 C285.312,903.888 285.731,901.944 285.518,900.859 C285.167,899.075 283.332,898.544 281.903,898.548 C281.837,897.735 281.378,896.631 281.17,896.435 C280.96,896.236 280.858,895.448 281.436,895.315 C281.857,895.217 282.768,895.678 283.049,895.733 Z " fill="rgb(253,253,253)"/><path d="M251.803,693.819 C251.083,693.716 250.49,693.165 249.681,692.109 C242.937,699.54 232.215,698.342 224.133,707.18 C218.574,713.259 212.169,717.482 204.446,719.605 C206.158,724.441 212.706,721.517 213.032,724.148 C212.129,724.609 212.297,726.256 212.536,727.033 C212.536,727.033 206.26,729.445 206.26,729.445 C195.355,730.006 180.961,722.379 183.39,712.994 C186.756,713.619 188.47,718.471 193.349,717.719 C189.803,714.708 186.007,712.463 183.226,708.676 C178.091,700.206 179.686,690.112 184.623,681.759 C184.623,681.759 186.853,655.994 186.853,655.994 C186.853,655.994 187.727,648.933 187.727,648.933 C189.549,648.369 189.99,646.501 192.752,645.97 C191.983,650.954 191.277,655.933 193.167,661.053 C193.167,661.053 200.125,679.907 200.125,679.907 C201.315,683.13 202.069,686.306 205.203,688.71 C200.533,692.138 198.884,696.246 198.285,701.883 C201.34,701.73 200.599,698.438 200.998,697.243 C203.388,690.074 210.506,688.761 216.989,688.832 C220.446,688.869 223.62,688.211 225.246,692.841 C229.621,687.768 234.517,684.322 240.947,684.211 C246.825,684.11 252.007,688.541 251.803,693.819 Z " fill="rgb(253,253,253)"/><path d="M233.099,684.034 C232.25,680.373 234.989,680.181 233.799,675.126 C230.644,661.722 226.98,638.892 213.536,640.845 C208.928,641.514 204.343,645.483 203.798,651.096 C202.926,660.079 205.47,669.923 211.592,676.466 C210.054,669.139 205.723,664.02 205.458,657.092 C205.239,651.364 206.258,646.384 211.013,643.639 C210.202,647.624 208.11,650.714 208.167,655.211 C210.234,653.073 211.473,650.348 213.726,648.943 C217.005,653.012 214.756,658.467 215.84,662.822 C220.776,664.225 223.722,673.585 223.933,680.028 C223.933,680.028 232.033,683.998 232.033,683.998 C232.033,683.998 226.45,689.179 226.45,689.179 C220.435,685.867 214.051,686.576 206.984,688.227 C198.337,672.176 188.499,650.934 198.049,637.09 C198.049,637.09 199.351,635.202 199.351,635.202 C207.759,624.761 224.405,623.454 233.979,633.879 C239.873,640.297 243.68,652.71 244.5,660.656 C244.5,660.656 246.841,683.335 246.841,683.335 C241.941,681.87 237.461,682.45 233.099,684.034 Z " fill="rgb(137,211,185)"/><path d="M201.571,746.258 C203.492,755.121 212.255,759.539 221.015,756.864 C228.592,754.55 235.379,750.133 242.873,745.435 C244.107,750.987 244.96,755.302 247.163,759.648 C234.599,768.28 220.007,774.938 207.078,770.951 C198.159,768.201 191.855,761.676 188.197,752.692 C185.69,746.534 187.087,740.012 185.634,734.073 C188.127,732.402 191.972,737.458 200.928,735.841 C200.558,739.863 200.881,743.078 201.571,746.258 Z " fill="rgb(132,205,179)"/><path d="M285.094,840.18 C279.525,858.568 278.681,878.231 279.584,897.438 C279.115,899.678 279.26,901.851 279.81,904.591 C275.125,906.079 270.602,905.684 265.954,903.804 C265.954,903.804 265.541,891.302 265.541,891.302 C264.156,877.345 264.957,863.942 267.992,850.949 C267.992,850.949 272.878,830.028 272.878,830.028 C277.228,832.251 280.061,835.078 286.551,835.367 C286.551,835.367 285.094,840.18 285.094,840.18 Z " fill="rgb(138,210,182)"/><path d="M335.867,837.259 C339.003,846.7 340.972,856.41 341.22,866.09 C341.22,866.09 342.059,898.858 342.059,898.858 C337.265,899.38 333.051,899.499 328.532,898.568 C328.532,898.568 328.178,888.994 328.178,888.994 C327.63,874.197 327.185,859.163 322.896,845.069 C322.896,845.069 319.091,832.559 319.091,832.559 C323.791,831.451 327.923,830.127 332.354,826.68 C332.354,826.68 335.867,837.259 335.867,837.259 Z " fill="rgb(136,210,182)"/><path d="M429.796,748.006 C425.814,749.672 415.841,766.632 394.864,761.513 C385.528,759.234 376.543,754.036 369.738,747.221 C372.883,743.816 375.921,740.156 377.295,735.793 C383.327,740.905 389.705,746.51 397.952,747.852 C407.088,749.338 414.607,744.356 419.95,736.756 C424.448,745.104 431.668,745.271 429.796,748.006 Z " fill="rgb(133,206,180)"/><path d="M289.121,826.41 C288.629,828.114 290.476,827.937 290.811,826.887 C294.869,827.86 297.757,826.85 300.995,826.912 C301.084,827.692 301.981,827.769 303.017,828.707 C303.017,828.707 290.194,829.153 290.194,829.153 C290.194,829.153 288.409,834.467 288.409,834.467 C287.649,836.731 287.562,839.225 285.094,840.18 C285.094,840.18 286.551,835.367 286.551,835.367 C280.061,835.078 277.228,832.251 272.878,830.028 C273.236,828.497 272.058,825.897 274.434,823.567 C265.722,818.488 260.872,810.656 257.234,801.653 C254.298,794.389 256.345,786.5 256.493,778.559 C256.493,778.559 256.969,753.147 256.969,753.147 C243.94,766.062 226.544,776.133 209.319,773.701 C208.517,773.588 207.411,772.89 207.009,772.48 C206.741,772.207 206.932,771.246 207.078,770.951 C220.007,774.938 234.599,768.28 247.163,759.648 C244.96,755.302 244.107,750.987 242.873,745.435 C235.379,750.133 228.592,754.55 221.015,756.864 C220.92,756.124 220.268,755.838 218.986,755.539 C228.331,753.04 236.668,748.115 243.939,741.032 C246.539,738.498 250.285,736.667 251.305,732.955 C250.801,731.854 249.412,729.8 251.281,728.734 C256.763,737.654 259.211,748.753 258.986,759.955 C258.986,759.955 258.645,776.886 258.645,776.886 C257.545,784.729 256.475,792.762 258.697,800.083 C263.039,814.387 274.804,824.917 289.121,826.41 Z " fill="rgb(1,1,1)"/><path d="M236.792,625.412 C236.543,627.972 233.795,630.533 234.663,631.39 C234.663,631.39 236.535,633.237 236.535,633.237 C239.971,638.671 242.975,644.186 244.361,650.986 C245.025,654.243 246.278,657.361 246.49,660.658 C246.978,668.266 249.222,675.601 248.281,683.87 C252.09,686.81 256.019,692.346 252.663,697.647 C249.4,702.802 235.453,702.352 228.392,711.031 C228.392,711.031 233.949,717.402 233.949,717.402 C231.07,717.153 229.658,714.536 226.827,712.617 C221.819,718.431 211.848,723.065 214.484,724.038 C214.146,723.913 213.421,723.95 213.032,724.148 C212.706,721.517 206.158,724.441 204.446,719.605 C211.941,721.544 219.028,718.958 224.057,713.007 C224.057,713.007 229.949,706.034 229.949,706.034 C238.386,699.801 251.579,699.586 251.803,693.819 C252.007,688.541 246.825,684.11 240.947,684.211 C234.517,684.322 229.621,687.768 225.246,692.841 C223.62,688.211 220.446,688.869 216.989,688.832 C210.506,688.761 203.388,690.074 200.998,697.243 C200.599,698.438 201.34,701.73 198.285,701.883 C198.884,696.246 200.533,692.138 205.203,688.71 C202.069,686.306 201.315,683.13 200.125,679.907 C200.125,679.907 193.167,661.053 193.167,661.053 C191.277,655.933 191.983,650.954 192.752,645.97 C189.99,646.501 189.549,648.369 187.727,648.933 C187.984,646.854 190.313,644.974 192.537,644.834 C192.537,644.834 194.874,639.856 194.874,639.856 C195.258,639.039 194.877,637.303 195.454,637.048 C196.053,636.783 197.582,636.971 198.049,637.09 C188.499,650.934 198.337,672.176 206.984,688.227 C214.051,686.576 220.435,685.867 226.45,689.179 C226.45,689.179 232.033,683.998 232.033,683.998 C232.263,684.11 232.851,684.124 233.099,684.034 C237.461,682.45 241.941,681.87 246.841,683.335 C246.841,683.335 244.5,660.656 244.5,660.656 C243.68,652.71 239.873,640.297 233.979,633.879 C224.405,623.454 207.759,624.761 199.351,635.202 C197.858,634.928 197.49,636.727 196.955,635.479 C196.585,634.615 197.252,633.616 198.4,634.274 C206.746,623.503 221.38,621.595 232.49,630.117 C232.49,630.117 236.792,625.412 236.792,625.412 Z " fill="rgb(7,8,8)"/><path d="M342.871,771.848 C342.608,772.253 342.671,772.799 342.861,773.56 C337.277,777.873 334.779,786.757 333.552,794.283 C333.552,794.283 331.807,804.981 331.807,804.981 C328.786,814.212 320.728,820.956 311.817,824.926 C308.17,825.711 304.724,826.983 300.995,826.912 C297.757,826.85 294.869,827.86 290.811,826.887 C290.476,827.937 288.629,828.114 289.121,826.41 C289.156,825.258 289.488,824.067 291.17,823.917 C307.292,822.478 322.523,812.231 327.24,796.321 C330.219,786.274 333.856,777.273 341.884,770.143 C341.821,771.004 342.013,771.776 342.871,771.848 Z " fill="rgb(95,178,151)"/><path d="M421.959,724.806 C423.393,730.457 427.322,734.829 432.039,738.218 C435.024,740.363 439.824,741.126 443.679,740.842 C443.679,740.842 444.999,739.885 444.999,739.885 C445.058,740.294 445.156,741.348 444.815,741.916 C444.815,741.916 435.284,742.084 435.284,742.084 C434.081,745.063 432.064,747.058 429.796,748.006 C431.668,745.271 424.448,745.104 419.95,736.756 C414.607,744.356 407.088,749.338 397.952,747.852 C389.705,746.51 383.327,740.905 377.295,735.793 C375.892,734.604 375.308,732.823 372.723,731.589 C372.723,731.589 365.887,743.982 365.887,743.982 C366.78,745.908 368.791,746.272 369.738,747.221 C376.543,754.036 385.528,759.234 394.864,761.513 C394.812,761.951 394.897,763.024 394.505,763.092 C389.252,764.009 372.427,753.203 364.792,745.473 C364.792,745.473 351.667,763.68 351.667,763.68 C348.944,767.457 346.268,770.929 342.861,773.56 C342.671,772.799 342.608,772.253 342.871,771.848 C342.871,771.848 344.146,769.887 344.146,769.887 C357.753,753.485 370.257,736.045 377.612,716.804 C378.782,716.783 379.522,717.919 379.027,718.933 C379.027,718.933 373.988,729.263 373.988,729.263 C373.988,729.263 384.445,739.469 384.445,739.469 C391,744.522 399.586,748.33 407.886,744.851 C413.705,742.412 417.427,736.808 421.348,732.397 C424.002,729.411 418.834,726.3 421.959,724.806 Z " fill="rgb(3,3,3)"/><path d="M389.27,904.834 C395.376,909.236 397.604,916.762 397.299,924.27 C395.972,929.422 394.371,933.596 388.708,935.833 C375.4,941.09 362.483,941.338 348.923,938.262 C349.05,937.118 349.884,936.736 351.017,936.694 C365.045,936.171 384.857,933.968 389.095,921.29 C391.094,915.31 390.046,909.979 386.897,905.287 C387.965,904.799 388.625,905.094 389.27,904.834 Z " fill="rgb(201,198,193)"/><path d="M508.974,710.726 C510.163,712.775 509.889,714.837 510.411,716.977 C509.437,717.189 508.694,717.133 507.535,718.839 C502.97,710.954 492.06,711.465 483.467,715.561 C480.73,716.865 476.484,715.973 472.999,715.923 C472.999,715.923 470.06,706.965 470.06,706.965 C470.06,706.965 480.615,707.683 480.615,707.683 C490.783,705.655 505.301,704.393 508.974,710.726 Z " fill="rgb(252,252,252)"/><path d="M335.867,837.259 C335.867,837.259 332.354,826.68 332.354,826.68 C327.923,830.127 323.791,831.451 319.091,832.559 C319.091,832.559 322.896,845.069 322.896,845.069 C322.385,845.035 321.867,845.451 321.336,846.017 C321.336,846.017 317.39,832.898 317.39,832.898 C316.513,829.984 316.756,826.896 314.485,825.05 C313.928,825.907 312.96,826.089 312.547,826.043 C312.156,825.998 311.714,825.567 311.817,824.926 C320.728,820.956 328.786,814.212 331.807,804.981 C333.048,805.056 333.113,805.763 333.055,806.515 C332.991,807.362 332.73,807.478 332.274,808.296 C332.274,808.296 329.028,814.122 329.028,814.122 C332.571,820.78 335.064,827.575 337.094,835.042 C337.385,836.114 336.911,837.045 335.867,837.259 Z " fill="rgb(1,1,1)"/><path d="M298.006,588.103 C303.434,587.875 308.868,587.737 314.008,589.43 C309.726,590.782 304.971,589.627 299.927,589.948 C287.746,590.723 276.505,594.848 266.035,601.158 C255.634,607.426 247.415,616.401 239.975,625.945 C238.162,628.27 236.865,630.606 236.535,633.237 C236.535,633.237 234.663,631.39 234.663,631.39 C233.795,630.533 236.543,627.972 236.792,625.412 C238.068,624.016 240.264,621.858 239.413,619.618 C240.084,620.205 240.568,620.28 240.849,619.864 C249.972,606.399 262.82,597.469 277.182,592.296 C283.834,589.9 290.842,588.405 298.006,588.103 Z " fill="rgb(210,246,232)"/><path d="M267.992,850.949 C264.957,863.942 264.156,877.345 265.541,891.302 C265.541,891.302 265.954,903.804 265.954,903.804 C270.602,905.684 275.125,906.079 279.81,904.591 C279.26,901.851 279.115,899.678 279.584,897.438 C280.734,891.957 279.75,886.139 279.898,880.506 C280.254,880.094 280.529,880.008 280.713,879.966 C280.713,879.966 281.32,892.659 281.32,892.659 C281.347,893.217 282.825,893.758 283.464,893.91 C284.157,894.075 283.95,895.338 283.049,895.733 C282.768,895.678 281.857,895.217 281.436,895.315 C280.858,895.448 280.96,896.236 281.17,896.435 C281.378,896.631 281.837,897.735 281.903,898.548 C283.332,898.544 285.167,899.075 285.518,900.859 C285.731,901.944 285.312,903.888 283.633,904.867 C271.9,911.706 256.455,903.079 259.495,898.013 C260.083,897.033 261.347,896.12 263.183,896.026 C263.878,895.985 263.989,893.224 263,893.005 C259.703,892.276 257.033,894.28 254.59,895.723 C255.342,892.846 259.262,890.553 263.048,890.982 C263.048,890.982 263.478,870.411 263.478,870.411 C263.478,870.411 264.584,859.599 264.584,859.599 C264.825,857.244 264.63,854.607 266.364,852.011 C265.144,851.089 266.364,849.643 267.028,850.405 C267.224,850.63 267.354,851.067 267.992,850.949 Z M263.901,900.597 C264.067,898.697 263.293,897.724 262.54,897.676 C261.647,897.62 260.802,898.599 261.016,899.38 C261.123,899.768 261.178,900.408 262.487,900.759 C262.346,902.132 264.436,902.38 263.901,900.597 Z " fill="rgb(6,8,9)"/><path d="M399.873,931.054 C399.873,931.054 400.035,932.454 400.035,932.454 C400.109,933.103 399.431,933.434 399.064,932.644 C398.95,932.399 398.874,931.945 398.022,931.987 C398.143,930.948 397.144,930.73 396.703,931.499 C394.278,935.735 390.076,937.42 385.791,938.897 C363.98,946.412 333.096,940.067 315.596,925.08 C314.972,926.033 314.304,925.993 313.616,926.065 C313.616,926.065 315.01,921.431 315.01,921.431 C315.533,920.581 316.531,921.789 316.86,922.129 C319.606,929.612 338.374,935.869 348.923,938.262 C362.483,941.338 375.4,941.09 388.708,935.833 C394.371,933.596 395.972,929.422 397.299,924.27 C397.796,922.341 398.129,920.129 398.252,917.962 C398.53,917.987 398.813,918.168 398.962,918.526 C399.779,925.256 396.436,928.801 399.873,931.054 Z " fill="rgb(10,10,9)"/><path d="M212.536,727.033 C211.837,730.019 207.626,731.154 204.258,731.275 C201.2,737.411 204.49,743.01 201.571,746.258 C200.881,743.078 200.558,739.863 200.928,735.841 C191.972,737.458 188.127,732.402 185.634,734.073 C184.962,731.328 185.915,728.315 185.515,724.827 C185.226,722.299 181.116,719.439 180.907,716.066 C180.806,714.446 181.89,712.715 183.39,712.994 C180.961,722.379 195.355,730.006 206.26,729.445 C206.26,729.445 212.536,727.033 212.536,727.033 Z " fill="rgb(1,1,2)"/><path d="M499.76,701.55 C502.01,701.934 503.438,702.118 505.385,704.897 C506.962,707.149 510.978,708.278 511.007,712.178 C511.007,712.178 508.974,710.726 508.974,710.726 C505.301,704.393 490.783,705.655 480.615,707.683 C480.615,707.683 470.06,706.965 470.06,706.965 C470.06,706.965 472.999,715.923 472.999,715.923 C476.484,715.973 480.73,716.865 483.467,715.561 C492.06,711.465 502.97,710.954 507.535,718.839 C508.694,717.133 509.437,717.189 510.411,716.977 C510.796,718.557 509.983,719.947 507.814,720.727 C509.213,722.454 507.229,723.823 506.455,722.614 C508.166,720.836 506.655,720.063 506.125,719.851 C497.427,707.363 486.014,720.391 473.284,717.617 C470.045,722.439 471.916,711.884 465.017,701.365 C467.206,701.222 467.86,702.785 468.598,704.823 C472.434,705.12 476.757,706.064 480.495,705.6 C480.495,705.6 484.94,705.049 484.94,705.049 C491.028,704.293 496.567,703.563 502.174,704.732 C502.111,702.04 499.643,703.527 499.76,701.55 Z " fill="rgb(8,7,5)"/><path d="M357.318,899.722 C355.867,899.332 354.859,900.248 352.762,901.068 C353.595,897.354 354.435,894.333 352.596,891.862 C350.675,889.281 347.517,888.273 344.168,888.808 C344.168,888.808 344.618,896.806 344.618,896.806 C346.706,896.244 347.155,894.398 345.773,892.694 C347.379,891.801 348.481,892.769 348.82,893.672 C349.418,895.261 348.901,896.711 347.491,897.701 C334.263,906.985 318.027,895.505 323.345,894.313 C323.643,894.246 324.042,894.285 324.06,894.906 C323.877,895.674 324.211,896.474 324.687,896.712 C325.775,897.255 326.187,896.36 326.589,896.018 C328.088,894.74 325.547,890.092 328.178,888.994 C328.178,888.994 328.532,898.568 328.532,898.568 C333.051,899.499 337.265,899.38 342.059,898.858 C342.059,898.858 341.22,866.09 341.22,866.09 C341.586,866.258 342.587,865.667 342.309,865.493 C341.911,865.243 341.613,864.099 342.829,864.033 C342.829,864.033 344.154,886.753 344.154,886.753 C348.278,886.463 353.547,888.062 354.598,892.308 C355.264,894.999 355.525,897.44 357.318,899.722 Z " fill="rgb(8,9,9)"/><path d="M277.182,592.296 C262.82,597.469 249.972,606.399 240.849,619.864 C240.568,620.28 240.084,620.205 239.413,619.618 C246.56,606.887 259.152,598.149 273.125,592.021 C274.091,591.597 274.351,590.866 275.524,590.937 C276.294,590.984 277.011,590.946 277.182,592.296 Z " fill="rgb(7,8,9)"/><path d="M254.948,897.852 C254.462,899.191 253.862,899.96 255.029,902.415 C253.651,903.232 251.572,903.391 250.324,905.249 C259.029,909.977 268.426,915.721 268.68,926.664 C263.927,916.841 257.786,909.906 248.186,906.81 C247.563,906.356 246.94,905.568 247.472,905.068 C247.472,905.068 249.388,903.265 249.388,903.265 C250.407,902.306 252.463,902.24 252.732,901.243 C253.105,899.862 253.077,898.741 253.009,896.951 C253.009,896.951 254.948,897.852 254.948,897.852 Z " fill="rgb(11,11,10)"/><path d="M372.94,900.783 C361.254,903.083 353.118,910.46 347.513,921.676 C347.712,913.851 354.227,907.188 360.173,903.823 C366.479,900.254 373.475,898.242 380.036,899.387 C380.036,899.387 372.94,900.783 372.94,900.783 Z " fill="rgb(5,5,6)"/><path d="M444.999,739.885 C444.999,739.885 443.679,740.842 443.679,740.842 C439.824,741.126 435.024,740.363 432.039,738.218 C435.19,736.255 439.196,738.378 442.418,733.895 C443.766,735.247 445.929,735.917 447.998,737.04 C447.421,738.65 445.802,739.304 444.999,739.885 Z " fill="rgb(214,212,209)"/><path d="M480.995,729.738 C480.995,729.738 491.541,728.53 491.541,728.53 C495.093,728.123 498.112,727.922 501.111,726.432 C501.111,726.432 506.677,724.271 506.677,724.271 C504.545,729.657 492.43,731.236 482.72,730.817 C481.857,732.578 480.169,731.582 480.995,729.738 Z " fill="rgb(5,6,10)"/><path d="M315.029,588.937 C314.655,588.848 314.061,588.844 314.008,589.43 C308.868,587.737 303.434,587.875 298.006,588.103 C297.854,586.813 296.436,586.877 294.987,586.371 C301.987,585.071 308.915,586.711 316.109,586.947 C316.109,586.947 315.029,588.937 315.029,588.937 Z " fill="rgb(5,6,8)"/><path d="M501.111,726.432 C498.112,727.922 495.093,728.123 491.541,728.53 C491.541,728.53 480.995,729.738 480.995,729.738 C480.995,729.738 456.087,734.974 456.087,734.974 C450.274,736.196 443.875,734.394 441.007,729.861 C441.717,729.637 442.092,730.17 442.229,730.5 C442.394,730.899 443.403,730.484 443.809,729.861 C451.713,732.27 458.442,730.096 465.954,728.831 C465.954,728.831 503.073,722.581 503.073,722.581 C503.068,724.8 501.492,725.082 501.111,726.432 Z " fill="rgb(210,208,205)"/><path d="M356.371,727.043 C363.479,707.324 365.741,685.343 362.336,663.817 C360.124,649.83 353.08,637.526 342.134,629.065 C331.626,620.943 323.945,633.45 319.68,624.983 C318.538,622.716 319.641,619.892 322.405,618.403 C318.266,616.021 314.855,617.047 311.02,616.935 C306.58,616.807 302.596,616.54 298.863,618.526 C301.657,620.136 303.211,623.312 301.345,625.244 C301.345,625.244 298.917,628.085 298.917,628.085 C294.63,630.529 288.272,623.74 281.011,627.077 C254.816,639.114 251.078,673.996 262.347,698.676 C272.789,721.546 288.338,718.834 294.829,728.875 C301.387,739.019 298.821,751.7 288.119,758.225 C280.36,762.955 284.405,767.866 280.431,767.362 C280.456,762.385 283.081,758.71 287.284,756.33 C296.036,751.374 299.278,740.834 294.04,731.937 C287.941,721.577 278.412,723.072 269.182,712.775 C249.767,691.119 248.244,651.589 270.52,631.135 C267.106,628.98 267.092,625.47 268.984,623.202 C275.997,614.794 285.528,614.516 295.12,616.134 C304.852,614.936 315.738,613.517 324.966,616.685 C339.721,610.927 356.549,621.322 352.987,628.374 C352.301,629.732 350.61,631.235 347.868,631.276 C357.271,641.138 363.361,653.081 364.829,667.058 C367.014,687.853 365.81,708.781 358.185,728.117 C352.75,741.901 345.176,755.718 331.374,762.964 C342.886,752.455 351.29,741.14 356.371,727.043 Z " fill="rgb(1,0,1)"/><path d="M310.284,666.982 C310.462,682.054 297.534,693.155 284.716,690.906 C279.387,689.972 273.565,686.478 270.116,680.745 C263.959,670.509 265.167,657.171 273.171,648.288 C280.287,640.39 291.329,639.235 300.02,644.993 C307.564,649.992 310.179,658.158 310.284,666.982 Z M299.592,684.936 C310.577,675.913 311.157,659.267 301.851,649.316 C293.561,640.451 280.285,641.574 273.144,651.295 C266.63,660.162 266.461,672.893 273.236,681.619 C279.644,689.873 291.13,691.886 299.592,684.936 Z " fill="rgb(10,12,10)"/><path d="M342.152,643.237 C355.43,650.012 359.419,667.933 351.442,680.525 C346.582,688.196 337.241,693.013 328.115,689.836 C319.483,686.831 313.727,678.411 312.406,671.047 C310.628,661.14 313.711,652.154 320.877,645.936 C327.073,640.559 335.222,639.701 342.152,643.237 Z M338.974,687.954 C353.653,682.393 357.386,664.717 349.185,651.905 C345.903,646.778 340.618,643.37 335.387,642.978 C329.271,642.52 323.577,644.904 319.658,649.761 C312.634,658.468 312.112,671.05 318.716,680.229 C323.21,686.476 331.386,690.83 338.974,687.954 Z " fill="rgb(10,11,10)"/><path d="M280.431,767.362 C284.405,767.866 280.36,762.955 288.119,758.225 C298.821,751.7 301.387,739.019 294.829,728.875 C295.83,728.372 296.47,727.892 297.392,728.209 C298.095,728.451 298.615,729.26 299.173,729.686 C307.399,735.966 309.826,745.947 304.882,754.886 C299.795,764.081 290.163,768.967 280.431,767.362 Z " fill="rgb(100,178,154)"/><path d="M356.371,727.043 C354.647,725.587 355.161,723.78 355.568,721.973 C358.806,707.569 357.267,693.84 351.442,680.525 C359.419,667.933 355.43,650.012 342.152,643.237 C337.943,635.415 330.078,631.039 321.291,629.567 C314.929,628.501 308.742,626.022 301.907,626.379 C301.907,626.379 298.917,628.085 298.917,628.085 C298.917,628.085 301.345,625.244 301.345,625.244 C303.211,623.312 301.657,620.136 298.863,618.526 C302.596,616.54 306.58,616.807 311.02,616.935 C314.855,617.047 318.266,616.021 322.405,618.403 C319.641,619.892 318.538,622.716 319.68,624.983 C323.945,633.45 331.626,620.943 342.134,629.065 C353.08,637.526 360.124,649.83 362.336,663.817 C365.741,685.343 363.479,707.324 356.371,727.043 Z " fill="rgb(105,181,155)"/><path d="M385.791,938.897 C390.687,938.472 385.772,941.383 384.929,947.098 C362.397,952.501 337.733,948.602 317.303,936.956 C312.586,934.267 312.428,930.016 313.616,926.065 C314.304,925.993 314.972,926.033 315.596,925.08 C333.096,940.067 363.98,946.412 385.791,938.897 Z " fill="rgb(252,253,252)"/><path d="M276.973,939.874 C277.378,942.197 278.028,945.075 276.742,946.995 C267.63,950.027 258.125,951.948 247.995,953.004 C230.612,954.817 210.785,947.133 211.672,941.454 C211.672,941.454 212.681,934.985 212.681,934.985 C213.286,934.95 214.12,934.441 214.502,934.63 C214.884,934.819 215.2,935.626 215.822,936.197 C229.953,949.169 258.522,945.699 276.973,939.874 Z " fill="rgb(252,252,252)"/><path d="M290.397,932.018 C286.395,935.828 282.063,938.267 276.973,939.874 C258.522,945.699 229.953,949.169 215.822,936.197 C215.2,935.626 214.884,934.819 214.502,934.63 C214.12,934.441 213.286,934.95 212.681,934.985 C212.934,933.369 214.105,931.182 215.051,929.772 C215.204,933.426 217.767,935.983 221.184,937.863 C234.214,945.034 253.962,944.111 267.936,940.378 C279.437,937.306 290.367,934.418 288.272,922.879 C287.736,919.925 287.954,917.109 285.806,915.009 C286.576,914.953 287.165,914.483 287.598,913.971 C288.42,915.919 289.523,917.63 289.634,919.457 C289.634,919.457 290.397,932.018 290.397,932.018 Z " fill="rgb(12,11,11)"/><path d="M285.806,915.009 C287.954,917.109 287.736,919.925 288.272,922.879 C290.367,934.418 279.437,937.306 267.936,940.378 C267.936,940.378 271.805,936.88 271.805,936.88 C286.007,928.608 279.434,915.657 286.042,913.098 C286.04,913.796 286.016,914.359 285.806,915.009 Z " fill="rgb(206,203,198)"/><path d="M398.325,933.113 C400.331,936.139 398.748,941.041 395.184,943.201 C391.914,945.182 388.356,946.276 384.929,947.098 C385.772,941.383 390.687,938.472 385.791,938.897 C390.076,937.42 394.278,935.735 396.703,931.499 C397.36,932.538 396.411,933.249 395.951,933.484 C395.698,933.612 397.038,934.353 397.473,934.045 C397.715,933.873 398.111,933.712 398.325,933.113 Z " fill="rgb(207,205,199)"/><path d="M276.742,946.995 C278.028,945.075 277.378,942.197 276.973,939.874 C282.063,938.267 286.395,935.828 290.397,932.018 C290.61,935.518 290.594,939.703 287.199,942.205 C283.979,944.578 280.171,945.853 276.742,946.995 Z " fill="rgb(206,205,200)"/><path d="M441.257,706.233 C437.566,707.509 435.501,710.315 433.345,714.112 C432.405,709.679 436.6,705.872 441.232,704.289 C448.866,701.681 459.492,704.631 462.869,713.057 C455.944,707.47 449.346,703.438 441.257,706.233 Z " fill="rgb(8,8,6)"/><path d="M350.761,904.025 C348.873,908.461 344.184,911.96 339.656,910.468 C344.098,908.706 346.737,906.72 350.761,904.025 Z " fill="rgb(22,19,14)"/><path d="M251.803,693.819 C251.579,699.586 238.386,699.801 229.949,706.034 C229.949,706.034 224.057,713.007 224.057,713.007 C219.028,718.958 211.941,721.544 204.446,719.605 C212.169,717.482 218.574,713.259 224.133,707.18 C232.215,698.342 242.937,699.54 249.681,692.109 C250.49,693.165 251.083,693.716 251.803,693.819 Z " fill="rgb(207,206,204)"/><path d="M233.799,675.126 C234.989,680.181 232.25,680.373 233.099,684.034 C232.851,684.124 232.263,684.11 232.033,683.998 C232.033,683.998 223.933,680.028 223.933,680.028 C223.722,673.585 220.776,664.225 215.84,662.822 C214.756,658.467 217.005,653.012 213.726,648.943 C211.473,650.348 210.234,653.073 208.167,655.211 C208.11,650.714 210.202,647.624 211.013,643.639 C214.942,641.372 220.366,643.366 223.156,648.004 C227.65,655.476 229.258,664.244 231.144,672.921 C231.531,674.703 232.286,675.285 233.799,675.126 Z " fill="rgb(96,171,146)"/><path d="M233.799,675.126 C232.286,675.285 231.531,674.703 231.144,672.921 C229.258,664.244 227.65,655.476 223.156,648.004 C220.366,643.366 214.942,641.372 211.013,643.639 C206.258,646.384 205.239,651.364 205.458,657.092 C205.723,664.02 210.054,669.139 211.592,676.466 C205.47,669.923 202.926,660.079 203.798,651.096 C204.343,645.483 208.928,641.514 213.536,640.845 C226.98,638.892 230.644,661.722 233.799,675.126 Z " fill="rgb(7,10,7)"/><path d="M377.295,735.793 C375.921,740.156 372.883,743.816 369.738,747.221 C368.791,746.272 366.78,745.908 365.887,743.982 C365.887,743.982 372.723,731.589 372.723,731.589 C375.308,732.823 375.892,734.604 377.295,735.793 Z " fill="rgb(44,60,54)"/><path d="M263.901,900.597 C264.436,902.38 262.346,902.132 262.487,900.759 C261.178,900.408 261.123,899.768 261.016,899.38 C260.802,898.599 261.647,897.62 262.54,897.676 C263.293,897.724 264.067,898.697 263.901,900.597 Z " fill="rgb(225,227,223)"/><path d="M398.022,931.987 C397.904,932.454 398.154,932.854 398.325,933.113 C398.111,933.712 397.715,933.873 397.473,934.045 C397.038,934.353 395.698,933.612 395.951,933.484 C396.411,933.249 397.36,932.538 396.703,931.499 C397.144,930.73 398.143,930.948 398.022,931.987 Z " fill="rgb(236,238,231)"/><path d="M311.817,824.926 C311.714,825.567 312.156,825.998 312.547,826.043 C312.96,826.089 313.928,825.907 314.485,825.05 C316.756,826.896 316.513,829.984 317.39,832.898 C317.39,832.898 321.336,846.017 321.336,846.017 C321.867,845.451 322.385,845.035 322.896,845.069 C327.185,859.163 327.63,874.197 328.178,888.994 C325.547,890.092 328.088,894.74 326.589,896.018 C326.187,896.36 325.775,897.255 324.687,896.712 C324.211,896.474 323.877,895.674 324.06,894.906 C324.607,895.267 325.236,896.079 325.585,895.856 C326.174,895.479 326.399,891.334 325.56,890.889 C325.049,890.618 318.765,892.298 317.315,895.931 C315.27,901.059 322.432,903.731 318.546,909.577 C315.912,913.538 315.392,918.129 316.86,922.129 C316.531,921.789 315.533,920.581 315.01,921.431 C315.01,921.431 313.616,926.065 313.616,926.065 C312.428,930.016 312.586,934.267 317.303,936.956 C337.733,948.602 362.397,952.501 384.929,947.098 C388.356,946.276 391.914,945.182 395.184,943.201 C398.748,941.041 400.331,936.139 398.325,933.113 C398.154,932.854 397.904,932.454 398.022,931.987 C398.874,931.945 398.95,932.399 399.064,932.644 C399.431,933.434 400.109,933.103 400.035,932.454 C400.035,932.454 399.873,931.054 399.873,931.054 C409.725,932.355 419.745,935.139 428.049,940.758 C429.527,941.757 429.43,945.164 429.075,946.347 C428.773,947.352 427.081,948.034 425.928,948.908 C410.463,960.648 345.223,964.649 320.144,964.289 C320.144,964.289 276.235,963.659 276.235,963.659 C276.235,963.659 260.244,962.736 260.244,962.736 C260.244,962.736 242.937,961.72 242.937,961.72 C242.937,961.72 211.7,957.474 211.7,957.474 C201.659,956.11 185.037,951.21 181.487,943.238 C187.424,934.901 202.699,932.548 212.964,930.288 C213.212,928.856 214.278,927.955 214.975,927.964 C214.975,927.964 215.051,929.772 215.051,929.772 C214.105,931.182 212.934,933.369 212.681,934.985 C212.681,934.985 211.672,941.454 211.672,941.454 C210.785,947.133 230.612,954.817 247.995,953.004 C258.125,951.948 267.63,950.027 276.742,946.995 C280.171,945.853 283.979,944.578 287.199,942.205 C290.594,939.703 290.61,935.518 290.397,932.018 C290.397,932.018 289.634,919.457 289.634,919.457 C289.523,917.63 288.42,915.919 287.598,913.971 C287.165,914.483 286.576,914.953 285.806,915.009 C286.016,914.359 286.04,913.796 286.042,913.098 C289.457,911.775 291.109,906.751 290.448,903.04 C289.832,899.583 286.423,897.082 283.049,895.733 C283.95,895.338 284.157,894.075 283.464,893.91 C282.825,893.758 281.347,893.217 281.32,892.659 C281.32,892.659 280.713,879.966 280.713,879.966 C280.529,880.008 280.254,880.094 279.898,880.506 C279.75,886.139 280.734,891.957 279.584,897.438 C278.681,878.231 279.525,858.568 285.094,840.18 C287.562,839.225 287.649,836.731 288.409,834.467 C288.409,834.467 290.194,829.153 290.194,829.153 C290.194,829.153 303.017,828.707 303.017,828.707 C301.981,827.769 301.084,827.692 300.995,826.912 C304.724,826.983 308.17,825.711 311.817,824.926 Z " fill="rgb(12,13,27)"/><path d="M299.592,684.936 C291.13,691.886 279.644,689.873 273.236,681.619 C266.461,672.893 266.63,660.162 273.144,651.295 C280.285,641.574 293.561,640.451 301.851,649.316 C311.157,659.267 310.577,675.913 299.592,684.936 Z M306.182,665.477 C305.792,658.883 301.044,655.238 295.488,655.273 C290.055,655.306 286.255,660.089 286.095,665.99 C285.915,672.622 290.309,677.572 296.508,677.261 C302.247,676.973 306.586,672.307 306.182,665.477 Z " fill="rgb(253,253,253)"/><path d="M338.974,687.954 C331.386,690.83 323.21,686.476 318.716,680.229 C312.112,671.05 312.634,658.468 319.658,649.761 C323.577,644.904 329.271,642.52 335.387,642.978 C340.618,643.37 345.903,646.778 349.185,651.905 C357.386,664.717 353.653,682.393 338.974,687.954 Z M337.481,676.017 C343.049,678.426 347.725,675.322 350.093,671.466 C352.519,667.514 351.829,662.514 349.367,659.01 C346.773,655.319 341.449,653.927 336.916,655.974 C332.935,657.772 331.331,662.506 331.372,666.44 C331.411,670.035 333.077,674.112 337.481,676.017 Z " fill="rgb(252,253,253)"/><path d="M306.182,665.477 C306.586,672.307 302.247,676.973 296.508,677.261 C290.309,677.572 285.915,672.622 286.095,665.99 C286.255,660.089 290.055,655.306 295.488,655.273 C301.044,655.238 305.792,658.883 306.182,665.477 Z M294.575,661.944 C295.082,660.284 294.126,659.271 293.381,659.035 C292.475,658.749 291.393,658.971 290.631,659.567 C289.408,660.523 289.026,661.765 289.464,663.102 C289.804,664.139 291.128,664.908 292.051,664.566 C293.304,664.102 294.035,663.709 294.575,661.944 Z " fill="rgb(1,0,1)"/><path d="M337.481,676.017 C333.077,674.112 331.411,670.035 331.372,666.44 C331.331,662.506 332.935,657.772 336.916,655.974 C341.449,653.927 346.773,655.319 349.367,659.01 C351.829,662.514 352.519,667.514 350.093,671.466 C347.725,675.322 343.049,678.426 337.481,676.017 Z M336.313,659.285 C334.627,660.082 334.083,661.908 334.971,663.401 C335.499,664.287 337.638,664.57 338.845,663.642 C339.68,663 340.298,661.514 339.487,660.074 C339.081,659.351 337.464,658.741 336.313,659.285 Z " fill="rgb(1,1,1)"/><path d="M294.575,661.944 C294.035,663.709 293.304,664.102 292.051,664.566 C291.128,664.908 289.804,664.139 289.464,663.102 C289.026,661.765 289.408,660.523 290.631,659.567 C291.393,658.971 292.475,658.749 293.381,659.035 C294.126,659.271 295.082,660.284 294.575,661.944 Z " fill="rgb(252,252,251)"/><path d="M336.313,659.285 C337.464,658.741 339.081,659.351 339.487,660.074 C340.298,661.514 339.68,663 338.845,663.642 C337.638,664.57 335.499,664.287 334.971,663.401 C334.083,661.908 334.627,660.082 336.313,659.285 Z " fill="rgb(252,252,251)"/></svg>