<svg xmlns="http://www.w3.org/2000/svg" viewBox="1084.882339771581 84.01399999999997 347.32736920977663 428.5190390023016"><path d="M1256.96,109.985 C1281.75,111.911 1304.07,124.849 1317.78,146.217 C1336.8,175.861 1335.45,213.021 1322.88,244.832 C1315.9,259.688 1307.56,274.903 1297.38,287.652 C1287.08,294.57 1282.84,305.955 1280.06,318.139 C1275.96,336.145 1258.18,348.21 1240.09,347.96 C1238.78,347.942 1238.94,349.517 1239.15,350.087 C1224.26,347.382 1212.66,335.641 1210.36,320.913 C1208.86,304.515 1212.94,289.482 1207.48,271.266 C1205.43,264.429 1203.04,253.715 1196.83,251.388 C1196.83,251.388 1177.02,243.965 1177.02,243.965 C1170.28,241.44 1163.07,240.729 1156.09,241.908 C1147.3,243.392 1141.08,249.918 1140.03,257.891 C1139.5,257.656 1138.99,258.167 1138.99,258.563 C1139,259.188 1139.28,260.098 1138.54,261.687 C1134.17,259.316 1129.57,258.625 1124.76,261.534 C1124.76,257.418 1124.58,254.694 1126.01,252.027 C1126.13,251.79 1126.13,251.326 1126.1,251.036 C1130.45,238.282 1141.6,229.019 1155.37,227.352 C1172.52,225.274 1185.98,233.031 1190.53,233.211 C1190.98,233.229 1191.33,231.65 1190.73,231.439 C1190.73,231.439 1180.98,228.045 1180.98,228.045 C1175.56,218.386 1173.33,208.1 1171.03,197.884 C1170.96,197.076 1171.53,195.604 1171.68,194.794 C1172.34,177.162 1176.86,158.332 1188.19,143.318 C1204.26,122.028 1227.45,110.563 1253,110.812 C1253.65,109.34 1255.87,109.9 1256.96,109.985 Z M1233.11,291.782 C1246.4,292.265 1258.77,281.169 1257.35,267.101 C1256.37,257.498 1248.33,252.304 1240.96,248.734 C1240.96,248.734 1228.31,242.606 1228.31,242.606 C1198.79,228.313 1190.74,175.416 1217.6,152.411 C1224.9,151.372 1229.32,142.493 1238.76,145.219 C1238.76,145.219 1245.78,147.248 1245.78,147.248 C1252.1,149.075 1258.87,149.059 1265.02,151.989 C1264.28,152.782 1262.65,154.152 1263.27,156.312 C1266.17,152.719 1268.93,150.717 1272.78,149.675 C1272.8,149.945 1272.74,151.572 1273.08,151.863 C1278.36,153.043 1282.72,155.717 1286.22,159.928 C1287.26,160.076 1287.04,161.265 1286.01,161.573 C1274.88,156.844 1263.5,166.131 1260.32,179.243 C1256.2,170.329 1248.08,164.394 1238.72,165.722 C1228.17,167.219 1221.58,176.598 1220.94,186.962 C1220.3,197.302 1224.18,206.62 1232.92,212.168 C1238.48,215.697 1245.11,216.229 1250.78,212.763 C1256.8,209.086 1260.98,203.535 1262.66,196.739 C1265.95,203.727 1271.75,208.394 1277.94,209.584 C1285.35,211.009 1292.41,207.989 1296.83,202.069 C1297.6,202.207 1298.38,201.196 1299.03,200.63 C1307.03,213.826 1306.55,228.546 1304.64,244.025 C1304.5,245.147 1305.12,245.918 1306.11,245.93 C1301.95,260.328 1294.43,272.25 1282.53,283.688 C1292.6,279.279 1298.41,268.85 1303.23,259.203 C1309.13,247.394 1311.87,234.382 1312.72,221.026 C1312.72,221.026 1312.56,196.449 1312.56,196.449 C1312.56,196.449 1311.53,188.426 1311.53,188.426 C1308.6,165.651 1293.02,143.313 1268.86,138.392 C1281.36,130.305 1288.98,144.105 1294.09,138.551 C1295.98,136.493 1295.45,133.819 1293.29,131.575 C1288.58,126.688 1281.86,124.012 1274.66,125.168 C1269.08,126.064 1261.63,129.171 1259.15,135.857 C1259.15,135.857 1246.91,136.715 1246.91,136.715 C1237.02,130.978 1225.52,133.509 1217.66,141.647 C1214.93,144.47 1214.59,147.405 1216.15,150.66 C1194.77,170.677 1194.65,205.573 1209.74,228.264 C1214.3,235.124 1220.03,241.954 1228.13,244.657 C1237.21,247.689 1245.17,253.853 1246.03,264.036 C1246.56,270.313 1243.16,276.532 1238.15,280.103 C1230.56,285.502 1230.56,291.689 1233.11,291.782 Z M1235.05,152.05 C1232.53,152.103 1229.96,153.354 1227.99,154.772 C1227.77,154.928 1227.35,154.995 1227.05,155.015 C1225.06,156.276 1223.25,158.043 1222.15,160.162 C1220.96,161.319 1219.95,163.451 1219.98,164.976 C1219.14,165.01 1218.84,165.519 1218.92,166.501 C1218.97,167.034 1218.98,168.151 1220.33,168.041 C1220.78,168.003 1220.87,167.351 1221.02,167.023 C1221.63,165.835 1221.81,165.188 1222.09,164.006 C1223.29,163.849 1223.82,162.473 1224.41,161.496 C1229.97,152.216 1241.8,151.993 1248.7,157.889 C1249.19,158.308 1250.18,158.14 1250.53,157.978 C1251.3,157.622 1251.49,156.113 1250.04,155.966 C1249.02,155.862 1248.53,155.081 1248.05,154.732 C1246.63,153.683 1244.71,152.432 1242.98,152.093 C1241.52,151.805 1239.62,152.457 1237.89,150.751 C1236.94,151.772 1236.06,152.029 1235.05,152.05 Z " fill="rgb(137,211,185)"/><path d="M1199.7,449.144 C1200.94,449.655 1202.54,450.87 1204.05,450.819 C1204.05,450.819 1235.99,449.756 1235.99,449.756 C1235.99,449.756 1275.73,450.365 1275.73,450.365 C1275.73,450.365 1299.82,451.236 1299.82,451.236 C1299.82,451.236 1315.72,452.388 1315.72,452.388 C1315.72,452.388 1356.67,457.269 1356.67,457.269 C1366.21,458.406 1382.54,462.869 1383.42,468.527 C1384.15,473.234 1367.07,478.45 1358.73,479.828 C1358.73,479.828 1334.78,483.787 1334.78,483.787 C1334.78,483.787 1325.77,484.755 1325.77,484.755 C1325.77,484.755 1305.7,486.713 1305.7,486.713 C1305.7,486.713 1287.67,487.66 1287.67,487.66 C1287.67,487.66 1261.02,488.379 1261.02,488.379 C1261.02,488.379 1235.93,488.529 1235.93,488.529 C1208.86,488.69 1157.93,484.02 1133.36,477.699 C1123.85,475.253 1114.16,469.883 1118.64,466.554 C1126.77,460.523 1136.69,458.204 1146.78,457.273 C1147.05,456.948 1147.08,456.083 1147.17,455.907 C1152.98,463.971 1161.53,470.068 1161.51,470.01 C1161.78,471.051 1163.16,470.999 1164.06,469.878 C1168.34,472.991 1172.95,474.538 1178.04,474.341 C1181.14,474.22 1181.71,470.554 1183.26,468.556 C1188.98,465.374 1196.07,462.515 1196.42,455.958 C1196.47,455.092 1196.38,453.705 1196.82,452.52 C1197.76,450.034 1197.9,447.435 1198.04,444.617 C1198.26,445.818 1198.83,448.112 1199.7,449.144 Z " fill="rgb(12,14,29)"/><path d="M1200.06,410.302 C1199.22,411.875 1198.45,414.634 1196.58,415.316 C1190.94,417.376 1187.02,411.587 1184.97,413.663 C1187.31,414.99 1190.61,415.768 1190.43,417.972 C1190.22,420.648 1190.53,423.172 1187.94,424.33 C1182.83,420.527 1175.05,416.673 1168.2,420.477 C1184.55,419.615 1195.42,430.747 1198.04,444.617 C1197.9,447.435 1197.76,450.034 1196.82,452.52 C1194.79,454.622 1192.59,457.389 1189.24,458.312 C1174.05,462.491 1159.01,452.149 1151.66,436.532 C1151.52,437.217 1150.81,437.993 1150.17,437.966 C1146.32,423.055 1147.53,406.945 1153.24,392.361 C1155.1,387.614 1158.48,384.381 1162.89,383.082 C1165.71,382.956 1169.06,382.357 1172.07,383.181 C1174.8,383.926 1178.46,386.245 1181.65,384.534 C1183.58,383.497 1185.66,381.1 1188.39,382.147 C1192.05,383.553 1195.06,388.369 1193.93,389.379 C1193.51,389.757 1192.28,389.579 1191.7,389.493 C1191.05,389.397 1190.95,387.542 1190.69,387.028 C1184.99,385.074 1184.5,399.07 1188.24,407.68 C1189.67,410.974 1194.24,413.21 1196.01,411.567 C1196.93,410.718 1197.1,407.724 1199.39,408.219 C1200.35,408.427 1200.24,409.332 1200.06,410.302 Z M1188.19,418.451 C1183.8,417.219 1183.12,415.898 1180.68,413.267 C1179.08,416.02 1181.44,417.316 1182.56,418.214 C1184.49,419.765 1186.85,420.119 1188.19,418.451 Z " fill="rgb(253,253,253)"/><path d="M1164.09,297.019 C1161.86,298.411 1157.54,297.569 1156.38,295.297 C1151.02,297.929 1153.41,306.89 1154.63,315.048 C1154.85,316.504 1153.5,318.644 1155.06,320.262 C1154.37,321.08 1154.46,323.016 1152.27,323.23 C1152.27,323.23 1144.44,323.994 1144.44,323.994 C1144.44,323.994 1142.92,323.885 1142.92,323.885 C1142.92,323.885 1137,313.997 1137,313.997 C1137.45,319.189 1139.91,323.69 1143.01,326.905 C1141.01,329.288 1138.42,330.702 1135.44,330.688 C1132.39,330.674 1129.14,329.406 1127.45,326.652 C1127.45,326.652 1120.66,315.531 1120.66,315.531 C1119.25,317.586 1120.96,318.982 1121.33,320.297 C1119.21,321.467 1116.05,318.685 1115.04,317.129 C1112.99,312.685 1112.21,307.967 1108.94,304.657 C1108.29,294.951 1113.18,286.706 1121.36,280.296 C1118.69,279.178 1117.17,281.023 1115.63,283.204 C1113.29,279.654 1115.11,276.254 1117.39,273.209 C1122.74,267.864 1130.91,265.515 1138.93,267.117 C1143.05,267.942 1146.26,270.836 1147.11,275.387 C1143,274.762 1139.35,272.414 1135.43,275.191 C1143.93,276.333 1151.06,278.941 1157.83,283.079 C1163.39,286.482 1164.88,291.112 1164.09,297.019 Z " fill="rgb(253,253,253)"/><path d="M1382.17,347.073 C1382.17,347.073 1387.06,349.026 1387.06,349.026 C1387.06,349.026 1393.62,356.48 1393.62,356.48 C1388.66,357.867 1384.09,359.856 1379.94,363.148 C1364.35,375.501 1343.16,395.949 1337.63,415.152 C1333.96,412.645 1331.54,408.999 1329.76,405.097 C1332.55,397.208 1321.74,398.098 1321.07,390.95 C1321.07,390.95 1322.77,383.015 1322.77,383.015 C1328.3,378.71 1331.87,372.252 1340.04,370.366 C1340.68,376.971 1337.64,380.527 1332.64,383.966 C1339.83,384.725 1342.78,376.537 1341.33,370.381 C1342.78,369.417 1345.29,369.703 1347.59,370.489 C1346.48,376.828 1345.08,382.884 1346.69,389.85 C1349.17,386.143 1347.77,382.729 1348.09,378.974 C1348.98,368.265 1352.94,357.358 1361.91,351.236 C1368.23,346.927 1375.73,344.495 1382.17,347.073 Z " fill="rgb(253,253,253)"/><path d="M1402.05,373.04 C1402.21,373.292 1402.21,373.553 1402.17,373.764 C1393.63,391.67 1380.02,407.744 1363.36,420.242 C1363.36,420.242 1355.03,424.248 1355.03,424.248 C1353.43,425.019 1348.78,426.414 1347.88,424.079 C1343.7,413.326 1371.74,385.101 1383.55,374.566 C1389.74,369.049 1398.03,363.708 1401.66,367.708 C1403,369.178 1402.55,371.33 1402.05,373.04 Z " fill="rgb(197,193,188)"/><path d="M1361.99,226.337 C1370.97,229.263 1376.17,238.816 1374.06,248.195 C1373.22,247.936 1372.93,247.295 1372.74,245.23 C1366.65,249.453 1363.28,244.964 1360.91,246.994 C1358.78,243.781 1356.76,240.458 1355.97,235.823 C1355.85,235.107 1354.08,235.244 1354.16,235.9 C1354.91,241.857 1357.57,247.267 1361.91,250.965 C1365.62,254.119 1369.85,254.507 1373.93,251.625 C1375.24,250.698 1379.19,251.373 1379.79,252.71 C1379.79,252.71 1382.43,258.567 1382.43,258.567 C1385.32,259.938 1390.09,258.795 1393.17,257.93 C1390.39,264.498 1383.51,267.596 1376,269.113 C1374.39,269.437 1371.71,268.877 1370.95,271.255 C1370.24,270.766 1368.86,271.04 1367.96,269.887 C1365.94,272.006 1364.52,274.998 1364.92,278.402 C1359.75,276.023 1354.98,272.776 1351.54,267.721 C1351.59,266.443 1352.33,264.182 1353.2,262.944 C1355.5,264.306 1356.39,267.823 1360.37,267.821 C1356.04,263.465 1353.02,259.332 1351.26,254.154 C1348.24,245.218 1343.38,234.137 1351.64,228.04 C1354.84,225.682 1358.65,225.25 1361.99,226.337 Z " fill="rgb(253,253,253)"/><path d="M1226.05,364.735 C1226.05,364.735 1226.43,360.915 1226.43,360.915 C1226.53,359.831 1226.21,358.537 1227.34,356.905 C1231.04,360.416 1235.34,363.178 1240.75,362.411 C1238.38,390.577 1220.08,406.278 1190.65,407.106 C1187.69,402.822 1187.39,397.317 1188.06,392.244 C1188.06,392.244 1208.04,388.933 1208.04,388.933 C1218.99,385.449 1225,375.529 1226.05,364.735 Z " fill="rgb(133,207,180)"/><path d="M1319.59,338.37 C1326.83,344.237 1331.83,352.546 1336.21,361.154 C1336.21,361.154 1338,366.237 1338,366.237 C1332.58,366.338 1328.07,367.619 1324.26,371.138 C1324.26,371.138 1318.78,360.24 1318.78,360.24 C1312.75,348.271 1300.64,341.867 1286.66,343.179 C1288.64,338.237 1289.6,334.236 1289.35,328.786 C1300.52,328.114 1311.15,331.521 1319.59,338.37 Z " fill="rgb(133,207,181)"/><path d="M1319.59,338.37 C1311.15,331.521 1300.52,328.114 1289.35,328.786 C1289.6,334.236 1288.64,338.237 1286.66,343.179 C1300.64,341.867 1312.75,348.271 1318.78,360.24 C1318.78,360.24 1324.26,371.138 1324.26,371.138 C1328.07,367.619 1332.58,366.338 1338,366.237 C1338,366.237 1336.21,361.154 1336.21,361.154 C1339.08,360.855 1338.75,364.896 1340.15,366.901 C1341.57,368.92 1346.39,368.176 1348.38,367.575 C1353.02,353.827 1364.88,343.652 1379.09,344.537 C1380.04,344.596 1381.42,345.122 1381.86,345.54 C1382.15,345.812 1382.26,346.476 1382.17,347.073 C1375.73,344.495 1368.23,346.927 1361.91,351.236 C1352.94,357.358 1348.98,368.265 1348.09,378.974 C1347.77,382.729 1349.17,386.143 1346.69,389.85 C1345.08,382.884 1346.48,376.828 1347.59,370.489 C1345.29,369.703 1342.78,369.417 1341.33,370.381 C1342.78,376.537 1339.83,384.725 1332.64,383.966 C1337.64,380.527 1340.68,376.971 1340.04,370.366 C1331.87,372.252 1328.3,378.71 1322.77,383.015 C1323.2,381.022 1323.28,381.409 1324.32,379.066 C1324.45,377.69 1323.94,376.4 1322.95,375.49 C1320.1,363.887 1315.05,355.545 1305.9,349.171 C1297.3,343.187 1279.03,344.642 1267.36,348.44 C1265.24,349.129 1263.77,350.731 1261.85,348.77 C1273.97,344.936 1284.26,334.66 1285.92,321.13 C1285.92,321.13 1287.43,308.792 1287.43,308.792 C1288.74,308.758 1289.36,309.56 1289.1,310.512 C1289.1,310.512 1288.33,313.355 1288.33,313.355 C1288.33,313.355 1287.28,327.112 1287.28,327.112 C1301.53,324.038 1321.12,336.275 1320.95,337.5 C1320.87,338.022 1320.02,338.319 1319.59,338.37 Z " fill="rgb(1,1,2)"/><path d="M1362.07,285.619 C1361.89,286.099 1361.94,286.839 1362.77,287.268 C1354.72,291.523 1353,295.005 1342.61,296.673 C1337.29,297.528 1331.54,295.555 1327.03,292.982 C1327.03,292.982 1323.18,290.786 1323.18,290.786 C1318.98,288.391 1315.3,284.648 1312.41,280.273 C1315.23,275.862 1318.37,272.76 1321.64,270.005 C1325.97,275.39 1330.59,281.189 1337.28,282.373 C1343.19,283.417 1347.73,279.184 1351.8,275.433 C1354.06,281.1 1357.65,283.766 1362.07,285.619 Z " fill="rgb(133,207,180)"/><path d="M1402.61,363.025 C1402.1,363.173 1402.21,363.679 1402.37,363.921 C1402.34,364.623 1401.83,365.378 1401.45,365.269 C1401.45,365.269 1398.91,364.531 1398.91,364.531 C1393.95,365.164 1389.04,367.561 1384.94,371.073 C1371.41,382.669 1359.04,395.492 1349.48,410.236 C1346.9,414.22 1345.36,418.207 1345.01,423.515 C1343.04,422.971 1340.08,421.176 1339.93,419.15 C1339.54,413.891 1341.05,409.192 1343.89,404.802 C1354.72,388.103 1368.42,373.108 1384.7,361.971 C1390.99,357.661 1397.99,357.564 1402.61,363.025 Z " fill="rgb(252,252,252)"/><path d="M1159.73,458.077 C1161.15,459.523 1162.23,461.326 1164.5,462.765 C1164.5,462.765 1158.95,464.258 1158.95,464.258 C1158.7,464.325 1159.52,465.26 1159.77,465.435 C1159.97,465.578 1159.34,466.093 1158.84,466.078 C1149.54,459.309 1143.62,448.993 1140.38,437.526 C1140.38,437.526 1139.46,430.549 1139.46,430.549 C1139.46,430.549 1139.34,407.395 1139.34,407.395 C1139.34,407.395 1140.19,403.078 1140.19,403.078 C1140.19,403.078 1144.75,388.031 1144.75,388.031 C1147.54,385.246 1151.03,382.996 1155.37,385.038 C1147.92,396.161 1145.89,408.864 1145.95,421.972 C1146.02,435.886 1150.38,448.541 1159.73,458.077 Z " fill="rgb(252,252,252)"/><path d="M1402.61,363.025 C1397.99,357.564 1390.99,357.661 1384.7,361.971 C1368.42,373.108 1354.72,388.103 1343.89,404.802 C1341.05,409.192 1339.54,413.891 1339.93,419.15 C1340.08,421.176 1343.04,422.971 1345.01,423.515 C1345.36,418.207 1346.9,414.22 1349.48,410.236 C1359.04,395.492 1371.41,382.669 1384.94,371.073 C1389.04,367.561 1393.95,365.164 1398.91,364.531 C1398.91,364.531 1401.45,365.269 1401.45,365.269 C1401.83,365.378 1402.34,364.623 1402.37,363.921 C1403.85,366.168 1404.75,369.814 1403.83,372.84 C1403.64,373.469 1402.37,373.349 1402.05,373.04 C1402.55,371.33 1403,369.178 1401.66,367.708 C1398.03,363.708 1389.74,369.049 1383.55,374.566 C1371.74,385.101 1343.7,413.326 1347.88,424.079 C1348.78,426.414 1353.43,425.019 1355.03,424.248 C1355.03,424.248 1363.36,420.242 1363.36,420.242 C1380.02,407.744 1393.63,391.67 1402.17,373.764 C1402.91,373.718 1403.41,374.876 1402.93,375.455 C1402.67,375.767 1402.52,376.608 1402.29,377.092 C1396.05,390.009 1387.12,400.729 1376.87,410.839 C1369.71,417.908 1362,424.864 1351.97,426.93 C1344.92,428.38 1339.72,422.707 1336.43,417.424 C1333.87,413.326 1328.01,410.044 1329.76,405.097 C1331.54,408.999 1333.96,412.645 1337.63,415.152 C1343.16,395.949 1364.35,375.501 1379.94,363.148 C1384.09,359.856 1388.66,357.867 1393.62,356.48 C1393.62,356.48 1387.06,349.026 1387.06,349.026 C1388.22,349.493 1389.02,352.549 1391.5,351.256 C1391.5,351.256 1395.41,356.581 1395.41,356.581 C1398.3,358.221 1402.46,359.46 1402.61,363.025 Z " fill="rgb(8,8,7)"/><path d="M1292.2,296.781 C1290.11,300.516 1287.95,304.515 1287.43,308.792 C1287.43,308.792 1285.92,321.13 1285.92,321.13 C1284.26,334.66 1273.97,344.936 1261.85,348.77 C1261.85,348.77 1260.12,349.046 1260.12,349.046 C1253.3,351.26 1246.19,351.363 1239.15,350.087 C1238.94,349.517 1238.78,347.942 1240.09,347.96 C1258.18,348.21 1275.96,336.145 1280.06,318.139 C1282.84,305.955 1287.08,294.57 1297.38,287.652 C1297.38,287.652 1292.2,296.781 1292.2,296.781 Z " fill="rgb(95,178,150)"/><path d="M1253,110.812 C1227.45,110.563 1204.26,122.028 1188.19,143.318 C1176.86,158.332 1172.34,177.162 1171.68,194.794 C1171.68,194.794 1171.42,178.434 1171.42,178.434 C1171.42,178.434 1172.09,173.969 1172.09,173.969 C1172.9,168.562 1174.34,163.18 1176.37,158.152 C1182.39,143.255 1192.43,130.535 1206.36,121.272 C1215.35,115.301 1225.83,111.992 1236.38,110.286 C1236.38,110.286 1253,110.812 1253,110.812 Z " fill="rgb(210,246,234)"/><path d="M1395.62,226.301 C1395.62,226.301 1398.14,229.691 1398.14,229.691 C1398.32,230.974 1397.19,231.842 1395.92,230.93 C1387.85,233.492 1382.19,239.451 1379.22,247.494 C1379.83,247.958 1380.07,249.816 1379.32,250.116 C1378.74,250.351 1377.24,249.876 1376.93,249.392 C1376.62,248.906 1377.79,247.22 1377.62,246.574 C1377.62,246.574 1373.93,232.632 1373.93,232.632 C1373.22,229.949 1376.78,227.488 1378.66,225.723 C1383.81,220.912 1391.79,221.146 1395.62,226.301 Z " fill="rgb(253,253,253)"/><path d="M1162.89,383.082 C1158.48,384.381 1155.1,387.614 1153.24,392.361 C1147.53,406.945 1146.32,423.055 1150.17,437.966 C1152.99,448.93 1160.62,458.511 1170.81,464.155 C1181.06,469.832 1190.04,465.05 1196.42,455.958 C1196.07,462.515 1188.98,465.374 1183.26,468.556 C1181.71,470.554 1181.14,474.22 1178.04,474.341 C1179.04,472.326 1181.04,471.536 1181.07,468.625 C1171.03,468.389 1166.33,463.657 1159.73,458.077 C1150.38,448.541 1146.02,435.886 1145.95,421.972 C1145.89,408.864 1147.92,396.161 1155.37,385.038 C1151.03,382.996 1147.54,385.246 1144.75,388.031 C1146.41,382.553 1152.44,381.725 1157.58,383.645 C1158.34,383.638 1159.88,382.291 1160.52,381.961 C1161.27,381.576 1162.73,381.991 1162.89,383.082 Z " fill="rgb(12,11,10)"/><path d="M1126.1,251.036 C1125.27,251.473 1124.42,249.899 1125,249.586 C1124.85,249.67 1131.47,228.722 1155.3,225.356 C1162.57,224.33 1169.34,225.787 1177.79,227.189 C1177.79,227.189 1170.89,204.949 1170.89,204.949 C1170.16,202.57 1168.76,199.41 1171.03,197.884 C1173.33,208.1 1175.56,218.386 1180.98,228.045 C1180.98,228.045 1190.73,231.439 1190.73,231.439 C1191.33,231.65 1190.98,233.229 1190.53,233.211 C1185.98,233.031 1172.52,225.274 1155.37,227.352 C1141.6,229.019 1130.45,238.282 1126.1,251.036 Z " fill="rgb(4,6,8)"/><path d="M1256.96,109.985 C1255.87,109.9 1253.65,109.34 1253,110.812 C1253,110.812 1236.38,110.286 1236.38,110.286 C1225.83,111.992 1215.35,115.301 1206.36,121.272 C1192.43,130.535 1182.39,143.255 1176.37,158.152 C1173.68,156.148 1176.16,154.223 1177.1,152.198 C1180.85,144.116 1185.64,137.981 1191.72,131.646 C1203.79,119.08 1218.87,110.49 1236.35,108.438 C1236.35,108.438 1258.92,108.014 1258.92,108.014 C1258.99,109.212 1257.88,109.199 1257.52,109.034 C1257.22,108.894 1256.72,109.651 1256.96,109.985 Z " fill="rgb(6,7,8)"/><path d="M1140.19,403.078 C1140.19,403.078 1139.34,407.395 1139.34,407.395 C1139.34,407.395 1139.46,430.549 1139.46,430.549 C1139.46,430.549 1140.38,437.526 1140.38,437.526 C1143.62,448.993 1149.54,459.309 1158.84,466.078 C1158.84,466.078 1164.06,469.878 1164.06,469.878 C1163.16,470.999 1161.78,471.051 1161.51,470.01 C1161.53,470.068 1152.98,463.971 1147.17,455.907 C1141.87,448.557 1138.76,440.043 1137.49,430.584 C1137.49,430.584 1137.39,406.726 1137.39,406.726 C1137.39,406.726 1138.07,403.584 1138.07,403.584 C1138.2,403.004 1139.37,402.601 1140.19,403.078 Z " fill="rgb(3,3,4)"/><path d="M1121.33,320.297 C1122.46,321.786 1123.38,323.574 1124.42,326.213 C1111.29,327.123 1109.73,316.406 1108.94,304.657 C1112.21,307.967 1112.99,312.685 1115.04,317.129 C1116.05,318.685 1119.21,321.467 1121.33,320.297 Z " fill="rgb(214,210,206)"/><path d="M1160.02,316.857 C1160.18,320.948 1158.39,324.589 1154.62,326.321 C1151.06,327.96 1146.29,327.806 1144.44,323.994 C1144.44,323.994 1152.27,323.23 1152.27,323.23 C1154.46,323.016 1154.37,321.08 1155.06,320.262 C1159.25,315.298 1153.99,310.535 1155.8,304.443 C1158.69,308.662 1159.86,312.728 1160.02,316.857 Z " fill="rgb(221,220,216)"/><path d="M1187.94,424.33 C1194.17,428.973 1200.74,440.504 1199.7,449.144 C1198.83,448.112 1198.26,445.818 1198.04,444.617 C1195.42,430.747 1184.55,419.615 1168.2,420.477 C1175.05,416.673 1182.83,420.527 1187.94,424.33 Z " fill="rgb(9,9,9)"/><path d="M1373.71,280.088 C1370.44,280.617 1367.49,279.589 1364.92,278.402 C1364.52,274.998 1365.94,272.006 1367.96,269.887 C1367.59,273.108 1374.01,275.052 1380.14,275.884 C1378.57,278.753 1376.14,279.693 1373.71,280.088 Z " fill="rgb(216,215,213)"/><path d="M1362.77,287.268 C1358,293.071 1350.64,297.074 1342.52,298.63 C1336.4,299.804 1329.92,296.431 1324.65,294.004 C1325.29,292.228 1326.35,293.561 1326.46,293.912 C1326.55,294.189 1327.4,293.32 1327.03,292.982 C1331.54,295.555 1337.29,297.528 1342.61,296.673 C1353,295.005 1354.72,291.523 1362.77,287.268 Z " fill="rgb(6,8,10)"/><path d="M1386.4,271.994 C1395.04,268.76 1401.53,261.606 1405,253.065 C1405.84,253.017 1406.5,253.923 1406.03,254.978 C1402.27,263.469 1395.62,270.707 1386.27,273.942 C1384.84,273.19 1386.52,272.255 1386.4,271.994 Z " fill="rgb(7,7,9)"/><path d="M1172.09,173.969 C1172.09,173.969 1171.42,178.434 1171.42,178.434 C1171.42,178.434 1171.68,194.794 1171.68,194.794 C1170.32,195.09 1170.27,195.971 1169.19,196.996 C1169.19,196.996 1169.37,178.394 1169.37,178.394 C1169.39,176.763 1170.57,175.244 1169.88,172.87 C1169.88,172.87 1172.09,173.969 1172.09,173.969 Z " fill="rgb(1,2,5)"/><path d="M1351.26,254.154 C1353.02,259.332 1356.04,263.465 1360.37,267.821 C1356.39,267.823 1355.5,264.306 1353.2,262.944 C1352.54,262.558 1351.51,263.588 1351.1,264.198 C1351.52,260.043 1350.81,257.343 1349.03,253.572 C1348.27,251.951 1350.18,252.059 1350.01,252.62 C1349.4,254.715 1351.22,254.369 1351.26,254.154 Z " fill="rgb(12,12,12)"/><path d="M1142.92,323.885 C1142.92,323.885 1145.08,326.795 1145.08,326.795 C1144.59,327.385 1143.42,327.186 1143.01,326.905 C1139.91,323.69 1137.45,319.189 1137,313.997 C1137,313.997 1142.92,323.885 1142.92,323.885 Z " fill="rgb(16,14,14)"/><path d="M1239.15,350.087 C1246.19,351.363 1253.3,351.26 1260.12,349.046 C1260.35,350.299 1259.57,350.931 1259.04,351.542 C1258.93,351.66 1249.88,353.684 1243.93,352.617 C1243.06,355.004 1242.86,356.772 1242.74,359.076 C1241.28,385.885 1228.46,401.787 1202.75,407.745 C1202,408.573 1200.86,410.075 1200.06,410.302 C1200.24,409.332 1200.35,408.427 1199.39,408.219 C1197.1,407.724 1196.93,410.718 1196.01,411.567 C1194.24,413.21 1189.67,410.974 1188.24,407.68 C1184.5,399.07 1184.99,385.074 1190.69,387.028 C1190.95,387.542 1191.05,389.397 1191.7,389.493 C1192.28,389.579 1193.51,389.757 1193.93,389.379 C1195.06,388.369 1192.05,383.553 1188.39,382.147 C1185.66,381.1 1183.58,383.497 1181.65,384.534 C1178.46,386.245 1174.8,383.926 1172.07,383.181 C1171.76,382.22 1173.29,381.485 1173.88,381.508 C1179.03,385.35 1182.6,381.373 1187.11,380.423 C1191,379.602 1195.43,385.371 1196.43,388.827 C1223.68,388.783 1223.7,365.476 1224.46,365.027 C1224.83,364.812 1225.56,364.913 1226.05,364.735 C1225,375.529 1218.99,385.449 1208.04,388.933 C1208.04,388.933 1188.06,392.244 1188.06,392.244 C1187.39,397.317 1187.69,402.822 1190.65,407.106 C1220.08,406.278 1238.38,390.577 1240.75,362.411 C1235.34,363.178 1231.04,360.416 1227.34,356.905 C1226.21,358.537 1226.53,359.831 1226.43,360.915 C1225.83,360.435 1224.65,361.052 1224.75,361.504 C1224.85,361.956 1225.57,362.883 1224.45,364.077 C1223.02,361.082 1225.4,358.162 1226.19,356.228 C1226,353.626 1224.98,350.561 1225.4,347.871 C1225.4,347.871 1214.95,337.03 1214.95,337.03 C1213.32,335.343 1208.89,324.771 1208.93,322.494 C1208.94,321.685 1208.99,320.849 1210.36,320.913 C1212.66,335.641 1224.26,347.382 1239.15,350.087 Z " fill="rgb(1,1,1)"/><path d="M1126.01,252.027 C1124.58,254.694 1124.76,257.418 1124.76,261.534 C1129.57,258.625 1134.17,259.316 1138.54,261.687 C1139.28,260.098 1139,259.188 1138.99,258.563 C1138.99,258.167 1139.5,257.656 1140.03,257.891 C1138.56,268.98 1146.32,264.849 1149.65,276.709 C1154.8,279.576 1161.5,282.225 1164.88,287.914 C1167.43,292.216 1166.92,305.102 1161.09,310.904 C1161.85,314.074 1162.89,318.274 1161.37,321.029 C1161.05,319.294 1161.42,317.45 1160.02,316.857 C1159.86,312.728 1158.69,308.662 1155.8,304.443 C1153.99,310.535 1159.25,315.298 1155.06,320.262 C1153.5,318.644 1154.85,316.504 1154.63,315.048 C1153.41,306.89 1151.02,297.929 1156.38,295.297 C1157.37,298.06 1154.09,301.451 1155.6,302.236 C1156.72,302.817 1158.27,300.779 1159.51,300.792 C1160.26,300.8 1160.58,302.072 1160.03,302.385 C1160.03,302.385 1158.35,303.348 1158.35,303.348 C1158.16,305.068 1159.53,307.399 1160.8,308.671 C1163.98,304.54 1163.59,300.696 1164.09,297.019 C1164.88,291.112 1163.39,286.482 1157.83,283.079 C1151.06,278.941 1143.93,276.333 1135.43,275.191 C1139.35,272.414 1143,274.762 1147.11,275.387 C1146.26,270.836 1143.05,267.942 1138.93,267.117 C1130.91,265.515 1122.74,267.864 1117.39,273.209 C1113.2,271.623 1122.39,270.875 1122.82,263.816 C1122.82,263.816 1123.4,254.339 1123.4,254.339 C1123.46,253.485 1124.07,252.398 1124.5,252.02 C1124.78,251.767 1125.68,251.924 1126.01,252.027 Z " fill="rgb(2,2,2)"/><path d="M1351.54,267.721 C1354.98,272.776 1359.75,276.023 1364.92,278.402 C1367.49,279.589 1370.44,280.617 1373.71,280.088 C1373.95,281.435 1375.65,280.474 1376.04,281.866 C1376.04,281.866 1368.15,281.57 1368.15,281.57 C1366.78,284.801 1364.26,285.802 1362.07,285.619 C1357.65,283.766 1354.06,281.1 1351.8,275.433 C1347.73,279.184 1343.19,283.417 1337.28,282.373 C1330.59,281.189 1325.97,275.39 1321.64,270.005 C1318.37,272.76 1315.23,275.862 1312.41,280.273 C1315.3,284.648 1318.98,288.391 1323.18,290.786 C1323.26,291.309 1322.84,292.048 1322.53,291.994 C1322.24,291.941 1321.67,291.699 1321.92,290.508 C1321.42,292.841 1312.89,285.101 1307.67,277.388 C1307.67,277.388 1295.31,295.301 1295.31,295.301 C1294.96,295.821 1294.34,297.579 1293.58,297.84 C1293.13,297.996 1292.52,296.994 1292.2,296.781 C1292.2,296.781 1297.38,287.652 1297.38,287.652 C1307.56,274.903 1315.9,259.688 1322.88,244.832 C1323.32,245.649 1324.3,246.523 1323.79,247.556 C1323.79,247.556 1317.74,259.852 1317.74,259.852 C1324.04,272.762 1334.99,285.774 1345.96,277.937 C1349.86,275.157 1351.35,272.634 1351.54,267.721 Z " fill="rgb(1,1,1)"/><path d="M1395.62,226.301 C1391.79,221.146 1383.81,220.912 1378.66,225.723 C1376.78,227.488 1373.22,229.949 1373.93,232.632 C1373.93,232.632 1377.62,246.574 1377.62,246.574 C1377.79,247.22 1376.62,248.906 1376.93,249.392 C1377.24,249.876 1378.74,250.351 1379.32,250.116 C1380.07,249.816 1379.83,247.958 1379.22,247.494 C1382.19,239.451 1387.85,233.492 1395.92,230.93 C1397.19,231.842 1398.32,230.974 1398.14,229.691 C1398.14,229.691 1402.51,233.574 1402.51,233.574 C1408.5,238.897 1410.42,247.983 1405.09,251.135 C1406.56,247.911 1406.27,244.1 1405.37,240.872 C1404.53,237.855 1402.54,235.073 1400.21,234.125 C1392.37,230.924 1380.01,241.852 1381.97,251.665 C1382.34,253.521 1383.48,255.898 1384.98,256.565 C1390.24,258.905 1395.29,253.503 1399.26,247.273 C1399.75,246.799 1401.47,248.633 1400.48,249.739 C1400.48,249.739 1393.17,257.93 1393.17,257.93 C1390.09,258.795 1385.32,259.938 1382.43,258.567 C1382.43,258.567 1379.79,252.71 1379.79,252.71 C1379.19,251.373 1375.24,250.698 1373.93,251.625 C1369.85,254.507 1365.62,254.119 1361.91,250.965 C1357.57,247.267 1354.91,241.857 1354.16,235.9 C1354.08,235.244 1355.85,235.107 1355.97,235.823 C1356.76,240.458 1358.78,243.781 1360.91,246.994 C1362.34,249.152 1364.37,250.624 1366.64,251.179 C1369.46,251.865 1373.41,251.092 1374.06,248.195 C1376.17,238.816 1370.97,229.263 1361.99,226.337 C1364.25,221.61 1368.21,217.442 1372.91,214.782 C1378.32,211.719 1383.26,216.031 1387.46,219.977 C1389.57,221.954 1395.4,221.703 1396.82,225.789 C1396.47,226.069 1396.06,226.165 1395.62,226.301 Z M1372.23,230.419 C1375.24,225.509 1379.11,222.249 1384.72,220.199 C1381.49,214.994 1375.26,214.559 1370.97,217.924 C1368.32,219.997 1366.2,221.95 1364.15,224.947 C1364.15,224.947 1372.23,230.419 1372.23,230.419 Z " fill="rgb(11,10,10)"/><path d="M1306.11,245.93 C1308.55,237.461 1310.95,228.535 1310.84,218.976 C1310.84,218.976 1310.59,196.293 1310.59,196.293 C1309.21,180.906 1304.74,165.826 1293.47,154.887 C1292.59,155.639 1292.82,156.826 1292.99,157.362 C1293.1,157.754 1291.44,158.176 1291.23,157.821 C1287.17,151.033 1279.94,147.737 1272.78,149.675 C1268.93,150.717 1266.17,152.719 1263.27,156.312 C1262.65,154.152 1264.28,152.782 1265.02,151.989 C1270.86,145.729 1278.71,146.215 1287.15,149.087 C1275.83,139.482 1264.64,141.314 1259.47,138.427 C1256.91,136.999 1252.44,137.962 1248.7,138.253 C1250,141.92 1248.56,144.611 1245.78,147.248 C1245.78,147.248 1238.76,145.219 1238.76,145.219 C1229.32,142.493 1224.9,151.372 1217.6,152.411 C1190.74,175.416 1198.79,228.313 1228.31,242.606 C1228.31,242.606 1240.96,248.734 1240.96,248.734 C1250.18,257.532 1250.9,272.995 1240.12,281.138 C1236.16,284.136 1233.2,286.808 1233.11,291.782 C1230.56,291.689 1230.56,285.502 1238.15,280.103 C1243.16,276.532 1246.56,270.313 1246.03,264.036 C1245.17,253.853 1237.21,247.689 1228.13,244.657 C1220.03,241.954 1214.3,235.124 1209.74,228.264 C1194.65,205.573 1194.77,170.677 1216.15,150.66 C1214.59,147.405 1214.93,144.47 1217.66,141.647 C1225.52,133.509 1237.02,130.978 1246.91,136.715 C1246.91,136.715 1259.15,135.857 1259.15,135.857 C1261.63,129.171 1269.08,126.064 1274.66,125.168 C1281.86,124.012 1288.58,126.688 1293.29,131.575 C1295.45,133.819 1295.98,136.493 1294.09,138.551 C1288.98,144.105 1281.36,130.305 1268.86,138.392 C1293.02,143.313 1308.6,165.651 1311.53,188.426 C1311.53,188.426 1312.56,196.449 1312.56,196.449 C1312.56,196.449 1312.72,221.026 1312.72,221.026 C1311.87,234.382 1309.13,247.394 1303.23,259.203 C1298.41,268.85 1292.6,279.279 1282.53,283.688 C1294.43,272.25 1301.95,260.328 1306.11,245.93 Z " fill="rgb(0,0,1)"/><path d="M1286.01,161.573 C1301.19,168.021 1306.8,188.719 1296.83,202.069 C1292.41,207.989 1285.35,211.009 1277.94,209.584 C1271.75,208.394 1265.95,203.727 1262.66,196.739 C1260.98,203.535 1256.8,209.086 1250.78,212.763 C1245.11,216.229 1238.48,215.697 1232.92,212.168 C1224.18,206.62 1220.3,197.302 1220.94,186.962 C1221.58,176.598 1228.17,167.219 1238.72,165.722 C1248.08,164.394 1256.2,170.329 1260.32,179.243 C1263.5,166.131 1274.88,156.844 1286.01,161.573 Z M1295.6,199.771 C1303.61,188.459 1299.65,172.346 1288.12,164.988 C1281.23,160.597 1273.2,162.217 1268.15,168.227 C1259.6,178.396 1260.29,193.723 1269.95,202.89 C1274,206.738 1278.84,208.376 1284,207.64 C1288.29,207.027 1292.28,204.46 1295.6,199.771 Z M1257.71,202.62 C1262.47,193.753 1261.25,182.037 1254.82,174.399 C1248.12,166.426 1236.83,165.258 1229.3,172.479 C1223.13,178.4 1221.38,187.317 1223.74,196.185 C1225.53,202.881 1230.77,210.603 1239.21,212.614 C1246.75,214.41 1254.08,209.374 1257.71,202.62 Z " fill="rgb(7,9,7)"/><path d="M1233.11,291.782 C1233.2,286.808 1236.16,284.136 1240.12,281.138 C1250.9,272.995 1250.18,257.532 1240.96,248.734 C1248.33,252.304 1256.37,257.498 1257.35,267.101 C1258.77,281.169 1246.4,292.265 1233.11,291.782 Z " fill="rgb(102,181,156)"/><path d="M1265.02,151.989 C1258.87,149.059 1252.1,149.075 1245.78,147.248 C1248.56,144.611 1250,141.92 1248.7,138.253 C1252.44,137.962 1256.91,136.999 1259.47,138.427 C1264.64,141.314 1275.83,139.482 1287.15,149.087 C1278.71,146.215 1270.86,145.729 1265.02,151.989 Z " fill="rgb(107,185,159)"/><path d="M1222.09,164.006 C1221.81,165.188 1221.63,165.835 1221.02,167.023 C1220.5,167.177 1220.01,166.792 1220,166.472 C1220,166.472 1219.98,164.976 1219.98,164.976 C1219.95,163.451 1220.96,161.319 1222.15,160.162 C1223.83,158.53 1225.88,157.138 1227.05,155.015 C1227.35,154.995 1227.77,154.928 1227.99,154.772 C1228.59,154.657 1229.06,155.302 1228.83,155.57 C1228.83,155.57 1227.77,156.793 1227.77,156.793 C1225.63,159.247 1222.79,161.111 1222.09,164.006 Z " fill="rgb(1,2,1)"/><path d="M1242.98,152.093 C1243.14,152.527 1243.96,153.121 1243.91,153.644 C1243.86,154.094 1242.66,154.363 1242.49,154.024 C1241.37,151.735 1236.53,154.198 1235.05,152.05 C1236.06,152.029 1236.94,151.772 1237.89,150.751 C1239.62,152.457 1241.52,151.805 1242.98,152.093 Z " fill="rgb(3,2,1)"/><path d="M1248.7,157.889 C1247.75,155.805 1245.95,155.249 1248.05,154.732 C1248.53,155.081 1249.02,155.862 1250.04,155.966 C1251.49,156.113 1251.3,157.622 1250.53,157.978 C1250.18,158.14 1249.19,158.308 1248.7,157.889 Z " fill="rgb(4,3,2)"/><path d="M1221.02,167.023 C1220.87,167.351 1220.78,168.003 1220.33,168.041 C1218.98,168.151 1218.97,167.034 1218.92,166.501 C1218.84,165.519 1219.14,165.01 1219.98,164.976 C1219.98,164.976 1220,166.472 1220,166.472 C1220.01,166.792 1220.5,167.177 1221.02,167.023 Z " fill="rgb(45,67,56)"/><path d="M1235.05,152.05 C1236.53,154.198 1241.37,151.735 1242.49,154.024 C1242.66,154.363 1243.86,154.094 1243.91,153.644 C1243.96,153.121 1243.14,152.527 1242.98,152.093 C1244.71,152.432 1246.63,153.683 1248.05,154.732 C1245.95,155.249 1247.75,155.805 1248.7,157.889 C1241.8,151.993 1229.97,152.216 1224.41,161.496 C1223.82,162.473 1223.29,163.849 1222.09,164.006 C1222.79,161.111 1225.63,159.247 1227.77,156.793 C1227.77,156.793 1228.83,155.57 1228.83,155.57 C1229.06,155.302 1228.59,154.657 1227.99,154.772 C1229.96,153.354 1232.53,152.103 1235.05,152.05 Z " fill="rgb(45,67,56)"/><path d="M1222.15,160.162 C1223.25,158.043 1225.06,156.276 1227.05,155.015 C1225.88,157.138 1223.83,158.53 1222.15,160.162 Z " fill="rgb(45,67,56)"/><path d="M1306.11,245.93 C1305.12,245.918 1304.5,245.147 1304.64,244.025 C1306.55,228.546 1307.03,213.826 1299.03,200.63 C1298.38,201.196 1297.6,202.207 1296.83,202.069 C1306.8,188.719 1301.19,168.021 1286.01,161.573 C1287.04,161.265 1287.26,160.076 1286.22,159.928 C1282.72,155.717 1278.36,153.043 1273.08,151.863 C1272.74,151.572 1272.8,149.945 1272.78,149.675 C1279.94,147.737 1287.17,151.033 1291.23,157.821 C1291.44,158.176 1293.1,157.754 1292.99,157.362 C1292.82,156.826 1292.59,155.639 1293.47,154.887 C1304.74,165.826 1309.21,180.906 1310.59,196.293 C1310.59,196.293 1310.84,218.976 1310.84,218.976 C1310.95,228.535 1308.55,237.461 1306.11,245.93 Z " fill="rgb(104,182,157)"/><path d="M1196.82,452.52 C1196.38,453.705 1196.47,455.092 1196.42,455.958 C1190.04,465.05 1181.06,469.832 1170.81,464.155 C1160.62,458.511 1152.99,448.93 1150.17,437.966 C1150.81,437.993 1151.52,437.217 1151.66,436.532 C1159.01,452.149 1174.05,462.491 1189.24,458.312 C1192.59,457.389 1194.79,454.622 1196.82,452.52 Z " fill="rgb(189,186,182)"/><path d="M1178.04,474.341 C1172.95,474.538 1168.34,472.991 1164.06,469.878 C1164.06,469.878 1158.84,466.078 1158.84,466.078 C1159.34,466.093 1159.97,465.578 1159.77,465.435 C1159.52,465.26 1158.7,464.325 1158.95,464.258 C1158.95,464.258 1164.5,462.765 1164.5,462.765 C1162.23,461.326 1161.15,459.523 1159.73,458.077 C1166.33,463.657 1171.03,468.389 1181.07,468.625 C1181.04,471.536 1179.04,472.326 1178.04,474.341 Z " fill="rgb(209,210,207)"/><path d="M1188.19,418.451 C1186.85,420.119 1184.49,419.765 1182.56,418.214 C1181.44,417.316 1179.08,416.02 1180.68,413.267 C1183.12,415.898 1183.8,417.219 1188.19,418.451 Z " fill="rgb(14,13,11)"/><path d="M1164.09,297.019 C1163.59,300.696 1163.98,304.54 1160.8,308.671 C1159.53,307.399 1158.16,305.068 1158.35,303.348 C1158.35,303.348 1160.03,302.385 1160.03,302.385 C1160.58,302.072 1160.26,300.8 1159.51,300.792 C1158.27,300.779 1156.72,302.817 1155.6,302.236 C1154.09,301.451 1157.37,298.06 1156.38,295.297 C1157.54,297.569 1161.86,298.411 1164.09,297.019 Z " fill="rgb(223,221,219)"/><path d="M1374.06,248.195 C1373.41,251.092 1369.46,251.865 1366.64,251.179 C1364.37,250.624 1362.34,249.152 1360.91,246.994 C1363.28,244.964 1366.65,249.453 1372.74,245.23 C1372.93,247.295 1373.22,247.936 1374.06,248.195 Z " fill="rgb(226,224,221)"/><path d="M1405.37,240.872 C1405.62,242.435 1404.32,243.291 1403.41,242.091 C1393.51,243.65 1393.2,257.914 1381.97,251.665 C1380.01,241.852 1392.37,230.924 1400.21,234.125 C1402.54,235.073 1404.53,237.855 1405.37,240.872 Z " fill="rgb(253,253,253)"/><path d="M1372.23,230.419 C1372.23,230.419 1364.15,224.947 1364.15,224.947 C1366.2,221.95 1368.32,219.997 1370.97,217.924 C1375.26,214.559 1381.49,214.994 1384.72,220.199 C1379.11,222.249 1375.24,225.509 1372.23,230.419 Z " fill="rgb(253,253,253)"/><path d="M1405.09,251.135 C1404.88,251.592 1404.95,252.524 1405,253.065 C1401.53,261.606 1395.04,268.76 1386.4,271.994 C1381.44,273.853 1375.19,274.187 1370.95,271.255 C1371.71,268.877 1374.39,269.437 1376,269.113 C1383.51,267.596 1390.39,264.498 1393.17,257.93 C1393.17,257.93 1400.48,249.739 1400.48,249.739 C1401.47,248.633 1399.75,246.799 1399.26,247.273 C1395.29,253.503 1390.24,258.905 1384.98,256.565 C1383.48,255.898 1382.34,253.521 1381.97,251.665 C1393.2,257.914 1393.51,243.65 1403.41,242.091 C1404.32,243.291 1405.62,242.435 1405.37,240.872 C1406.27,244.1 1406.56,247.911 1405.09,251.135 Z " fill="rgb(207,203,200)"/><path d="M1257.71,202.62 C1254.08,209.374 1246.75,214.41 1239.21,212.614 C1230.77,210.603 1225.53,202.881 1223.74,196.185 C1221.38,187.317 1223.13,178.4 1229.3,172.479 C1236.83,165.258 1248.12,166.426 1254.82,174.399 C1261.25,182.037 1262.47,193.753 1257.71,202.62 Z M1257.47,188.359 C1256.38,181.419 1251.31,178.186 1245.38,178.956 C1239.21,179.757 1236.53,185.708 1237.71,192.023 C1238.94,198.56 1243.74,202.449 1250.41,201.126 C1255.5,200.116 1258.49,194.88 1257.47,188.359 Z " fill="rgb(253,253,253)"/><path d="M1295.6,199.771 C1292.28,204.46 1288.29,207.027 1284,207.64 C1278.84,208.376 1274,206.738 1269.95,202.89 C1260.29,193.723 1259.6,178.396 1268.15,168.227 C1273.2,162.217 1281.23,160.597 1288.12,164.988 C1299.65,172.346 1303.61,188.459 1295.6,199.771 Z M1292.37,194.828 C1297.62,191.363 1299.06,184.585 1296.29,180.099 C1293.3,175.261 1287.83,172.136 1282.44,174.609 C1277.02,177.099 1276.17,183.639 1277.9,188.913 C1279.09,192.557 1280.67,194.735 1283.62,195.979 C1286.35,197.131 1289.2,196.914 1292.37,194.828 Z " fill="rgb(252,253,253)"/><path d="M1257.47,188.359 C1258.49,194.88 1255.5,200.116 1250.41,201.126 C1243.74,202.449 1238.94,198.56 1237.71,192.023 C1236.53,185.708 1239.21,179.757 1245.38,178.956 C1251.31,178.186 1256.38,181.419 1257.47,188.359 Z M1242.29,183.338 C1240.43,183.895 1239.88,185.643 1240.23,187.327 C1240.53,188.765 1242.32,189.866 1243.92,188.679 C1244.84,187.998 1245.95,186.649 1245.55,184.993 C1245.32,184.026 1243.82,182.878 1242.29,183.338 Z " fill="rgb(1,1,1)"/><path d="M1292.37,194.828 C1289.2,196.914 1286.35,197.131 1283.62,195.979 C1280.67,194.735 1279.09,192.557 1277.9,188.913 C1276.17,183.639 1277.02,177.099 1282.44,174.609 C1287.83,172.136 1293.3,175.261 1296.29,180.099 C1299.06,184.585 1297.62,191.363 1292.37,194.828 Z M1282.99,183.705 C1284.89,182.652 1285.38,180.873 1284.91,179.573 C1284.44,178.303 1282.72,177.206 1281.33,178.156 C1279.65,179.302 1279.24,181.014 1279.58,182.511 C1279.84,183.669 1281.34,184.621 1282.99,183.705 Z " fill="rgb(0,0,1)"/><path d="M1242.29,183.338 C1243.82,182.878 1245.32,184.026 1245.55,184.993 C1245.95,186.649 1244.84,187.998 1243.92,188.679 C1242.32,189.866 1240.53,188.765 1240.23,187.327 C1239.88,185.643 1240.43,183.895 1242.29,183.338 Z " fill="rgb(252,252,251)"/><path d="M1282.99,183.705 C1281.34,184.621 1279.84,183.669 1279.58,182.511 C1279.24,181.014 1279.65,179.302 1281.33,178.156 C1282.72,177.206 1284.44,178.303 1284.91,179.573 C1285.38,180.873 1284.89,182.652 1282.99,183.705 Z " fill="rgb(253,252,251)"/></svg>