<svg xmlns="http://www.w3.org/2000/svg" viewBox="846.8593274565945 1053.1284976039904 370.4171967976125 418.4515023960096"><path d="M1128.88,1194.98 C1128.8,1195.32 1128.8,1195.67 1128.9,1195.98 C1121.59,1219.04 1108.54,1241.23 1092.35,1259.76 C1090.32,1259.57 1089.03,1261.36 1087.7,1262.59 C1080.64,1269.12 1077.5,1277.73 1074.55,1286.62 C1069.21,1302.73 1055,1314.23 1038.13,1314.76 C1035.5,1314.84 1033.6,1314.61 1031.79,1316.62 C1013.56,1311.74 1002.87,1294.56 1004.63,1277.79 C1004.63,1277.79 1005.5,1269.53 1005.5,1269.53 C1005.5,1269.53 1005.55,1244.53 1005.55,1244.53 C1004.36,1228.97 997.619,1216.78 988.047,1204.9 C979.379,1194.14 973.929,1179.05 974.55,1166.34 C974.55,1166.34 975.43,1148.31 975.43,1148.31 C981.215,1111.69 1011.59,1082.98 1048.84,1080.84 C1048.84,1080.84 1060.06,1081 1060.06,1081 C1060.88,1081.01 1061.09,1080.44 1061.01,1079.77 C1085.15,1082.86 1107.06,1095.98 1120.16,1117.85 C1129.9,1134.11 1134.79,1153.41 1132.57,1172.12 C1132.57,1172.12 1131.04,1184.96 1131.04,1184.96 C1131.04,1184.96 1128.88,1194.98 1128.88,1194.98 Z M1029.9,1256.93 C1029.65,1256.26 1030.79,1257.82 1031.27,1258.47 C1043.82,1258.17 1053.99,1247.92 1054.64,1235 C1053.54,1226.36 1047.82,1218.96 1039.92,1216.85 C1039.92,1216.85 1032.25,1211.77 1032.25,1211.77 C1024.7,1208.99 1018.84,1204.49 1014.19,1197.69 C996.359,1171.6 1000.77,1127.18 1030.94,1116.9 C1038.01,1114.49 1041.26,1121.46 1046.92,1118.03 C1049.47,1116.49 1052.88,1117.11 1056.03,1117.77 C1056.03,1117.77 1070.89,1120.87 1070.89,1120.87 C1078.55,1122.47 1089.45,1129.62 1086.82,1132.69 C1078.88,1129.81 1070.13,1132.95 1064.71,1139.84 C1054.95,1152.24 1058.32,1170.7 1071.95,1178.86 C1080.17,1183.78 1089.45,1181.42 1095.73,1174.77 C1095.73,1174.77 1098.44,1171.91 1098.44,1171.91 C1103.98,1184.81 1105.58,1198.58 1102.86,1213.01 C1102.66,1214.09 1102.83,1214.93 1104.4,1215.22 C1100.28,1226.17 1095.24,1236.84 1086.79,1245.78 C1084.29,1248.44 1080.5,1249.51 1078.84,1253.85 C1084.57,1251.45 1089.02,1246.36 1093.1,1241.01 C1111.33,1217.07 1115.59,1185 1111.55,1155.71 C1109.79,1142.92 1104.72,1131.14 1094.85,1122.15 C1098.83,1121.42 1100.83,1118.77 1100.26,1114.84 C1093.39,1106.93 1082.71,1103.76 1072.72,1108.03 C1062.76,1105 1052.35,1104.55 1042.24,1107.48 C1032.71,1103.95 1023.26,1106.9 1016.2,1113.2 C1015.04,1114.53 1014.59,1116 1014.73,1117.48 C1014.89,1119.2 1015.83,1120.54 1017.54,1121.82 C997.844,1140.61 997.444,1175.26 1011.26,1196.8 C1015,1202.64 1019.93,1208.74 1026.41,1211.29 C1033.51,1214.09 1038.92,1217.83 1041.89,1225.28 C1045.33,1233.96 1041.6,1243.55 1032.92,1247.9 C1029.19,1249.77 1026.68,1253.85 1027.96,1258.03 C1028.67,1258.87 1030.29,1257.98 1029.9,1256.93 Z M1044.36,1179.72 C1058.75,1171.72 1061.93,1152.45 1051.88,1140.35 C1047.64,1135.24 1042.26,1132.31 1036.42,1132.01 C1030.27,1131.71 1024.58,1134.48 1020.18,1139.31 C1009.85,1150.64 1011.57,1168.65 1023.94,1178.05 C1029.77,1182.48 1037.45,1183.56 1044.36,1179.72 Z " fill="rgb(138,212,186)"/><path d="M1039.94,1404.8 C1037.93,1409.5 1035.27,1412.66 1036,1416.44 C1036.47,1418.9 1037.94,1421.65 1040.79,1423.29 C1040.79,1423.29 1042.92,1424.51 1042.92,1424.51 C1043.44,1424.81 1044.14,1425.09 1044.23,1423.54 C1053.89,1428.84 1064.59,1432.22 1075.99,1434.37 C1088.98,1435.9 1101.43,1434.52 1113.69,1430.73 C1115.86,1433.47 1124.2,1428.61 1127.23,1424.06 C1129.4,1420.8 1128.17,1416.11 1126.15,1413.24 C1126.27,1413.44 1127.14,1411.97 1127.49,1412.03 C1127.49,1412.03 1140.71,1414.19 1140.71,1414.19 C1148.03,1415.39 1154.16,1416.77 1161.09,1420.07 C1163.98,1421.44 1170.45,1422.86 1169.13,1428.1 C1167.22,1435.66 1128.98,1442.26 1113.7,1443.48 C1113.7,1443.48 1073.03,1446.71 1073.03,1446.71 C1073.03,1446.71 1038.91,1447.58 1038.91,1447.58 C1038.91,1447.58 974.027,1446.18 974.027,1446.18 C954.774,1445.76 936.666,1443.62 917.875,1440.59 C906.798,1438.81 896.076,1436.27 886.3,1430.75 C884.712,1429.85 882.783,1428.7 882.61,1427.48 C881.771,1421.53 893.023,1417.78 901.942,1415.91 C901.942,1415.91 921.036,1411.9 921.036,1411.9 C921.861,1411.72 923.418,1412.06 924.03,1411.44 C924.313,1411.15 924.337,1410.37 924.084,1409.92 C924.694,1409.97 925.175,1409.62 925.357,1408.94 C927.304,1412.15 929.327,1415.71 933.027,1416.97 C932.854,1417.3 932.864,1418.49 933.213,1418.66 C937.096,1420.61 941.011,1416.49 943.846,1415.2 C952.925,1416.01 960.347,1412.67 965.452,1406.06 C969.68,1408.3 974.478,1406.4 978.904,1406.24 C978.904,1406.24 1006.26,1405.22 1006.26,1405.22 C1006.26,1405.22 1037.65,1404.88 1037.65,1404.88 C1037.7,1403.31 1038.4,1401.81 1040.03,1401.77 C1039.97,1402.6 1040.39,1404.27 1039.94,1404.8 Z " fill="rgb(11,12,27)"/><path d="M1052.57,1373.03 C1053.24,1372.9 1054.49,1372.47 1055.01,1373.46 C1055.12,1373.66 1053.21,1378.19 1052.41,1378.46 C1051.87,1378.64 1050.67,1377.91 1050.55,1377.47 C1050.36,1376.82 1051.06,1375.92 1051.53,1376.02 C1052.1,1376.13 1052.82,1376.23 1053.36,1375.24 C1050.82,1374.72 1049.2,1375.47 1047.52,1377.08 C1055.72,1386.71 1075.41,1387.3 1075.53,1378.47 C1073.41,1379.08 1073.17,1380.12 1072.1,1381.11 C1072.21,1379 1073.21,1377.59 1074.14,1376.05 C1077.06,1376.41 1078.01,1379.01 1078.16,1380.56 C1078.43,1383.23 1077.93,1385.1 1075.55,1386.94 C1077.22,1388.38 1077.8,1389.44 1080.27,1390.02 C1080.27,1390.02 1078.79,1385.08 1078.79,1385.08 C1081.49,1385.18 1083.6,1385.35 1085.63,1386.95 C1080.13,1391.2 1074.38,1394.81 1071.93,1401.5 C1078.1,1395.62 1082.65,1389.26 1090.25,1387.23 C1090.25,1387.23 1095.97,1385.71 1095.97,1385.71 C1102.16,1384.06 1108.32,1384.9 1114.11,1387.06 C1114.11,1387.06 1116.27,1389.89 1116.27,1389.89 C1115.03,1390.01 1114.69,1390.91 1115.17,1391.72 C1120.57,1400.88 1116.94,1410.84 1107.73,1415.9 C1099.84,1420.24 1091.11,1422.32 1082.1,1424.25 C1081.65,1424.35 1081.56,1424.73 1081.72,1425.09 C1067.91,1423.38 1045.24,1416.71 1039.94,1404.8 C1040.39,1404.27 1039.97,1402.6 1040.03,1401.77 C1040.25,1398.91 1042.14,1394.81 1043.35,1391.64 C1045.11,1386.99 1038.78,1382.01 1042.61,1377.64 C1045.26,1374.62 1049,1373.64 1052.57,1373.03 Z M1074.77,1387.82 C1072.06,1389.48 1070.82,1389.26 1068.63,1388.19 C1067.78,1390.19 1070.12,1391.62 1071.55,1391.51 C1073.56,1391.36 1075.12,1390.32 1074.77,1387.82 Z " fill="rgb(253,253,253)"/><path d="M942.982,1259.01 C952.873,1256.34 957.967,1272.36 956.222,1283.64 C955.829,1286.18 953.534,1287.47 952.616,1289.24 C950.601,1289.35 947.988,1290.14 946.214,1288.88 C945.886,1286.64 947.905,1286.95 947.355,1284.27 C947.256,1283.78 946.447,1282.94 946.016,1283.49 C946.016,1283.49 944.782,1285.08 944.782,1285.08 C941.206,1286.9 935.389,1289.82 930.858,1288.33 C932.117,1285.15 940.663,1286.97 940.997,1280.88 C939.642,1281.88 938.283,1283.41 936.663,1283.74 C923.461,1286.4 924.011,1296.01 918.142,1300.1 C914.664,1302.53 911.45,1302.14 908.071,1299.53 C906.191,1298.08 905.676,1294.32 907.097,1290.99 C911.946,1279.63 924.629,1274.27 920.615,1268.74 C918.666,1271.99 918.162,1274.94 914.726,1277.63 C907.736,1262.94 892.109,1271.96 878.38,1269.69 C878.38,1269.69 873.14,1266.72 873.14,1266.72 C871.344,1264.51 869.643,1260.88 872.047,1257.99 C874.26,1255.32 878.34,1253.81 882.052,1253.79 C896.957,1253.7 911.773,1253.27 926.108,1255.73 C935.093,1257.28 941.985,1262.32 946.438,1270.49 C948.066,1263.02 937.784,1261.03 942.982,1259.01 Z M923.071,1267.89 C922.687,1266.04 922.334,1265.46 921.489,1265.11 C920.425,1264.67 920.4,1265.5 920.608,1266.09 C920.722,1266.42 919.993,1267.45 921.664,1267.6 C921.315,1268.88 923.115,1269.35 923.071,1267.89 Z " fill="rgb(253,253,253)"/><path d="M1169.92,1247.06 C1170.17,1247.37 1171.01,1247.55 1171.06,1246.55 C1174.42,1250.39 1175.55,1255.77 1173.28,1260.8 C1173.28,1260.8 1169.93,1257.82 1169.93,1257.82 C1169.44,1261.88 1173.07,1262.8 1175.53,1264.53 C1175.53,1264.53 1180.75,1268.22 1180.75,1268.22 C1182.96,1269.77 1183.63,1272.96 1182.79,1275.19 C1182.19,1276.81 1179.51,1279.26 1177.35,1278.79 C1173.38,1273.53 1167.95,1270.61 1162.22,1267.66 C1157.1,1265.02 1156.97,1258.1 1159.36,1252.65 C1153.19,1254.1 1156.49,1261.34 1156.41,1264.7 C1152.24,1266.86 1150.41,1271.34 1148.06,1274.33 C1146.31,1276.56 1139.65,1276.03 1139.54,1281.53 C1139.47,1284.58 1140.33,1288.18 1141.25,1291.67 C1135.3,1289.43 1131.93,1284.16 1128.79,1278.69 C1128.79,1278.69 1129.69,1270.71 1129.69,1270.71 C1125.58,1274.41 1126.37,1280.61 1127.09,1285.78 C1125.85,1286.43 1124.79,1285.77 1123.78,1285.82 C1119.58,1282.72 1118.12,1277.71 1120.11,1272.03 C1122.66,1264.76 1127.17,1258.64 1133.83,1254.78 C1135.12,1255.55 1135.91,1254.7 1136.16,1254.2 C1136.16,1254.2 1139.09,1253.79 1139.09,1253.79 C1139.09,1253.79 1140.53,1256.17 1140.53,1256.17 C1136.69,1258.93 1131.83,1261.76 1132.18,1267.31 C1137.75,1259.58 1152.08,1247.11 1159.1,1247.09 C1159.1,1247.09 1169.92,1247.06 1169.92,1247.06 Z " fill="rgb(252,253,253)"/><path d="M988.845,1219.99 C989.025,1225.42 991.602,1231.75 993.168,1237.25 C986.041,1250.81 976.238,1262.61 964.098,1272.06 C962.672,1267.01 961.214,1262.98 957.344,1258.6 C957.344,1258.6 973.124,1242.07 973.124,1242.07 C973.336,1241.85 973.415,1240.92 972.452,1240.88 C972.452,1240.88 987.504,1218.59 987.504,1218.59 C988.114,1219.71 988.719,1219.87 988.845,1219.99 Z " fill="rgb(134,208,183)"/><path d="M948.195,1327.03 C948.383,1326.85 948.677,1326.83 948.906,1326.93 C948.892,1327.37 949.057,1327.94 950.13,1328.53 C932.951,1345.95 923.253,1370.76 928.421,1394.7 C928.668,1396.17 926.59,1397.14 926.151,1397.92 C926.151,1397.92 925.543,1407.81 925.543,1407.81 C920.173,1399.73 918.46,1382.13 920.326,1373.1 C920.326,1373.1 922.19,1364.07 922.19,1364.07 C922.19,1364.07 926.362,1351.05 926.362,1351.05 C928.677,1343.83 940.04,1323.73 948.195,1327.03 Z " fill="rgb(252,253,252)"/><path d="M886.699,1292.47 C882.657,1292.8 878.604,1295.78 874.268,1292.65 C873.191,1291.87 871.906,1290.49 871.751,1289.46 C871.118,1285.26 881.433,1277.87 887.814,1273.88 C895.198,1269.26 908.975,1269.13 913.212,1278.06 C912.152,1279.93 911.773,1281.57 909.673,1283.51 C909.673,1283.51 908.515,1276.89 908.515,1276.89 C906.734,1280.14 902.93,1280.05 900.045,1282.14 C900.045,1282.14 886.699,1292.47 886.699,1292.47 Z " fill="rgb(250,249,249)"/><path d="M1126.15,1413.24 C1128.17,1416.11 1129.4,1420.8 1127.23,1424.06 C1124.2,1428.61 1115.86,1433.47 1113.69,1430.73 C1113.68,1430.42 1114.17,1429.81 1114.62,1429.92 C1116.38,1430.34 1122.6,1427.28 1125.69,1423.86 C1126.81,1420.36 1127.15,1417.48 1124.84,1414.09 C1121.44,1419.09 1116.99,1421.97 1111.85,1423.77 C1095.15,1429.6 1076.96,1428.25 1060.27,1421.75 C1052.8,1418.84 1045.91,1415.6 1039.87,1409.37 C1037.23,1411.49 1036.86,1415.31 1038.12,1418.17 C1039.01,1420.21 1041.76,1422.18 1044.23,1423.54 C1044.14,1425.09 1043.44,1424.81 1042.92,1424.51 C1042.92,1424.51 1040.79,1423.29 1040.79,1423.29 C1037.94,1421.65 1036.47,1418.9 1036,1416.44 C1035.27,1412.66 1037.93,1409.5 1039.94,1404.8 C1045.24,1416.71 1067.91,1423.38 1081.72,1425.09 C1094.65,1426.7 1117.66,1423.78 1122.09,1414.01 C1125.96,1405.48 1122.27,1395.82 1116.27,1389.89 C1116.27,1389.89 1114.11,1387.06 1114.11,1387.06 C1121.53,1389.82 1125.97,1399.34 1125.72,1407.84 C1125.65,1410.17 1124.88,1411.42 1126.15,1413.24 Z " fill="rgb(7,7,6)"/><path d="M1128.88,1194.98 C1128.88,1194.98 1131.04,1184.96 1131.04,1184.96 C1131.04,1184.96 1132.57,1172.12 1132.57,1172.12 C1134.79,1153.41 1129.9,1134.11 1120.16,1117.85 C1107.06,1095.98 1085.15,1082.86 1061.01,1079.77 C1051.46,1078.54 1041.97,1078.56 1031.85,1081.05 C994.615,1090.22 970.503,1125.29 973.163,1163.19 C973.23,1164.14 974.243,1165.14 974.55,1166.34 C973.929,1179.05 979.379,1194.14 988.047,1204.9 C997.619,1216.78 1004.36,1228.97 1005.55,1244.53 C1005.55,1244.53 1005.5,1269.53 1005.5,1269.53 C1005.5,1269.53 1004.63,1277.79 1004.63,1277.79 C1002.87,1294.56 1013.56,1311.74 1031.79,1316.62 C1044.24,1319.95 1058.25,1318.46 1068.65,1309.87 C1076.63,1303.29 1079.98,1295.08 1080.57,1285.4 C1081.13,1276.29 1086.81,1268.33 1091.84,1261.1 C1092.21,1260.5 1092.07,1259.98 1092.35,1259.76 C1108.54,1241.23 1121.59,1219.04 1128.9,1195.98 C1130.02,1195.98 1130.4,1196.82 1130.11,1197.51 C1130.11,1197.51 1129.13,1199.86 1129.13,1199.86 C1129.27,1202.01 1128.11,1203.54 1127.68,1204.75 C1122.89,1218.37 1115.61,1230.85 1107.06,1243.59 C1111.56,1250.81 1120.51,1255.36 1128.99,1256.49 C1130.17,1255.11 1131.94,1253.91 1132.84,1253.38 C1134.09,1252.65 1135.05,1253.29 1136.16,1254.2 C1135.91,1254.7 1135.12,1255.55 1133.83,1254.78 C1127.17,1258.64 1122.66,1264.76 1120.11,1272.03 C1118.12,1277.71 1119.58,1282.72 1123.78,1285.82 C1119.19,1286.04 1118.66,1277.35 1116.55,1274.4 C1111.66,1267.73 1101.48,1265.48 1097.26,1257.07 C1090.73,1264.12 1086.98,1271.66 1083.37,1279.42 C1080.6,1285.4 1086.25,1300.2 1064.77,1314.63 C1072.87,1327.96 1080.85,1349.66 1077.55,1362.52 C1077.55,1362.52 1074.54,1374.26 1074.54,1374.26 C1078.33,1375.71 1080.32,1378.89 1080.06,1382.83 C1080.06,1382.83 1090.25,1387.23 1090.25,1387.23 C1082.65,1389.26 1078.1,1395.62 1071.93,1401.5 C1074.38,1394.81 1080.13,1391.2 1085.63,1386.95 C1083.6,1385.35 1081.49,1385.18 1078.79,1385.08 C1078.79,1385.08 1080.27,1390.02 1080.27,1390.02 C1077.8,1389.44 1077.22,1388.38 1075.55,1386.94 C1077.93,1385.1 1078.43,1383.23 1078.16,1380.56 C1078.01,1379.01 1077.06,1376.41 1074.14,1376.05 C1073.21,1377.59 1072.21,1379 1072.1,1381.11 C1073.17,1380.12 1073.41,1379.08 1075.53,1378.47 C1075.41,1387.3 1055.72,1386.71 1047.52,1377.08 C1049.2,1375.47 1050.82,1374.72 1053.36,1375.24 C1052.82,1376.23 1052.1,1376.13 1051.53,1376.02 C1051.06,1375.92 1050.36,1376.82 1050.55,1377.47 C1050.67,1377.91 1051.87,1378.64 1052.41,1378.46 C1053.21,1378.19 1055.12,1373.66 1055.01,1373.46 C1054.49,1372.47 1053.24,1372.9 1052.57,1373.03 C1052.38,1372.34 1052.98,1371.53 1053.52,1371.64 C1053.52,1371.64 1055.94,1372.12 1055.94,1372.12 C1059.75,1364.49 1061.03,1356.63 1059.52,1348.64 C1056.2,1339.1 1053.36,1329.18 1046.67,1321.15 C1044.53,1319.22 1039.29,1320.56 1036.69,1320.57 C1033.87,1325.45 1034.48,1330.88 1032.57,1335.66 C1032.57,1335.66 1030.62,1340.55 1030.62,1340.55 C1029.68,1342.91 1028.46,1343.86 1026.99,1344.19 C1026.99,1344.19 1031.23,1333.97 1031.23,1333.97 C1034.55,1326.29 1025.95,1328.67 1018.46,1319.77 C1017.31,1332.65 1013.8,1345.57 1000.98,1345.76 C993.063,1345.88 985.494,1344.76 977.886,1341.66 C973.699,1345.83 972.429,1351.2 973.135,1357.14 C973.135,1357.14 986.024,1359.75 986.024,1359.75 C985.51,1361.96 983.305,1363.18 982.316,1364.29 C982.305,1363 983.432,1361.82 981.862,1360.08 C980.174,1361.98 978.919,1363.5 977.439,1363.89 C975.55,1364.4 973.201,1363.7 972.38,1361.53 C969.819,1354.77 971.231,1346.1 975.852,1340.96 C975.852,1340.96 979.971,1338.29 979.971,1338.29 C980.66,1338.1 981.809,1337.97 982.434,1338.2 C983.208,1338.49 982.957,1341.76 983.752,1341.49 C987.042,1340.36 985.385,1336.68 983.974,1335.03 C981.267,1331.86 976.982,1331.66 972.971,1334.52 C966.223,1332.99 962.586,1328.16 955.242,1329.95 C953.686,1330.33 951.713,1330.42 949.959,1332.08 C938.004,1343.42 931.648,1358.3 929.545,1374.01 C927.877,1386.47 930.169,1404.85 940.019,1411.02 C948.265,1416.18 959.549,1412.27 963.179,1404.45 C963.645,1404.19 964.479,1403.77 965.022,1403.87 C965.022,1403.87 965.452,1406.06 965.452,1406.06 C960.347,1412.67 952.925,1416.01 943.846,1415.2 C941.011,1416.49 937.096,1420.61 933.213,1418.66 C932.864,1418.49 932.854,1417.3 933.027,1416.97 C935.652,1417.81 938.524,1417.29 941.301,1414.41 C934.043,1410.53 930.116,1402.56 928.421,1394.7 C923.253,1370.76 932.951,1345.95 950.13,1328.53 C949.057,1327.94 948.892,1327.37 948.906,1326.93 C948.697,1326.5 949.199,1325.83 949.506,1325.89 C949.814,1325.96 950.406,1326.94 950.895,1327.22 C954.162,1329.14 962.464,1325.15 967.665,1331.5 C969.019,1331.32 970.755,1332.13 971.544,1332.46 C972.649,1332.92 979.053,1328.46 983.954,1332.59 C986.666,1334.87 987.068,1338.73 987.3,1341.83 C998.594,1345.18 1009.71,1345.35 1013.41,1335.24 C1016.19,1327.65 1016.96,1319.36 1016.31,1311.03 C1005.33,1300.53 1000.77,1286.22 1003.66,1271.68 C1003.66,1271.68 1004.45,1259.56 1004.45,1259.56 C1005.05,1250.37 1004.11,1237.04 999.481,1228.55 C991.286,1247.93 978.233,1263.73 961.317,1276.12 C958.891,1277.9 957.331,1279.86 958.338,1283.32 C957.666,1283.76 956.762,1283.84 956.222,1283.64 C957.967,1272.36 952.873,1256.34 942.982,1259.01 C942.933,1258.43 942.803,1257.15 943.551,1257.03 C944.267,1256.91 945.266,1256.61 946.108,1256.92 C946.108,1256.92 952.85,1259.41 952.85,1259.41 C958.761,1255.64 963.023,1251.26 967.25,1246.21 C968.88,1244.26 970.62,1241.76 973.124,1242.07 C973.124,1242.07 957.344,1258.6 957.344,1258.6 C961.214,1262.98 962.672,1267.01 964.098,1272.06 C976.238,1262.61 986.041,1250.81 993.168,1237.25 C994.787,1234.17 998.187,1230.24 998.041,1225.96 C997.852,1220.44 993.72,1215.58 990.507,1211.82 C989.981,1213.99 989.931,1215.1 987.782,1216.34 C987.782,1216.34 989.048,1217.51 989.048,1217.51 C989.85,1218.25 988.826,1219.4 988.845,1219.99 C988.719,1219.87 988.114,1219.71 987.504,1218.59 C987.504,1218.59 972.452,1240.88 972.452,1240.88 C972.452,1240.88 980.183,1228.19 980.183,1228.19 C980.183,1228.19 989.351,1210.49 989.351,1210.49 C978.212,1196.8 973.315,1180.43 971.485,1163.43 C971.485,1163.43 971.476,1153.54 971.476,1153.54 C971.459,1135.62 980.078,1115.48 993.671,1101.57 C1011.87,1082.94 1034.07,1074.76 1060.04,1077.72 C1081.34,1080.14 1099.48,1090.03 1113.73,1106.19 C1113.73,1106.19 1118.57,1112.39 1118.57,1112.39 C1129.56,1126.47 1136.36,1152.52 1134.51,1171.57 C1134.51,1171.57 1133.64,1180.51 1133.64,1180.51 C1133.64,1180.51 1131.41,1192.3 1131.41,1192.3 C1131.28,1193 1131.04,1194.53 1130.54,1194.95 C1130.23,1195.21 1129.31,1195.08 1128.88,1194.98 Z M1108.09,1262.04 C1107.57,1263 1106.82,1263.75 1106.04,1264.49 C1106.04,1264.49 1115.88,1270.27 1115.88,1270.27 C1116.46,1270.6 1116.94,1271.99 1117.57,1271.86 C1119,1271.58 1120.7,1264.07 1126.03,1258.9 C1126.05,1257.54 1123.83,1257.69 1123.11,1257.53 C1123.11,1257.53 1113.17,1251.86 1113.17,1251.86 C1110.7,1250.45 1108.93,1248.7 1106.39,1245.67 C1106.39,1245.67 1098,1256.03 1098,1256.03 C1098,1256.03 1105.6,1264.06 1105.6,1264.06 C1106.48,1262.72 1107.25,1262.11 1108.09,1262.04 Z M1054.48,1330 C1054.81,1330.54 1054.81,1331.85 1055.27,1332.74 C1064.53,1350.4 1063.51,1362.28 1054.64,1380.18 C1058.54,1382.22 1064.81,1383.82 1068.72,1381.95 C1080.63,1362.35 1076.96,1341.41 1067.07,1322.94 C1065.84,1320.64 1065.42,1317.97 1063.09,1315.79 C1058.1,1318.36 1053.67,1319.45 1048.71,1320.59 C1048.71,1320.59 1054.48,1330 1054.48,1330 Z M977.631,1360.38 C977.095,1359.89 974.957,1360.46 974.296,1358.69 C973.341,1361.02 974.982,1361.36 975.534,1361.95 C976.341,1362.8 978.703,1362 977.631,1360.38 Z " fill="rgb(4,5,5)"/><path d="M1141.25,1291.67 C1141.25,1291.67 1150.41,1299.69 1150.41,1299.69 C1149.84,1302.62 1152.91,1302.21 1152.48,1300.08 C1149.37,1296.47 1145.78,1293.94 1144.02,1290.19 C1145.14,1290.3 1145.17,1289.17 1144.48,1288.94 C1143.87,1288.74 1142.91,1287.69 1144.31,1286.68 C1144.31,1286.68 1151.24,1296.15 1151.24,1296.15 C1152.25,1297.52 1153.76,1298.74 1153.25,1300.93 C1157.37,1298.5 1161.12,1297.46 1163.79,1294.51 C1162.73,1298.73 1161.04,1303.12 1156.92,1305.69 C1141.38,1305.74 1127.35,1291.33 1128.79,1278.69 C1131.93,1284.16 1135.3,1289.43 1141.25,1291.67 Z " fill="rgb(213,209,205)"/><path d="M900.936,1305.11 C900.732,1305.11 900.413,1305.21 900.274,1305.26 C900.057,1304.26 899.486,1303.72 897.971,1303.76 C895.421,1299.46 892.659,1292.73 894.664,1287.85 C897.381,1284.25 903.141,1283.23 906.683,1281.05 C908.233,1282.57 908.494,1284.04 907.809,1286.04 C905.6,1284.61 902.837,1283.92 900.727,1285.63 C900.727,1285.63 905.972,1287.72 905.972,1287.72 C903.632,1293.29 903.825,1298.67 907.822,1302.78 C905.209,1305.07 903.18,1305.11 900.936,1305.11 Z " fill="rgb(248,248,247)"/><path d="M1189.98,1269.95 C1193.61,1278.44 1189.09,1286.28 1180.9,1292.65 C1180.18,1289.42 1181.91,1288.85 1184.06,1287.44 C1182.39,1287.12 1180.42,1287.01 1179.86,1285.78 C1179.34,1284.63 1177.6,1282.01 1178.81,1281.29 C1182.84,1279.46 1184.59,1277.03 1184.83,1273.44 C1185.38,1265.37 1176.19,1263.98 1176.17,1260.93 C1181.33,1262.65 1187.18,1265.21 1189.98,1269.95 Z " fill="rgb(252,252,252)"/><path d="M1170.82,1300.82 C1170.82,1300.82 1167.73,1302.7 1167.73,1302.7 C1166.4,1301.86 1164.94,1301.77 1162.87,1302.3 C1163.4,1299.93 1164.78,1299.9 1165.64,1299.36 C1164.34,1295.95 1166.19,1293.33 1166.6,1290.86 C1172.02,1290.88 1174.95,1288.19 1176.81,1283.31 C1178.64,1287.49 1179.39,1290.93 1177.13,1295.27 C1176.11,1296.94 1173.45,1299.21 1170.82,1300.82 Z " fill="rgb(252,252,251)"/><path d="M925.982,1300.98 C925.98,1303.02 924.45,1305.79 922.106,1307.1 C917.378,1309.74 912.711,1309.87 908.232,1307.89 C907.85,1307.38 907.045,1306.91 907.014,1306.37 C906.955,1305.37 907.919,1304.75 909.38,1303.36 C914.745,1304.6 919.95,1303 922.719,1297.54 C924.86,1298.66 924.966,1300 925.982,1300.98 Z " fill="rgb(251,251,250)"/><path d="M1169.92,1247.06 C1169.92,1247.06 1159.1,1247.09 1159.1,1247.09 C1152.08,1247.11 1137.75,1259.58 1132.18,1267.31 C1131.83,1261.76 1136.69,1258.93 1140.53,1256.17 C1140.53,1256.17 1139.09,1253.79 1139.09,1253.79 C1138.82,1253.22 1139.21,1252.82 1139.54,1252.78 C1140.09,1252.71 1141.77,1254.01 1142.59,1254.44 C1151.97,1243.51 1169.41,1243.9 1170,1245.55 C1170.14,1245.94 1170.04,1246.65 1169.92,1247.06 Z " fill="rgb(10,10,11)"/><path d="M922.19,1364.07 C922.19,1364.07 920.326,1373.1 920.326,1373.1 C918.46,1382.13 920.173,1399.73 925.543,1407.81 C925.418,1408.07 925.206,1408.69 925.357,1408.94 C925.175,1409.62 924.694,1409.97 924.084,1409.92 C918.503,1400.61 916.374,1383.64 918.385,1373.44 C918.385,1373.44 920.064,1364.92 920.064,1364.92 C920.293,1363.76 921.354,1363.66 922.19,1364.07 Z " fill="rgb(4,5,6)"/><path d="M948.195,1327.03 C940.04,1323.73 928.677,1343.83 926.362,1351.05 C925.603,1351.15 925.112,1350.79 925.067,1350.43 C924.706,1347.57 933.767,1333.02 939.832,1326.98 C941.635,1325.18 944.804,1324.84 946.95,1324.99 C948.318,1325.09 948.466,1326.28 948.195,1327.03 Z " fill="rgb(10,10,10)"/><path d="M1176.17,1260.93 C1176.19,1263.98 1185.38,1265.37 1184.83,1273.44 C1184.59,1277.03 1182.84,1279.46 1178.81,1281.29 C1177.6,1282.01 1179.34,1284.63 1179.86,1285.78 C1180.42,1287.01 1182.39,1287.12 1184.06,1287.44 C1181.91,1288.85 1180.18,1289.42 1180.9,1292.65 C1189.09,1286.28 1193.61,1278.44 1189.98,1269.95 C1195.77,1271.42 1193.56,1284.2 1186.26,1290.32 C1186.26,1290.32 1173.71,1300.87 1173.71,1300.87 C1173.28,1300.39 1172.49,1299.77 1172.04,1300.48 C1171.77,1300.91 1171.43,1301.12 1170.82,1300.82 C1173.45,1299.21 1176.11,1296.94 1177.13,1295.27 C1179.39,1290.93 1178.64,1287.49 1176.81,1283.31 C1174.95,1288.19 1172.02,1290.88 1166.6,1290.86 C1166.19,1293.33 1164.34,1295.95 1165.64,1299.36 C1164.78,1299.9 1163.4,1299.93 1162.87,1302.3 C1164.94,1301.77 1166.4,1301.86 1167.73,1302.7 C1166.5,1303.46 1163.63,1302.73 1162.48,1303.42 C1160.06,1304.88 1158.68,1305.68 1156.92,1305.69 C1161.04,1303.12 1162.73,1298.73 1163.79,1294.51 C1164.81,1290.49 1164.56,1286.34 1160.97,1282.98 C1153.93,1276.39 1142.85,1275.33 1141.87,1281.12 C1141.34,1284.24 1142.86,1287.74 1144.02,1290.19 C1145.78,1293.94 1149.37,1296.47 1152.48,1300.08 C1152.91,1302.21 1149.84,1302.62 1150.41,1299.69 C1150.41,1299.69 1141.25,1291.67 1141.25,1291.67 C1140.33,1288.18 1139.47,1284.58 1139.54,1281.53 C1139.65,1276.03 1146.31,1276.56 1148.06,1274.33 C1150.41,1271.34 1152.24,1266.86 1156.41,1264.7 C1156.49,1261.34 1153.19,1254.1 1159.36,1252.65 C1156.97,1258.1 1157.1,1265.02 1162.22,1267.66 C1167.95,1270.61 1173.38,1273.53 1177.35,1278.79 C1179.51,1279.26 1182.19,1276.81 1182.79,1275.19 C1183.63,1272.96 1182.96,1269.77 1180.75,1268.22 C1180.75,1268.22 1175.53,1264.53 1175.53,1264.53 C1173.07,1262.8 1169.44,1261.88 1169.93,1257.82 C1169.93,1257.82 1173.28,1260.8 1173.28,1260.8 C1175.55,1255.77 1174.42,1250.39 1171.06,1246.55 C1174.34,1247.23 1176.1,1251.17 1176.13,1254.93 C1176.13,1254.93 1176.17,1260.93 1176.17,1260.93 Z M1175.52,1281.42 C1173.15,1273.23 1164.21,1271.92 1157.82,1268.32 C1153.75,1266.04 1149.96,1271.97 1151.47,1275.29 C1157.99,1277.73 1164.22,1281.55 1166.72,1288.66 C1170.08,1289.01 1176.54,1284.93 1175.52,1281.42 Z " fill="rgb(9,9,8)"/><path d="M930.858,1288.33 C928.331,1289.76 925.807,1292.12 924.056,1295.63 C932.855,1297.64 941.802,1293.5 944.782,1285.08 C944.782,1285.08 946.016,1283.49 946.016,1283.49 C946.447,1282.94 947.256,1283.78 947.355,1284.27 C947.905,1286.95 945.886,1286.64 946.214,1288.88 C947.988,1290.14 950.601,1289.35 952.616,1289.24 C951.03,1292.3 947.275,1291.58 943.897,1290.82 C939.397,1295.82 933.017,1299.07 926.212,1297.97 C926.142,1298.89 926.63,1299.2 926.736,1299.48 C926.971,1300.11 926.1,1300.59 925.982,1300.98 C924.966,1300 924.86,1298.66 922.719,1297.54 C919.95,1303 914.745,1304.6 909.38,1303.36 C907.919,1304.75 906.955,1305.37 907.014,1306.37 C907.045,1306.91 907.85,1307.38 908.232,1307.89 C906.154,1306.97 903.787,1306.98 901.07,1306.92 C900.675,1306.44 900.802,1305.44 900.936,1305.11 C903.18,1305.11 905.209,1305.07 907.822,1302.78 C903.825,1298.67 903.632,1293.29 905.972,1287.72 C905.972,1287.72 900.727,1285.63 900.727,1285.63 C902.837,1283.92 905.6,1284.61 907.809,1286.04 C908.494,1284.04 908.233,1282.57 906.683,1281.05 C903.141,1283.23 897.381,1284.25 894.664,1287.85 C892.659,1292.73 895.421,1299.46 897.971,1303.76 C899.486,1303.72 900.057,1304.26 900.274,1305.26 C899.945,1306.43 898.292,1306.22 898.065,1305.5 C897.918,1305.04 896.061,1304.41 895.795,1303.98 C893.585,1299.92 892.757,1295.2 891.833,1289.8 C890.11,1292.17 888.445,1292.32 886.699,1292.47 C886.699,1292.47 900.045,1282.14 900.045,1282.14 C902.93,1280.05 906.734,1280.14 908.515,1276.89 C908.515,1276.89 909.673,1283.51 909.673,1283.51 C911.773,1281.57 912.152,1279.93 913.212,1278.06 C908.975,1269.13 895.198,1269.26 887.814,1273.88 C887.793,1273.08 887.753,1272.48 887.318,1272.16 C887.014,1271.93 875.073,1271.79 875.009,1270.55 C875.009,1270.55 874.88,1268.08 874.88,1268.08 C873.131,1269.65 872.301,1267.93 873.14,1266.72 C873.14,1266.72 878.38,1269.69 878.38,1269.69 C892.109,1271.96 907.736,1262.94 914.726,1277.63 C918.162,1274.94 918.666,1271.99 920.615,1268.74 C924.629,1274.27 911.946,1279.63 907.097,1290.99 C905.676,1294.32 906.191,1298.08 908.071,1299.53 C911.45,1302.14 914.664,1302.53 918.142,1300.1 C924.011,1296.01 923.461,1286.4 936.663,1283.74 C938.283,1283.41 939.642,1281.88 940.997,1280.88 C940.663,1286.97 932.117,1285.15 930.858,1288.33 Z " fill="rgb(12,12,12)"/><path d="M1104.4,1215.22 C1111.3,1196.9 1112.1,1176.31 1109.73,1156.33 C1107.95,1141.31 1100.64,1127.96 1087.98,1119.16 C1078.17,1112.34 1071.45,1123.74 1066.96,1116.57 C1065.65,1114.49 1066.41,1111.23 1069.38,1109.13 C1061.29,1106.93 1054.15,1107.01 1046.43,1108.55 C1048.47,1110.83 1049.5,1112.09 1049.32,1114.46 C1049.23,1115.71 1047.9,1116.77 1046.92,1118.03 C1041.26,1121.46 1038.01,1114.49 1030.94,1116.9 C1000.77,1127.18 996.359,1171.6 1014.19,1197.69 C1018.84,1204.49 1024.7,1208.99 1032.25,1211.77 C1032.25,1211.77 1039.92,1216.85 1039.92,1216.85 C1039.82,1218.2 1040.79,1219.2 1041.53,1220.32 C1048.48,1230.9 1044.65,1243.68 1033.77,1249.8 C1030.99,1251.36 1028.96,1254.19 1029.9,1256.93 C1030.29,1257.98 1028.67,1258.87 1027.96,1258.03 C1026.68,1253.85 1029.19,1249.77 1032.92,1247.9 C1041.6,1243.55 1045.33,1233.96 1041.89,1225.28 C1038.92,1217.83 1033.51,1214.09 1026.41,1211.29 C1019.93,1208.74 1015,1202.64 1011.26,1196.8 C997.444,1175.26 997.844,1140.61 1017.54,1121.82 C1015.83,1120.54 1014.89,1119.2 1014.73,1117.48 C1014.59,1116 1015.04,1114.53 1016.2,1113.2 C1023.26,1106.9 1032.71,1103.95 1042.24,1107.48 C1052.35,1104.55 1062.76,1105 1072.72,1108.03 C1082.71,1103.76 1093.39,1106.93 1100.26,1114.84 C1100.83,1118.77 1098.83,1121.42 1094.85,1122.15 C1104.72,1131.14 1109.79,1142.92 1111.55,1155.71 C1115.59,1185 1111.33,1217.07 1093.1,1241.01 C1089.02,1246.36 1084.57,1251.45 1078.84,1253.85 C1080.5,1249.51 1084.29,1248.44 1086.79,1245.78 C1095.24,1236.84 1100.28,1226.17 1104.4,1215.22 Z " fill="rgb(0,0,0)"/><path d="M1104.4,1215.22 C1102.83,1214.93 1102.66,1214.09 1102.86,1213.01 C1105.58,1198.58 1103.98,1184.81 1098.44,1171.91 C1107.24,1157.82 1102.4,1138.35 1086.82,1132.69 C1089.45,1129.62 1078.55,1122.47 1070.89,1120.87 C1070.89,1120.87 1056.03,1117.77 1056.03,1117.77 C1052.88,1117.11 1049.47,1116.49 1046.92,1118.03 C1047.9,1116.77 1049.23,1115.71 1049.32,1114.46 C1049.5,1112.09 1048.47,1110.83 1046.43,1108.55 C1054.15,1107.01 1061.29,1106.93 1069.38,1109.13 C1066.41,1111.23 1065.65,1114.49 1066.96,1116.57 C1071.45,1123.74 1078.17,1112.34 1087.98,1119.16 C1100.64,1127.96 1107.95,1141.31 1109.73,1156.33 C1112.1,1176.31 1111.3,1196.9 1104.4,1215.22 Z " fill="rgb(104,181,155)"/><path d="M1092.35,1259.76 C1092.07,1259.98 1092.21,1260.5 1091.84,1261.1 C1086.81,1268.33 1081.13,1276.29 1080.57,1285.4 C1079.98,1295.08 1076.63,1303.29 1068.65,1309.87 C1058.25,1318.46 1044.24,1319.95 1031.79,1316.62 C1033.6,1314.61 1035.5,1314.84 1038.13,1314.76 C1055,1314.23 1069.21,1302.73 1074.55,1286.62 C1077.5,1277.73 1080.64,1269.12 1087.7,1262.59 C1089.03,1261.36 1090.32,1259.57 1092.35,1259.76 Z " fill="rgb(98,179,153)"/><path d="M1029.9,1256.93 C1028.96,1254.19 1030.99,1251.36 1033.77,1249.8 C1044.65,1243.68 1048.48,1230.9 1041.53,1220.32 C1040.79,1219.2 1039.82,1218.2 1039.92,1216.85 C1047.82,1218.96 1053.54,1226.36 1054.64,1235 C1053.99,1247.92 1043.82,1258.17 1031.27,1258.47 C1030.79,1257.82 1029.65,1256.26 1029.9,1256.93 Z " fill="rgb(101,180,156)"/><path d="M1061.01,1079.77 C1061.09,1080.44 1060.88,1081.01 1060.06,1081 C1060.06,1081 1048.84,1080.84 1048.84,1080.84 C1011.59,1082.98 981.215,1111.69 975.43,1148.31 C975.43,1148.31 974.55,1166.34 974.55,1166.34 C974.243,1165.14 973.23,1164.14 973.163,1163.19 C970.503,1125.29 994.615,1090.22 1031.85,1081.05 C1041.97,1078.56 1051.46,1078.54 1061.01,1079.77 Z " fill="rgb(204,246,231)"/><path d="M1044.36,1179.72 C1037.45,1183.56 1029.77,1182.48 1023.94,1178.05 C1011.57,1168.65 1009.85,1150.64 1020.18,1139.31 C1024.58,1134.48 1030.27,1131.71 1036.42,1132.01 C1042.26,1132.31 1047.64,1135.24 1051.88,1140.35 C1061.93,1152.45 1058.75,1171.72 1044.36,1179.72 Z M1038.63,1179.81 C1052.93,1175.9 1058.49,1161.2 1053.9,1148.12 C1050.36,1138.01 1039.68,1130.84 1029.12,1135.2 C1020.05,1138.94 1015.39,1148.32 1015.56,1157.45 C1015.83,1171.45 1028.44,1182.59 1038.63,1179.81 Z " fill="rgb(8,10,8)"/><path d="M1086.82,1132.69 C1102.4,1138.35 1107.24,1157.82 1098.44,1171.91 C1098.44,1171.91 1095.73,1174.77 1095.73,1174.77 C1089.45,1181.42 1080.17,1183.78 1071.95,1178.86 C1058.32,1170.7 1054.95,1152.24 1064.71,1139.84 C1070.13,1132.95 1078.88,1129.81 1086.82,1132.69 Z M1086.06,1178.62 C1094.63,1175.83 1099.73,1167.62 1100.76,1160.18 C1101.97,1151.43 1098.69,1142.7 1091.75,1137.32 C1082.55,1130.19 1069.98,1133.85 1064.54,1143.55 C1060.15,1151.38 1059.94,1159.82 1064.15,1167.9 C1068.2,1175.69 1076.8,1181.64 1086.06,1178.62 Z " fill="rgb(9,10,8)"/><path d="M1111.85,1423.77 C1114.81,1423.28 1112.8,1426.35 1114.62,1429.92 C1114.17,1429.81 1113.68,1430.42 1113.69,1430.73 C1101.43,1434.52 1088.98,1435.9 1075.99,1434.37 C1064.59,1432.22 1053.89,1428.84 1044.23,1423.54 C1041.76,1422.18 1039.01,1420.21 1038.12,1418.17 C1036.86,1415.31 1037.23,1411.49 1039.87,1409.37 C1045.91,1415.6 1052.8,1418.84 1060.27,1421.75 C1076.96,1428.25 1095.15,1429.6 1111.85,1423.77 Z " fill="rgb(252,252,253)"/><path d="M933.027,1416.97 C929.327,1415.71 927.304,1412.15 925.357,1408.94 C925.206,1408.69 925.418,1408.07 925.543,1407.81 C925.543,1407.81 926.151,1397.92 926.151,1397.92 C926.59,1397.14 928.668,1396.17 928.421,1394.7 C930.116,1402.56 934.043,1410.53 941.301,1414.41 C938.524,1417.29 935.652,1417.81 933.027,1416.97 Z " fill="rgb(213,211,207)"/><path d="M1081.72,1425.09 C1081.56,1424.73 1081.65,1424.35 1082.1,1424.25 C1091.11,1422.32 1099.84,1420.24 1107.73,1415.9 C1116.94,1410.84 1120.57,1400.88 1115.17,1391.72 C1114.69,1390.91 1115.03,1390.01 1116.27,1389.89 C1122.27,1395.82 1125.96,1405.48 1122.09,1414.01 C1117.66,1423.78 1094.65,1426.7 1081.72,1425.09 Z " fill="rgb(195,192,187)"/><path d="M1074.77,1387.82 C1075.12,1390.32 1073.56,1391.36 1071.55,1391.51 C1070.12,1391.62 1067.78,1390.19 1068.63,1388.19 C1070.82,1389.26 1072.06,1389.48 1074.77,1387.82 Z " fill="rgb(22,20,17)"/><path d="M955.242,1329.95 C955.242,1329.95 955.487,1332.13 955.487,1332.13 C958.918,1332.28 963.744,1332.56 966.537,1335.41 C972.537,1341.52 976.735,1337.95 975.852,1340.96 C971.231,1346.1 969.819,1354.77 972.38,1361.53 C973.201,1363.7 975.55,1364.4 977.439,1363.89 C978.919,1363.5 980.174,1361.98 981.862,1360.08 C983.432,1361.82 982.305,1363 982.316,1364.29 C979.898,1367 977.845,1369.29 973.683,1368.06 C969.172,1365.24 963.707,1363.54 962.886,1356.5 C962.807,1355.83 961.137,1356.78 961.001,1357.53 C960.828,1358.49 963.035,1363.1 966.397,1366.26 C966.397,1366.26 962.17,1368.48 962.17,1368.48 C958.622,1365.52 955.991,1363.35 951.849,1361.76 C949.574,1364.55 959.223,1365.77 963.985,1373.86 C969.109,1383.01 970.454,1394.7 965.022,1403.87 C964.479,1403.77 963.645,1404.19 963.179,1404.45 C955.915,1408.48 942.774,1407.69 937.794,1398.27 C933.276,1389.72 931.659,1380.81 931.714,1371.64 C930.044,1373.28 931.524,1374.58 929.545,1374.01 C931.648,1358.3 938.004,1343.42 949.959,1332.08 C951.713,1330.42 953.686,1330.33 955.242,1329.95 Z " fill="rgb(253,253,253)"/><path d="M1026.99,1344.19 C1022.8,1352.33 1014.39,1359.52 1004.37,1360.41 C998.024,1360.97 991.871,1360.94 986.024,1359.75 C986.024,1359.75 973.135,1357.14 973.135,1357.14 C972.429,1351.2 973.699,1345.83 977.886,1341.66 C985.494,1344.76 993.063,1345.88 1000.98,1345.76 C1013.8,1345.57 1017.31,1332.65 1018.46,1319.77 C1025.95,1328.67 1034.55,1326.29 1031.23,1333.97 C1031.23,1333.97 1026.99,1344.19 1026.99,1344.19 Z " fill="rgb(134,208,181)"/><path d="M1067.07,1322.94 C1076.96,1341.41 1080.63,1362.35 1068.72,1381.95 C1064.81,1383.82 1058.54,1382.22 1054.64,1380.18 C1063.51,1362.28 1064.53,1350.4 1055.27,1332.74 C1054.81,1331.85 1054.81,1330.54 1054.48,1330 C1057.73,1325.8 1061.91,1323.19 1067.07,1322.94 Z " fill="rgb(131,205,177)"/><path d="M1113.17,1251.86 C1113.17,1251.86 1123.11,1257.53 1123.11,1257.53 C1121.12,1258.56 1119.48,1260.48 1118.72,1262.73 C1118.72,1262.73 1115.88,1270.27 1115.88,1270.27 C1115.88,1270.27 1106.04,1264.49 1106.04,1264.49 C1106.82,1263.75 1107.57,1263 1108.09,1262.04 C1109.84,1258.88 1111.16,1255.54 1111.45,1251.82 C1111.45,1251.82 1113.17,1251.86 1113.17,1251.86 Z " fill="rgb(106,197,165)"/><path d="M993.168,1237.25 C991.602,1231.75 989.025,1225.42 988.845,1219.99 C988.826,1219.4 989.85,1218.25 989.048,1217.51 C989.048,1217.51 987.782,1216.34 987.782,1216.34 C989.931,1215.1 989.981,1213.99 990.507,1211.82 C993.72,1215.58 997.852,1220.44 998.041,1225.96 C998.187,1230.24 994.787,1234.17 993.168,1237.25 Z " fill="rgb(43,55,50)"/><path d="M1113.17,1251.86 C1113.17,1251.86 1111.45,1251.82 1111.45,1251.82 C1111.16,1255.54 1109.84,1258.88 1108.09,1262.04 C1107.25,1262.11 1106.48,1262.72 1105.6,1264.06 C1105.6,1264.06 1098,1256.03 1098,1256.03 C1098,1256.03 1106.39,1245.67 1106.39,1245.67 C1108.93,1248.7 1110.7,1250.45 1113.17,1251.86 Z " fill="rgb(39,55,51)"/><path d="M1067.07,1322.94 C1061.91,1323.19 1057.73,1325.8 1054.48,1330 C1054.48,1330 1048.71,1320.59 1048.71,1320.59 C1053.67,1319.45 1058.1,1318.36 1063.09,1315.79 C1065.42,1317.97 1065.84,1320.64 1067.07,1322.94 Z " fill="rgb(42,58,53)"/><path d="M983.974,1335.03 C982.42,1335.83 979.711,1336.03 979.971,1338.29 C979.971,1338.29 975.852,1340.96 975.852,1340.96 C976.735,1337.95 972.537,1341.52 966.537,1335.41 C963.744,1332.56 958.918,1332.28 955.487,1332.13 C955.487,1332.13 955.242,1329.95 955.242,1329.95 C962.586,1328.16 966.223,1332.99 972.971,1334.52 C976.982,1331.66 981.267,1331.86 983.974,1335.03 Z " fill="rgb(211,207,201)"/><path d="M1115.88,1270.27 C1115.88,1270.27 1118.72,1262.73 1118.72,1262.73 C1119.48,1260.48 1121.12,1258.56 1123.11,1257.53 C1123.83,1257.69 1126.05,1257.54 1126.03,1258.9 C1120.7,1264.07 1119,1271.58 1117.57,1271.86 C1116.94,1271.99 1116.46,1270.6 1115.88,1270.27 Z " fill="rgb(1,102,110)"/><path d="M979.971,1338.29 C979.711,1336.03 982.42,1335.83 983.974,1335.03 C985.385,1336.68 987.042,1340.36 983.752,1341.49 C982.957,1341.76 983.208,1338.49 982.434,1338.2 C981.809,1337.97 980.66,1338.1 979.971,1338.29 Z " fill="rgb(233,231,227)"/><path d="M977.631,1360.38 C978.703,1362 976.341,1362.8 975.534,1361.95 C974.982,1361.36 973.341,1361.02 974.296,1358.69 C974.957,1360.46 977.095,1359.89 977.631,1360.38 Z " fill="rgb(235,234,231)"/><path d="M930.858,1288.33 C935.389,1289.82 941.206,1286.9 944.782,1285.08 C941.802,1293.5 932.855,1297.64 924.056,1295.63 C925.807,1292.12 928.331,1289.76 930.858,1288.33 Z " fill="rgb(180,178,176)"/><path d="M923.071,1267.89 C923.115,1269.35 921.315,1268.88 921.664,1267.6 C919.993,1267.45 920.722,1266.42 920.608,1266.09 C920.4,1265.5 920.425,1264.67 921.489,1265.11 C922.334,1265.46 922.687,1266.04 923.071,1267.89 Z " fill="rgb(175,172,167)"/><path d="M1175.52,1281.42 C1176.54,1284.93 1170.08,1289.01 1166.72,1288.66 C1164.22,1281.55 1157.99,1277.73 1151.47,1275.29 C1149.96,1271.97 1153.75,1266.04 1157.82,1268.32 C1164.21,1271.92 1173.15,1273.23 1175.52,1281.42 Z " fill="rgb(252,252,251)"/><path d="M1163.79,1294.51 C1161.12,1297.46 1157.37,1298.5 1153.25,1300.93 C1153.76,1298.74 1152.25,1297.52 1151.24,1296.15 C1151.24,1296.15 1144.31,1286.68 1144.31,1286.68 C1142.91,1287.69 1143.87,1288.74 1144.48,1288.94 C1145.17,1289.17 1145.14,1290.3 1144.02,1290.19 C1142.86,1287.74 1141.34,1284.24 1141.87,1281.12 C1142.85,1275.33 1153.93,1276.39 1160.97,1282.98 C1164.56,1286.34 1164.81,1290.49 1163.79,1294.51 Z " fill="rgb(253,254,254)"/><path d="M1114.62,1429.92 C1112.8,1426.35 1114.81,1423.28 1111.85,1423.77 C1116.99,1421.97 1121.44,1419.09 1124.84,1414.09 C1127.15,1417.48 1126.81,1420.36 1125.69,1423.86 C1122.6,1427.28 1116.38,1430.34 1114.62,1429.92 Z " fill="rgb(202,199,192)"/><path d="M963.179,1404.45 C959.549,1412.27 948.265,1416.18 940.019,1411.02 C930.169,1404.85 927.877,1386.47 929.545,1374.01 C931.524,1374.58 930.044,1373.28 931.714,1371.64 C931.659,1380.81 933.276,1389.72 937.794,1398.27 C942.774,1407.69 955.915,1408.48 963.179,1404.45 Z " fill="rgb(195,191,187)"/><path d="M1038.63,1179.81 C1028.44,1182.59 1015.83,1171.45 1015.56,1157.45 C1015.39,1148.32 1020.05,1138.94 1029.12,1135.2 C1039.68,1130.84 1050.36,1138.01 1053.9,1148.12 C1058.49,1161.2 1052.93,1175.9 1038.63,1179.81 Z M1033.03,1146.59 C1026.37,1148.49 1023.45,1154.98 1025.26,1161.27 C1026.86,1166.82 1033.07,1170.17 1039.06,1168.48 C1044.91,1166.82 1048.67,1160.83 1047.01,1154.6 C1045.5,1148.94 1039.82,1144.64 1033.03,1146.59 Z " fill="rgb(253,253,253)"/><path d="M1086.06,1178.62 C1076.8,1181.64 1068.2,1175.69 1064.15,1167.9 C1059.94,1159.82 1060.15,1151.38 1064.54,1143.55 C1069.98,1133.85 1082.55,1130.19 1091.75,1137.32 C1098.69,1142.7 1101.97,1151.43 1100.76,1160.18 C1099.73,1167.62 1094.63,1175.83 1086.06,1178.62 Z M1076.09,1146.62 C1069.31,1149.25 1067.16,1156.34 1069.87,1162.46 C1072.19,1167.69 1078.46,1170.39 1084.36,1167.91 C1089.85,1165.6 1093.24,1159.12 1090.97,1153.42 C1088.73,1147.81 1082.29,1144.22 1076.09,1146.62 Z " fill="rgb(253,253,253)"/><path d="M973.683,1368.06 C974.831,1368.78 975.651,1368.96 978.527,1369.5 C975.486,1370.12 972.27,1370.16 970.259,1372.23 C969.966,1371.09 970.509,1370.23 971.105,1368.8 C971.345,1368.22 969.57,1367.37 968.784,1367.43 C968.115,1367.49 967.291,1368.3 966.045,1368.62 C963.831,1367.49 962.646,1370.07 964.738,1371.01 C964.968,1371.12 964.953,1371.78 964.955,1372.03 C965.427,1373.13 966.052,1374.63 967.225,1375.36 C965.637,1376.71 964.838,1373.83 963.985,1373.86 C959.223,1365.77 949.574,1364.55 951.849,1361.76 C955.991,1363.35 958.622,1365.52 962.17,1368.48 C962.17,1368.48 966.397,1366.26 966.397,1366.26 C963.035,1363.1 960.828,1358.49 961.001,1357.53 C961.137,1356.78 962.807,1355.83 962.886,1356.5 C963.707,1363.54 969.172,1365.24 973.683,1368.06 Z " fill="rgb(16,15,15)"/><path d="M1033.03,1146.59 C1039.82,1144.64 1045.5,1148.94 1047.01,1154.6 C1048.67,1160.83 1044.91,1166.82 1039.06,1168.48 C1033.07,1170.17 1026.86,1166.82 1025.26,1161.27 C1023.45,1154.98 1026.37,1148.49 1033.03,1146.59 Z M1031.08,1151.54 C1028.87,1152.43 1028.57,1154.41 1029.49,1155.94 C1030.09,1156.94 1031.52,1157.37 1033.2,1156.76 C1034.26,1156.38 1035.08,1154.62 1034.52,1153.22 C1034.13,1152.25 1032.87,1150.82 1031.08,1151.54 Z " fill="rgb(1,1,1)"/><path d="M1076.09,1146.62 C1082.29,1144.22 1088.73,1147.81 1090.97,1153.42 C1093.24,1159.12 1089.85,1165.6 1084.36,1167.91 C1078.46,1170.39 1072.19,1167.69 1069.87,1162.46 C1067.16,1156.34 1069.31,1149.25 1076.09,1146.62 Z M1074.31,1151.37 C1072.5,1152.49 1072.83,1154.81 1073.79,1155.67 C1075.12,1156.87 1076.73,1156.62 1077.97,1155.55 C1078.91,1154.75 1079.25,1153.27 1078.37,1152.18 C1077.44,1151.02 1075.71,1150.51 1074.31,1151.37 Z " fill="rgb(1,1,1)"/><path d="M964.955,1372.03 C964.953,1371.78 964.968,1371.12 964.738,1371.01 C965.162,1369.47 965.733,1370.4 966.23,1370.57 C967.208,1370.9 968.669,1371.25 967.848,1373.08 C966.411,1373.17 965.837,1372.37 964.955,1372.03 Z " fill="rgb(239,239,236)"/><path d="M970.259,1372.23 C970.259,1372.23 967.225,1375.36 967.225,1375.36 C966.052,1374.63 965.427,1373.13 964.955,1372.03 C965.837,1372.37 966.411,1373.17 967.848,1373.08 C968.669,1371.25 967.208,1370.9 966.23,1370.57 C965.733,1370.4 965.162,1369.47 964.738,1371.01 C962.646,1370.07 963.831,1367.49 966.045,1368.62 C967.291,1368.3 968.115,1367.49 968.784,1367.43 C969.57,1367.37 971.345,1368.22 971.105,1368.8 C970.509,1370.23 969.966,1371.09 970.259,1372.23 Z " fill="rgb(167,163,159)"/><path d="M1031.08,1151.54 C1032.87,1150.82 1034.13,1152.25 1034.52,1153.22 C1035.08,1154.62 1034.26,1156.38 1033.2,1156.76 C1031.52,1157.37 1030.09,1156.94 1029.49,1155.94 C1028.57,1154.41 1028.87,1152.43 1031.08,1151.54 Z " fill="rgb(253,253,253)"/><path d="M1074.31,1151.37 C1075.71,1150.51 1077.44,1151.02 1078.37,1152.18 C1079.25,1153.27 1078.91,1154.75 1077.97,1155.55 C1076.73,1156.62 1075.12,1156.87 1073.79,1155.67 C1072.83,1154.81 1072.5,1152.49 1074.31,1151.37 Z " fill="rgb(253,253,253)"/></svg>