<svg xmlns="http://www.w3.org/2000/svg" viewBox="632.0341602844134 85.22926698815891 331.15368625952306 426.87848064187017"><path d="M699.048,453.154 C699.749,458.858 706.037,470.777 714.797,473.305 C728.594,477.287 743.196,478.714 756.976,476.288 C765.054,474.866 770.51,470.956 770.324,463.081 C770.324,463.081 770.024,450.082 770.024,450.082 C770.024,450.082 790.832,450.26 790.832,450.26 C790.832,450.26 816.784,451.125 816.784,451.125 C835.292,451.741 888.928,458.002 885.696,470.048 C884.122,475.912 863.417,481.826 851.379,482.667 C851.379,482.667 845.139,484.339 845.139,484.339 C845.139,484.339 807.805,487.923 807.805,487.923 C807.805,487.923 756.94,488.107 756.94,488.107 C735.214,488.185 665.491,482.163 665.475,468.498 C665.466,461.53 684.342,458.02 694.979,455.974 C696.212,455.736 697.606,452.542 699.048,453.154 Z " fill="rgb(12,14,28)"/><path d="M750.302,423.229 C748.956,423.587 746.15,422.877 744.937,422.733 C744.937,422.733 736.969,420.818 736.969,420.818 C735.613,420.492 735.425,422.953 736.482,423.242 C737.09,423.409 738.07,423.023 739.335,424.12 C741.4,423.734 740.959,425.934 739.238,425.238 C739.238,425.238 737.455,424.134 737.455,424.134 C736.624,423.62 736.187,424.254 736.635,425.035 C738.315,427.963 739.505,428.544 742.327,428.629 C736.208,430.552 730.943,432.023 727.115,436.455 C726.911,436.692 725.282,436.349 725.282,436.663 C725.277,442.862 729.515,431.068 748.947,430.873 C754.738,430.815 758.951,432.625 762.256,436.755 C761.351,436.757 760.903,437.296 761.002,437.582 C761.002,437.582 761.845,440.015 761.845,440.015 C763.469,444.696 763.499,449.686 760.949,454.265 C756.126,462.922 739.13,463.825 726.954,463.296 C726.108,463.26 725.352,462.988 724.889,464.231 C713.716,460.057 708.185,462.017 705.948,442.023 C705.948,442.023 703.469,419.859 703.469,419.859 C703.018,415.829 702.523,411.076 704.055,407.029 C706.543,400.461 714.227,397.277 720.877,398 C724.024,398.341 726.081,397.527 728.233,396.375 C728.233,396.375 730.038,395.409 730.038,395.409 C733.331,393.645 737.414,392.203 740.403,396.167 C740.942,396.881 739.321,398.436 738.539,398.104 C738.539,398.104 736.083,397.061 736.083,397.061 C734.085,396.212 732.514,398.878 732.509,400.667 C732.47,413.913 744.889,421.307 746.597,418.08 C746.597,418.08 748.93,413.672 748.93,413.672 C751.928,415.067 752.197,420.672 750.302,423.229 Z " fill="rgb(253,253,253)"/><path d="M868.865,370.577 C870.729,373.032 873.221,373.947 875.289,378.567 C871.104,379.826 867.518,381.127 863.826,383.816 C846.264,396.607 825.245,416.972 818.711,436.675 C818.711,436.675 813.635,431.881 813.635,431.881 C812.944,428.52 811.523,425.057 811.816,421.145 C811.816,421.145 803.764,415.176 803.764,415.176 C801.814,413.731 802.984,410.043 803.533,408.172 C806.843,401.507 814.354,392.811 822.284,392.747 C822.476,398.401 819.615,401.463 815.37,405.603 C821.933,404.914 824.778,398.111 823.895,392.424 C833.94,390.585 824.681,400.466 829.306,411.924 C830.697,403.638 829.521,396.549 832.172,389.278 C835.57,379.961 841.873,372.198 850.954,369.203 C856.905,367.131 863.255,369.637 868.865,370.577 Z " fill="rgb(253,253,253)"/><path d="M906.258,229.125 C903.399,229.589 899.911,232.476 899.674,234.73 C901.343,235.571 900.152,237.717 899.112,238.852 C900.034,242.105 902.004,244.64 901.774,247.431 C901.774,247.431 901.443,251.453 901.443,251.453 C901.443,251.453 902.776,263.792 902.776,263.792 C901.258,263.141 902.466,262.634 902.931,262.341 C903.279,262.122 904.298,261.48 905.086,262.396 C902.118,269.895 905.104,273.032 910.314,277.917 C899.499,280.666 889.118,276.66 883.69,266.525 C882.45,267.622 883.138,268.685 883.267,269.084 C884.105,271.687 880.828,269.327 876.024,267.872 C875.663,268.4 876.575,269.309 876.937,269.45 C877.218,269.559 876.448,270.329 875.708,270.291 C873.256,266.896 871.832,262.045 872.025,257.736 C872.058,257.006 872.832,255.753 872.122,255.065 C873.106,252.427 873.946,249.254 876.949,247.792 C877.905,252.19 877.326,256.652 881.41,259.33 C879.52,252.662 877.578,247.515 879.606,241.508 C879.606,241.508 890.387,228.513 890.387,228.513 C894.277,223.825 883.986,210.556 890.458,204.742 C893.283,202.204 897.519,201.708 901.121,204.096 C907.371,208.238 909.31,217.132 905.775,223.72 C904.606,225.899 904.408,227.305 906.258,229.125 Z " fill="rgb(253,253,253)"/><path d="M758.053,468.039 C758.608,470.834 757.23,473.399 756.976,476.288 C743.196,478.714 728.594,477.287 714.797,473.305 C706.037,470.777 699.749,458.858 699.048,453.154 C699.048,453.154 696.489,432.345 696.489,432.345 C696.489,432.345 693.094,419.043 693.094,419.043 C693.094,419.043 692.712,413.019 692.712,413.019 C692.541,410.319 694.011,407.925 695.595,407 C697.767,405.732 699.402,405.018 702.097,405.854 C699.722,413.914 701.731,421.281 702.779,429.117 C704.815,444.339 702.005,460.018 719.282,464.804 C719.282,464.804 733.093,468.631 733.093,468.631 C738.784,470.208 744.57,470.444 750.317,469.419 C750.317,469.419 758.053,468.039 758.053,468.039 Z " fill="rgb(252,252,252)"/><path d="M784.825,368.883 C784.825,368.883 778.157,363.732 778.157,363.732 C778.157,363.732 766.901,357.318 766.901,357.318 C766.901,357.318 774.987,351.865 774.987,351.865 C774.987,351.865 779.924,347.817 779.924,347.817 C794.502,355.107 804.514,366.801 812.777,380.237 C812.777,380.237 817.335,387.647 817.335,387.647 C812.106,387.977 808.355,390.999 804.338,394.459 C798.7,384.274 793.099,375.274 784.825,368.883 Z " fill="rgb(135,208,182)"/><path d="M770.725,378.211 C769.124,391.063 763.096,402.394 752.518,409.782 C749.676,411.767 746.168,412.534 743.372,416.037 C738.775,413.636 735.554,409.042 734.527,402.66 C734.527,402.66 744.697,396.739 744.697,396.739 C749.792,393.773 753.453,389.307 754.519,383.999 C754.519,383.999 756.108,376.096 756.108,376.096 C756.108,376.096 756.835,370.942 756.835,370.942 C762.255,371.462 766.421,370.182 771.091,367.841 C771.091,367.841 770.725,378.211 770.725,378.211 Z " fill="rgb(133,207,181)"/><path d="M823.142,259.902 C823.142,259.902 829.023,261.245 829.023,261.245 C829.023,261.245 835.758,262.504 835.758,262.504 C845.412,264.31 855.496,263.128 865.201,262.406 C865.142,267.568 866.255,271.177 868.657,274.716 C866.829,275.057 866.266,275.258 865.911,275.6 C851.019,278.679 835.893,277.564 821.248,273.912 C819.597,273.5 817.949,273.043 815.775,271.817 C820.949,265.454 819.534,258.73 823.142,259.902 Z " fill="rgb(134,207,183)"/><path d="M813.635,431.881 C813.635,431.881 818.711,436.675 818.711,436.675 C825.245,416.972 846.264,396.607 863.826,383.816 C867.518,381.127 871.104,379.826 875.289,378.567 C873.221,373.947 870.729,373.032 868.865,370.577 C873.427,371.34 874.154,375.522 877.493,378.438 C880.772,381.302 884.58,382.408 885.904,386.752 C888.668,395.824 876.651,411.679 867.857,421.941 C858.756,432.56 848.485,441.965 836.013,447.845 C830.663,450.367 825.018,447.648 821.811,443.225 C818.937,439.263 814.522,436.193 813.635,431.881 Z M826.397,445.109 C826.26,439.231 828.014,435.227 831.14,430.945 C842.423,415.494 855.447,401.4 870.924,390.231 C875.031,387.267 879.535,385.67 884.168,387.963 C883.518,382.186 877.172,379.519 871.731,381.729 C854.071,388.902 818.808,427.017 821.068,438.85 C821.548,441.365 824.046,443.53 826.397,445.109 Z M835.606,446.084 C860.349,435.277 888.493,395.088 883.357,390.208 C877.559,384.7 864.51,396.917 856.682,404.691 C846.8,414.505 824.442,437.004 829.075,445.905 C829.928,447.546 833.673,446.928 835.606,446.084 Z " fill="rgb(8,8,8)"/><path d="M794.032,292.284 C794.032,292.284 792.027,300.201 792.027,300.201 C789.518,310.111 795.336,317.142 788.056,330.088 C788.056,330.088 785.911,333.902 785.911,333.902 C777.367,345.428 762.366,352.659 748.155,350.13 C748.071,349.527 748.246,348.5 749.387,348.345 C767.416,345.902 783.08,331.702 784.912,313.086 C786.166,300.331 789.424,287.251 799.07,280.769 C799.07,280.769 794.032,292.284 794.032,292.284 Z " fill="rgb(97,180,153)"/><path d="M928.75,229.343 C932.215,229.677 935.146,232.772 936,236.007 C936.963,239.141 935.67,242.306 933.494,244.16 C927.551,249.226 922.126,243.311 911.022,246.002 C907.727,246.8 903.871,245.277 903.135,242.041 C901.945,236.813 904.965,232.356 909.832,230.742 C914.719,229.121 919.685,229.919 924.804,230.762 C924.561,229.399 925.397,228.565 926.487,228.857 C926.487,228.857 928.75,229.343 928.75,229.343 Z " fill="rgb(253,254,254)"/><path d="M928.75,229.343 C928.75,229.343 926.487,228.857 926.487,228.857 C925.397,228.565 924.561,229.399 924.804,230.762 C919.685,229.919 914.719,229.121 909.832,230.742 C904.965,232.356 901.945,236.813 903.135,242.041 C903.871,245.277 907.727,246.8 911.022,246.002 C922.126,243.311 927.551,249.226 933.494,244.16 C935.67,242.306 936.963,239.141 936,236.007 C936.461,235.946 937.203,235.811 937.537,236.028 C937.927,236.282 938.379,237.179 938.166,238.064 C938.166,238.064 936.57,244.699 936.57,244.699 C940.561,249.665 939.412,255.971 936.945,261.01 C939.006,266.179 937.574,271.013 933.099,274.103 C931.09,276.79 927.773,278.455 924.672,276.644 C929.485,275.733 934.307,272.979 935.821,267.974 C936.299,266.397 935.757,264.207 935.175,262.016 C932.171,264.475 928.898,265.087 924.999,265.219 C924.999,265.219 911.29,265.684 911.29,265.684 C910.437,265.713 908.669,264.822 907.393,264.104 C905.859,265.781 906.089,269.278 907.45,271.714 C909.288,275.003 915.459,276.803 917.684,276.249 C919.274,275.853 921.009,275.66 922.217,276.685 C920.825,276.777 920.007,277.648 918.513,277.69 C918.513,277.69 910.314,277.917 910.314,277.917 C905.104,273.032 902.118,269.895 905.086,262.396 C904.298,261.48 903.279,262.122 902.931,262.341 C902.466,262.634 901.258,263.141 902.776,263.792 C902.776,263.792 901.443,251.453 901.443,251.453 C901.443,251.453 901.774,247.431 901.774,247.431 C902.004,244.64 900.034,242.105 899.112,238.852 C900.152,237.717 901.343,235.571 899.674,234.73 C899.911,232.476 903.399,229.589 906.258,229.125 C909.939,228.528 913.801,227.307 918.335,228.639 C919.164,227.608 919.607,226.169 920.69,226.107 C924.751,225.877 929.697,227.272 928.75,229.343 Z M909.287,248.342 C908.153,248.53 906.313,247.609 905.393,248.909 C904.621,250 904.338,251.285 904.212,252.97 C903.81,258.371 906.272,263.029 911.791,263.08 C911.791,263.08 925.989,263.212 925.989,263.212 C930.426,263.253 934.713,261.396 936.464,257.894 C938.446,253.929 938.159,248.854 935.21,245.18 C932.491,247.418 929.639,248.948 926.75,248.342 C920.71,247.076 915.401,247.323 909.287,248.342 Z " fill="rgb(9,8,8)"/><path d="M728.233,396.375 C726.081,397.527 724.024,398.341 720.877,398 C714.227,397.277 706.543,400.461 704.055,407.029 C702.523,411.076 703.018,415.829 703.469,419.859 C703.469,419.859 705.948,442.023 705.948,442.023 C708.185,462.017 713.716,460.057 724.889,464.231 C733.145,467.316 742.169,469.094 751.306,467.477 C756.883,466.49 763.832,465.306 766.865,460.036 C769.049,456.243 767.98,451.556 767.778,448.08 C768.652,447.786 769.547,447.815 769.998,448.494 C770.251,448.874 770.269,449.531 770.024,450.082 C770.024,450.082 770.324,463.081 770.324,463.081 C768.869,458.952 765.652,466.683 758.053,468.039 C758.053,468.039 750.317,469.419 750.317,469.419 C744.57,470.444 738.784,470.208 733.093,468.631 C733.093,468.631 719.282,464.804 719.282,464.804 C702.005,460.018 704.815,444.339 702.779,429.117 C701.731,421.281 699.722,413.914 702.097,405.854 C699.402,405.018 697.767,405.732 695.595,407 C694.011,407.925 692.541,410.319 692.712,413.019 C692.712,413.019 693.094,419.043 693.094,419.043 C692.564,419.103 691.801,420.089 691.374,419.86 C691.089,419.706 689.329,410.641 693.846,406.377 C696.219,404.136 700.293,403.792 703.625,403.563 C714.184,392.025 725.405,397.797 727.502,395.076 C727.693,394.829 728.506,395.975 728.233,396.375 Z " fill="rgb(7,7,7)"/><path d="M660.175,207.951 C660.175,207.951 659.138,201.974 659.138,201.974 C657.311,191.44 657.875,181.035 660.147,170.679 C660.147,170.679 663.457,161.22 663.457,161.22 C671.308,138.782 689.681,122.509 712.435,115.16 C711.658,115.792 710.721,116.33 710.758,117.879 C689.995,126.286 674.319,142.4 666.184,163.261 C655.868,189.717 662.533,208.179 661.617,208.874 C661.238,209.162 660.426,208.079 660.175,207.951 Z " fill="rgb(208,246,233)"/><path d="M767.533,443.869 C767.533,443.869 767.778,448.08 767.778,448.08 C767.98,451.556 769.049,456.243 766.865,460.036 C763.832,465.306 756.883,466.49 751.306,467.477 C742.169,469.094 733.145,467.316 724.889,464.231 C725.352,462.988 726.108,463.26 726.954,463.296 C739.13,463.825 756.126,462.922 760.949,454.265 C763.499,449.686 763.469,444.696 761.845,440.015 C761.845,440.015 761.002,437.582 761.002,437.582 C760.903,437.296 761.351,436.757 762.256,436.755 C764.068,439.019 765.954,441.291 767.533,443.869 Z " fill="rgb(199,196,191)"/><path d="M819.439,234.194 C822.563,224.927 822.95,215.144 823.134,205.019 C823.441,188.143 820.482,172.904 813.21,157.99 C804.26,139.636 790.23,124.615 771.222,116.959 C770.748,116.378 769.499,115.797 770.745,114.638 C770.745,114.638 787.37,123.871 787.37,123.871 C820.775,149.088 831.951,192.658 821.443,234.345 C821.131,235.582 819.697,235.574 819.439,234.194 Z " fill="rgb(5,6,8)"/><path d="M823.142,259.902 C819.534,258.73 820.949,265.454 815.775,271.817 C817.949,273.043 819.597,273.5 821.248,273.912 C820.318,275.519 818.294,275.147 816.671,274.532 C816.671,274.532 806.981,270.864 806.981,270.864 C806.981,270.864 797.693,288.048 797.693,288.048 C796.664,289.953 795.397,291.449 795.757,294.055 C794.721,292.91 794.698,292.094 794.032,292.284 C794.032,292.284 799.07,280.769 799.07,280.769 C804.563,271.098 810.272,261.386 813.823,250.853 C814.935,250.499 815.642,251.221 815.499,251.903 C815.366,252.536 813.882,254.444 813.958,255.143 C818.482,259.434 825.06,256.227 823.142,259.902 Z " fill="rgb(1,1,2)"/><path d="M924.672,276.644 C923.77,276.815 922.643,277.046 922.217,276.685 C921.009,275.66 919.274,275.853 917.684,276.249 C917.684,276.249 918.696,274.141 918.696,274.141 C918.696,274.141 910.912,270.906 910.912,270.906 C909.233,270.208 910.527,267.084 911.29,265.684 C911.29,265.684 924.999,265.219 924.999,265.219 C928.898,265.087 932.171,264.475 935.175,262.016 C935.757,264.207 936.299,266.397 935.821,267.974 C934.307,272.979 929.485,275.733 924.672,276.644 Z " fill="rgb(252,252,252)"/><path d="M872.025,257.736 C871.832,262.045 873.256,266.896 875.708,270.291 C875.708,270.291 879.143,275.316 879.143,275.316 C879.143,275.316 868.868,275.418 868.868,275.418 C869.584,277.621 867.617,277.381 866.932,276.666 C866.932,276.666 865.911,275.6 865.911,275.6 C866.266,275.258 866.829,275.057 868.657,274.716 C866.255,271.177 865.142,267.568 865.201,262.406 C855.496,263.128 845.412,264.31 835.758,262.504 C835.758,262.504 829.023,261.245 829.023,261.245 C830.634,258.848 833.993,260.575 836.409,260.602 C836.409,260.602 859.975,260.872 859.975,260.872 C864.533,260.924 868.608,259.803 872.025,257.736 Z " fill="rgb(2,2,2)"/><path d="M754.519,383.999 C753.453,389.307 749.792,393.773 744.697,396.739 C744.697,396.739 734.527,402.66 734.527,402.66 C735.554,409.042 738.775,413.636 743.372,416.037 C746.168,412.534 749.676,411.767 752.518,409.782 C752.81,410.795 752.264,411.447 751.192,412.474 C753.775,415.397 754.486,422.114 750.302,423.229 C752.197,420.672 751.928,415.067 748.93,413.672 C748.93,413.672 746.597,418.08 746.597,418.08 C744.889,421.307 732.47,413.913 732.509,400.667 C732.514,398.878 734.085,396.212 736.083,397.061 C736.083,397.061 738.539,398.104 738.539,398.104 C739.321,398.436 740.942,396.881 740.403,396.167 C737.414,392.203 733.331,393.645 730.038,395.409 C729.642,395.49 728.932,395.046 729.085,394.672 C729.972,392.507 733.037,391.264 735.475,391.27 C737.423,391.275 740.308,393.781 742.114,395.453 C749.728,393.468 750.535,385.272 754.519,383.999 Z " fill="rgb(11,13,12)"/><path d="M744.937,422.733 C744.915,423.673 745.629,424.4 746.575,424.039 C747.13,423.827 748.222,423.4 749.002,424.376 C749.138,424.8 747.154,424.98 747.033,425.508 C746.91,426.05 747.275,427.423 745.545,428.572 C745.545,428.572 751.742,429.416 751.742,429.416 C759.73,430.503 767.085,436.155 767.533,443.869 C765.954,441.291 764.068,439.019 762.256,436.755 C758.951,432.625 754.738,430.815 748.947,430.873 C729.515,431.068 725.277,442.862 725.282,436.663 C725.282,436.349 726.911,436.692 727.115,436.455 C730.943,432.023 736.208,430.552 742.327,428.629 C739.505,428.544 738.315,427.963 736.635,425.035 C736.187,424.254 736.624,423.62 737.455,424.134 C737.455,424.134 739.238,425.238 739.238,425.238 C740.959,425.934 741.4,423.734 739.335,424.12 C738.07,423.023 737.09,423.409 736.482,423.242 C735.425,422.953 735.613,420.492 736.969,420.818 C736.969,420.818 744.937,422.733 744.937,422.733 Z " fill="rgb(9,9,9)"/><path d="M759.227,113.188 C743.57,110.036 727.51,110.292 712.435,115.16 C689.681,122.509 671.308,138.782 663.457,161.22 C663.026,161.134 662.303,161.017 661.882,160.647 C673.371,130.47 702.24,110.764 734.18,109.418 C741.526,109.109 748.44,109.018 755.74,110.442 C755.74,110.442 758.481,110.976 758.481,110.976 C759.207,111.118 759.5,112.384 759.227,113.188 Z " fill="rgb(6,7,9)"/><path d="M660.147,170.679 C657.875,181.035 657.311,191.44 659.138,201.974 C658.111,202.405 657.336,202.13 657.146,201.064 C655.416,191.394 655.787,182.339 657.69,172.888 C658.017,171.263 658.735,170.62 660.147,170.679 Z " fill="rgb(9,11,15)"/><path d="M788.056,330.088 C795.336,317.142 789.518,310.111 792.027,300.201 C792.027,300.201 794.149,298.985 794.149,298.985 C791.822,310.569 796.827,319.749 789.763,331.227 C789.106,330.884 788.677,330.118 788.056,330.088 Z " fill="rgb(9,11,14)"/><path d="M883.267,269.084 C884.044,271.714 886.096,273.603 888.354,275.605 C884.583,277.839 881.986,275.288 879.143,275.316 C879.143,275.316 875.708,270.291 875.708,270.291 C876.448,270.329 877.218,269.559 876.937,269.45 C876.575,269.309 875.663,268.4 876.024,267.872 C880.828,269.327 884.105,271.687 883.267,269.084 Z " fill="rgb(213,212,208)"/><path d="M879.606,241.508 C877.578,247.515 879.52,252.662 881.41,259.33 C877.326,256.652 877.905,252.19 876.949,247.792 C873.946,249.254 873.106,252.427 872.122,255.065 C871.467,255.152 870.147,253.978 870.945,252.925 C870.945,252.925 879.606,241.508 879.606,241.508 Z " fill="rgb(23,22,19)"/><path d="M850.954,369.203 C841.873,372.198 835.57,379.961 832.172,389.278 C829.521,396.549 830.697,403.638 829.306,411.924 C824.681,400.466 833.94,390.585 823.895,392.424 C824.778,398.111 821.933,404.914 815.37,405.603 C819.615,401.463 822.476,398.401 822.284,392.747 C814.354,392.811 806.843,401.507 803.533,408.172 C799.118,407.349 806.522,403.137 805.135,400.208 C800.017,389.398 794.236,380.252 786.004,372.067 C786.004,372.067 784.825,368.883 784.825,368.883 C793.099,375.274 798.7,384.274 804.338,394.459 C808.355,390.999 812.106,387.977 817.335,387.647 C817.335,387.647 812.777,380.237 812.777,380.237 C804.514,366.801 794.502,355.107 779.924,347.817 C779.924,347.817 774.987,351.865 774.987,351.865 C774.282,351.184 773.805,350.65 774.415,349.933 C775.174,349.043 775.958,349.117 776.773,349.843 C778.258,342.038 770.485,350.773 756.513,352.31 C759.469,353.906 762.189,354.458 765.908,354.898 C766.674,352.902 769.046,354.469 767.118,355.577 C765.255,355.337 764.986,357.377 766.901,357.318 C766.901,357.318 778.157,363.732 778.157,363.732 C777.914,365.113 779.24,365.51 778.417,365.836 C776.821,366.468 776.901,363.302 773.417,363.41 C773.417,363.41 772.934,377.865 772.934,377.865 C771.987,378.104 771.335,378.022 770.725,378.211 C770.725,378.211 771.091,367.841 771.091,367.841 C766.421,370.182 762.255,371.462 756.835,370.942 C756.835,370.942 756.108,376.096 756.108,376.096 C754.103,374.508 755.45,371.928 755.581,369.618 C755.581,369.618 756.442,354.48 756.442,354.48 C756.442,354.48 743.327,351.115 743.327,351.115 C742.811,350.982 741.838,349.219 741.593,348.962 C741.593,348.962 748.155,350.13 748.155,350.13 C762.366,352.659 777.367,345.428 785.911,333.902 C785.968,334.285 786.038,334.9 787.008,335.444 C787.008,335.444 777.965,345.075 777.965,345.075 C794.736,352.504 806.355,365.797 815.209,380.741 C815.209,380.741 821.111,390.702 821.111,390.702 C821.111,390.702 830.175,390.796 830.175,390.796 C831.301,382.51 840.269,372.356 847.592,368.621 C848.538,368.139 850.039,368.583 850.954,369.203 Z " fill="rgb(1,1,2)"/><path d="M759.227,113.188 C759.227,113.188 771.222,116.959 771.222,116.959 C790.23,124.615 804.26,139.636 813.21,157.99 C820.482,172.904 823.441,188.143 823.134,205.019 C822.95,215.144 822.563,224.927 819.439,234.194 C819.439,234.194 813.823,250.853 813.823,250.853 C810.272,261.386 804.563,271.098 799.07,280.769 C789.424,287.251 786.166,300.331 784.912,313.086 C783.08,331.702 767.416,345.902 749.387,348.345 C748.246,348.5 748.071,349.527 748.155,350.13 C748.155,350.13 741.593,348.962 741.593,348.962 C726.316,345.227 715.166,331.255 714.292,314.999 C712.858,288.344 707.936,267.64 686.457,251.425 C675.878,243.439 668.684,232.097 664.342,219.775 C664.342,219.775 660.175,207.951 660.175,207.951 C660.426,208.079 661.238,209.162 661.617,208.874 C662.533,208.179 655.868,189.717 666.184,163.261 C674.319,142.4 689.995,126.286 710.758,117.879 C710.721,116.33 711.658,115.792 712.435,115.16 C727.51,110.292 743.57,110.036 759.227,113.188 Z M734.658,293.626 C745.19,293.125 754.478,285.25 756.298,273.856 C758.026,263.031 749.485,252.351 738.856,251.776 C733.671,249.313 728.512,246.786 722.014,246.184 C696.337,235.056 684.589,203.444 691.247,177.408 C693.474,168.699 697.708,160.952 704.976,155.915 C710.256,152.257 715.1,146.712 721.992,147.081 C725.259,147.255 728.344,149.174 731.316,146.728 C730.734,147.678 730.46,149.22 730.47,149.983 C730.47,149.983 750.197,150.494 750.197,150.494 C749.461,152.33 747.33,153.151 749.027,155.584 C754.973,147.082 765.877,144.528 772.042,149.83 C772.042,149.83 765.989,148.51 765.989,148.51 C764.433,148.17 762.575,147.999 760.222,149.53 C766.29,151.803 771.496,155.609 775.779,160.382 C770.389,157.868 762.963,158.232 757.967,161.844 C752.435,165.844 750.04,171.514 747.69,178.465 C744.605,173.825 740.968,170.28 735.676,168.268 C727.495,165.159 718.729,168.444 713.71,175.813 C705.994,188.151 708.971,204.393 720.957,212.909 C726.32,216.72 733.131,217.902 738.957,214.991 C746.202,211.372 749.882,204.812 752.166,196.532 C756.575,203.599 763.38,208.268 771.444,207.858 C778.794,207.485 785.778,202.517 788.787,195.114 C789.064,195.027 790.346,194.694 790.419,194.989 C790.419,194.989 790.905,196.946 790.905,196.946 C798.594,209.036 800.408,222.728 799.944,237.014 C799.883,238.882 799.752,241.304 801.169,242.107 C799.178,255.704 792.354,266.726 783.538,278.854 C793.492,271.46 799.229,259.414 802.254,247.126 C808.493,221.788 806.672,194.668 796.213,170.467 C788.449,152.501 770.26,140.447 750.911,137.151 C755.044,132.023 763.647,131.027 769.943,135.015 C772.774,136.808 775.753,136.042 777.252,133.683 C779.034,130.879 777.755,128.038 774.872,126.126 C765.173,119.695 753.336,120.985 744.727,128.786 C742.155,131.116 741.538,133.794 743.973,137.08 C743.973,137.08 730.313,137.884 730.313,137.884 C719.821,134.719 710.48,137.332 702.632,144.763 C699.564,147.668 699.043,151.541 700.99,155.202 C682.867,175.962 683.532,206.928 698.686,229.268 C704.713,238.154 713.039,245.577 723.376,248.324 C729.061,249.835 734.454,250.99 738.727,255.272 C742.572,259.125 744.818,263.97 744.601,269.055 C744.048,282.039 728.738,284.767 734.658,293.626 Z M714.584,159.641 C721.108,154.084 728.698,154.141 736.499,159.574 C734.663,153.773 728.078,153.083 722.81,153.813 C713.852,155.055 706.551,163.283 706.143,172.185 C709.808,167.759 710.735,162.919 714.584,159.641 Z " fill="rgb(136,210,185)"/><path d="M801.169,242.107 C805.628,223.055 803.987,202.786 798.791,183.299 C795.604,171.346 790.104,160.314 780.432,152.801 C780.432,152.801 780.142,155.408 780.142,155.408 C780.09,155.877 779.291,156.336 778.629,156.108 C777.468,155.709 776.415,150.785 772.042,149.83 C765.877,144.528 754.973,147.082 749.027,155.584 C747.33,153.151 749.461,152.33 750.197,150.494 C755.104,148.33 759.974,143.825 767.405,144.862 C756.541,138.552 744.636,137.311 731.817,140.171 C733.927,142.734 732.618,144.606 731.316,146.728 C728.344,149.174 725.259,147.255 721.992,147.081 C715.1,146.712 710.256,152.257 704.976,155.915 C697.708,160.952 693.474,168.699 691.247,177.408 C684.589,203.444 696.337,235.056 722.014,246.184 C728.512,246.786 733.671,249.313 738.856,251.776 C739.236,253.113 740.538,254.266 741.478,255.359 C748.94,264.023 747.775,275.798 739.237,283.315 C733.415,288.441 736.649,291.819 734.658,293.626 C728.738,284.767 744.048,282.039 744.601,269.055 C744.818,263.97 742.572,259.125 738.727,255.272 C734.454,250.99 729.061,249.835 723.376,248.324 C713.039,245.577 704.713,238.154 698.686,229.268 C683.532,206.928 682.867,175.962 700.99,155.202 C699.043,151.541 699.564,147.668 702.632,144.763 C710.48,137.332 719.821,134.719 730.313,137.884 C730.313,137.884 743.973,137.08 743.973,137.08 C741.538,133.794 742.155,131.116 744.727,128.786 C753.336,120.985 765.173,119.695 774.872,126.126 C777.755,128.038 779.034,130.879 777.252,133.683 C775.753,136.042 772.774,136.808 769.943,135.015 C763.647,131.027 755.044,132.023 750.911,137.151 C770.26,140.447 788.449,152.501 796.213,170.467 C806.672,194.668 808.493,221.788 802.254,247.126 C799.229,259.414 793.492,271.46 783.538,278.854 C792.354,266.726 799.178,255.704 801.169,242.107 Z " fill="rgb(1,2,2)"/><path d="M772.042,149.83 C776.415,150.785 777.468,155.709 778.629,156.108 C779.291,156.336 780.09,155.877 780.142,155.408 C780.142,155.408 780.432,152.801 780.432,152.801 C790.104,160.314 795.604,171.346 798.791,183.299 C803.987,202.786 805.628,223.055 801.169,242.107 C799.752,241.304 799.883,238.882 799.944,237.014 C800.408,222.728 798.594,209.036 790.905,196.946 C790.905,196.946 790.419,194.989 790.419,194.989 C790.346,194.694 789.064,195.027 788.787,195.114 C794.174,181.865 788.648,166.383 775.779,160.382 C771.496,155.609 766.29,151.803 760.222,149.53 C762.575,147.999 764.433,148.17 765.989,148.51 C765.989,148.51 772.042,149.83 772.042,149.83 Z " fill="rgb(102,177,152)"/><path d="M775.779,160.382 C788.648,166.383 794.174,181.865 788.787,195.114 C785.778,202.517 778.794,207.485 771.444,207.858 C763.38,208.268 756.575,203.599 752.166,196.532 C749.882,204.812 746.202,211.372 738.957,214.991 C733.131,217.902 726.32,216.72 720.957,212.909 C708.971,204.393 705.994,188.151 713.71,175.813 C718.729,168.444 727.495,165.159 735.676,168.268 C740.968,170.28 744.605,173.825 747.69,178.465 C750.04,171.514 752.435,165.844 757.967,161.844 C762.963,158.232 770.389,157.868 775.779,160.382 Z M786.696,194.631 C791.627,183.912 787.711,170.639 778.205,164.003 C770.294,158.482 760.742,159.91 755.318,167.252 C750.568,173.68 749.148,181.161 751.206,188.789 C753.582,197.589 760.2,205.364 770.074,205.798 C777.214,206.112 783.701,201.142 786.696,194.631 Z M740.288,211.853 C753.545,202.209 751.109,182.437 741.157,173.924 C733.477,167.354 722.837,167.538 716.497,175.638 C707.748,186.816 710.64,203.562 722.517,211.419 C727.969,215.026 734.59,215.999 740.288,211.853 Z " fill="rgb(7,8,6)"/><path d="M750.197,150.494 C750.197,150.494 730.47,149.983 730.47,149.983 C730.46,149.22 730.734,147.678 731.316,146.728 C732.618,144.606 733.927,142.734 731.817,140.171 C744.636,137.311 756.541,138.552 767.405,144.862 C759.974,143.825 755.104,148.33 750.197,150.494 Z " fill="rgb(101,177,153)"/><path d="M714.584,159.641 C710.735,162.919 709.808,167.759 706.143,172.185 C706.551,163.283 713.852,155.055 722.81,153.813 C728.078,153.083 734.663,153.773 736.499,159.574 C728.698,154.141 721.108,154.084 714.584,159.641 Z " fill="rgb(6,9,7)"/><path d="M734.658,293.626 C736.649,291.819 733.415,288.441 739.237,283.315 C747.775,275.798 748.94,264.023 741.478,255.359 C740.538,254.266 739.236,253.113 738.856,251.776 C749.485,252.351 758.026,263.031 756.298,273.856 C754.478,285.25 745.19,293.125 734.658,293.626 Z " fill="rgb(103,182,157)"/><path d="M770.324,463.081 C770.51,470.956 765.054,474.866 756.976,476.288 C757.23,473.399 758.608,470.834 758.053,468.039 C765.652,466.683 768.869,458.952 770.324,463.081 Z " fill="rgb(208,206,202)"/><path d="M774.987,351.865 C774.987,351.865 766.901,357.318 766.901,357.318 C764.986,357.377 765.255,355.337 767.118,355.577 C769.046,354.469 766.674,352.902 765.908,354.898 C762.189,354.458 759.469,353.906 756.513,352.31 C770.485,350.773 778.258,342.038 776.773,349.843 C775.958,349.117 775.174,349.043 774.415,349.933 C773.805,350.65 774.282,351.184 774.987,351.865 Z " fill="rgb(28,36,33)"/><path d="M835.606,446.084 C833.673,446.928 829.928,447.546 829.075,445.905 C824.442,437.004 846.8,414.505 856.682,404.691 C864.51,396.917 877.559,384.7 883.357,390.208 C888.493,395.088 860.349,435.277 835.606,446.084 Z " fill="rgb(198,194,189)"/><path d="M826.397,445.109 C824.046,443.53 821.548,441.365 821.068,438.85 C818.808,427.017 854.071,388.902 871.731,381.729 C877.172,379.519 883.518,382.186 884.168,387.963 C879.535,385.67 875.031,387.267 870.924,390.231 C855.447,401.4 842.423,415.494 831.14,430.945 C828.014,435.227 826.26,439.231 826.397,445.109 Z " fill="rgb(252,252,252)"/><path d="M911.791,263.08 C912.094,262.398 912.562,261.789 913.123,261.381 C909.988,260.099 907.575,257.82 907.119,255.497 C906.58,252.748 907.384,250.193 909.287,248.342 C915.401,247.323 920.71,247.076 926.75,248.342 C929.639,248.948 932.491,247.418 935.21,245.18 C938.159,248.854 938.446,253.929 936.464,257.894 C934.713,261.396 930.426,263.253 925.989,263.212 C925.989,263.212 911.791,263.08 911.791,263.08 Z " fill="rgb(253,254,254)"/><path d="M911.29,265.684 C910.527,267.084 909.233,270.208 910.912,270.906 C910.912,270.906 918.696,274.141 918.696,274.141 C918.696,274.141 917.684,276.249 917.684,276.249 C915.459,276.803 909.288,275.003 907.45,271.714 C906.089,269.278 905.859,265.781 907.393,264.104 C908.669,264.822 910.437,265.713 911.29,265.684 Z " fill="rgb(196,194,192)"/><path d="M909.287,248.342 C907.384,250.193 906.58,252.748 907.119,255.497 C907.575,257.82 909.988,260.099 913.123,261.381 C912.562,261.789 912.094,262.398 911.791,263.08 C906.272,263.029 903.81,258.371 904.212,252.97 C904.338,251.285 904.621,250 905.393,248.909 C906.313,247.609 908.153,248.53 909.287,248.342 Z " fill="rgb(203,201,197)"/><path d="M786.696,194.631 C783.701,201.142 777.214,206.112 770.074,205.798 C760.2,205.364 753.582,197.589 751.206,188.789 C749.148,181.161 750.568,173.68 755.318,167.252 C760.742,159.91 770.294,158.482 778.205,164.003 C787.711,170.639 791.627,183.912 786.696,194.631 Z M766.721,195.482 C772.07,197.736 777.013,194.432 779.376,190.866 C781.957,186.971 781.619,182.14 779.059,177.961 C777.055,174.688 773.729,173.076 770.451,172.994 C767.024,172.908 763.394,173.992 761.295,177.429 C757.742,183.248 759.823,192.575 766.721,195.482 Z " fill="rgb(252,252,252)"/><path d="M740.288,211.853 C734.59,215.999 727.969,215.026 722.517,211.419 C710.64,203.562 707.748,186.816 716.497,175.638 C722.837,167.538 733.477,167.354 741.157,173.924 C751.109,182.437 753.545,202.209 740.288,211.853 Z M731.384,204.113 C737.404,205.644 742.168,201.393 743.926,197.45 C745.987,192.827 744.983,187.545 741.234,183.492 C736.86,178.763 727.338,179.725 724.173,186.003 C720.901,192.493 723.703,202.158 731.384,204.113 Z " fill="rgb(252,253,253)"/><path d="M766.721,195.482 C759.823,192.575 757.742,183.248 761.295,177.429 C763.394,173.992 767.024,172.908 770.451,172.994 C773.729,173.076 777.055,174.688 779.059,177.961 C781.619,182.14 781.957,186.971 779.376,190.866 C777.013,194.432 772.07,197.736 766.721,195.482 Z M764.799,183.992 C767.233,183.4 768.616,179.776 766.662,178.279 C764.782,176.838 762.911,179.128 762.465,180.861 C762.087,182.33 762.503,184.55 764.799,183.992 Z " fill="rgb(1,0,1)"/><path d="M731.384,204.113 C723.703,202.158 720.901,192.493 724.173,186.003 C727.338,179.725 736.86,178.763 741.234,183.492 C744.983,187.545 745.987,192.827 743.926,197.45 C742.168,201.393 737.404,205.644 731.384,204.113 Z M728.094,192.027 C730.8,190.924 731.167,188.663 730.454,187.077 C729.898,185.84 728.28,184.724 726.843,185.685 C725.252,186.748 725.072,188.278 724.986,189.524 C724.891,190.905 726.244,192.782 728.094,192.027 Z " fill="rgb(1,1,1)"/><path d="M764.799,183.992 C762.503,184.55 762.087,182.33 762.465,180.861 C762.911,179.128 764.782,176.838 766.662,178.279 C768.616,179.776 767.233,183.4 764.799,183.992 Z " fill="rgb(252,252,252)"/><path d="M728.094,192.027 C726.244,192.782 724.891,190.905 724.986,189.524 C725.072,188.278 725.252,186.748 726.843,185.685 C728.28,184.724 729.898,185.84 730.454,187.077 C731.167,188.663 730.8,190.924 728.094,192.027 Z " fill="rgb(254,253,254)"/></svg>