<svg xmlns="http://www.w3.org/2000/svg" viewBox="174.31986019048747 68.0130118103599 330.2656012521224 444.2333618108296"><path d="M397.037,118.933 C435.964,140.779 446.637,185.719 434.743,227.952 C432.636,235.436 429.752,243.159 425.898,250.102 C417.885,264.539 409.216,279.717 397.042,290.344 C390.266,296.26 384.691,303.636 382.429,313.412 C378.442,330.648 364.524,343.196 346.002,345.519 C349.799,348.604 353.846,346.799 357.08,347.989 C351.104,349.783 345.051,349.265 338.63,347.351 C321.776,342.327 309.683,327.266 311.245,308.903 C312.252,297.077 314.336,285.429 312.369,273.878 C311.994,271.672 311.708,269.415 311.13,267.193 C309.098,259.385 306.632,251.272 301.443,244.422 C297.196,238.816 292.262,233.816 289.353,227.686 C283.803,215.989 279.245,203.076 279.864,190.042 C282.397,186.845 281.583,182.264 282.216,178.283 C288.715,137.405 323.92,107.968 366.025,111.155 C367.18,111.243 368.033,110.93 368.028,109.685 C378.317,111.119 387.969,113.844 397.037,118.933 Z M336.24,289.061 C344.575,290.489 353.151,285.233 357.789,277.859 C363.142,269.349 362.195,260.147 354.827,252.998 C352.511,250.752 350.311,247.76 346.858,248.792 C341.48,241.303 329.664,241.734 320.6,228.196 C305.574,205.753 305.688,169.943 326.049,153.181 C342.86,139.341 346.736,148.613 354.147,147.444 C361.554,146.275 368.949,151.414 376.303,151.546 C375.717,153.483 373.212,153.671 374.014,156.782 C376.726,154.258 378.954,153.319 381.603,152.545 C387.137,155.565 392.219,159.346 395.647,164.599 C390.014,161.635 382.815,162.427 377.022,166.108 C370.053,170.535 366.437,178.352 365.992,185.594 C365.459,194.275 368.711,202.085 375.305,207.598 C384.524,215.308 397.183,213.169 404.027,204.11 C404.665,204.206 405.294,203.392 405.728,202.97 C413.872,219.836 409.673,234.096 409.311,250.228 C404.885,261.466 398.619,271.898 389.147,280.209 C387.669,281.505 384.526,281.709 385.641,285.168 C385.641,285.168 393.278,279.195 393.278,279.195 C403.66,268.307 410.932,255.28 414.855,240.75 C419.718,222.741 420.829,204.235 418.251,185.761 C416.286,171.687 409.933,158.878 399.043,149.973 C401.744,150.506 403.515,150.468 405.125,148.517 C406.271,147.127 406.992,144.289 405.483,142.448 C398.031,133.355 385.414,131.648 375.396,137.39 C366.985,135.071 359.152,135.798 351.146,136.819 C342.024,132.263 331.715,134.688 324.665,141.654 C323.027,142.898 321.796,144.575 321.963,146.475 C322.116,148.221 323.166,149.74 325.299,151.018 C297.122,173.061 306.47,230.267 332.828,241.928 C341.522,245.775 349.335,251.558 349.797,262.113 C350.099,269.012 345.767,275.459 339.794,278.721 C336.109,280.733 333.826,284.708 334.304,288.66 C334.641,289.014 335.853,288.994 336.24,289.061 Z M355.778,157.265 C351.839,150.086 343.865,148.732 336.376,150.742 C331.5,152.051 323.916,155.848 323.511,163.021 C328.304,157.35 332.515,153.517 338.123,152.293 C345.033,150.784 349.965,153.972 355.778,157.265 Z M357.931,204.964 C367.303,193.473 365.979,176.677 354.701,167.541 C346.896,161.218 336.414,161.424 328.983,168.077 C322.312,174.05 319.078,182.191 320.05,191.322 C320.839,198.738 325.294,206.799 333.123,210.798 C341.734,215.197 351.881,212.382 357.931,204.964 Z " fill="rgb(137,211,186)"/><path d="M364.855,449.02 C364.855,449.02 365.096,453.938 365.096,453.938 C365.975,454.011 366.327,453.461 366.618,453.092 C370.242,460.655 382.724,464.147 391.963,467.567 C391.497,469.03 393.229,469.333 393.358,467.849 C407.625,471.236 422.37,472.006 436.526,468.756 C445.332,466.734 452.882,464 451.976,455.756 C462.883,457.871 482.079,461.811 480.493,469.184 C479.819,472.32 470.891,476.922 463.631,478.7 C435.52,485.584 407.178,488.556 378.083,488.221 C378.083,488.221 335.287,487.728 335.287,487.728 C310.83,486.009 265.076,484.118 247.183,472.833 C245.698,471.897 242.329,469.133 243.808,467.066 C247.961,461.266 255.114,458.5 261.983,457.767 C261.983,457.767 266.183,455.801 266.183,455.801 C264.737,457.411 265.295,458.228 265.106,459.224 C264.54,462.214 265.294,464.754 268.296,466.842 C285.771,478.997 311.55,474.204 331.088,467.51 C337.241,465.401 343.948,461.997 343.216,453.962 C343.156,453.305 343.016,452.272 342.479,452.098 C342.116,451.98 341.694,452.249 341.227,452.364 C340.827,452.462 340.32,452.348 339.828,452.065 C339.655,451.431 340.3,450.504 341.172,451.019 C341.734,451.352 342.755,449.426 343.752,449.41 C343.752,449.41 364.855,449.02 364.855,449.02 Z " fill="rgb(11,13,27)"/><path d="M243.745,94.0173 C255.085,101.818 247.46,124.201 254.276,139.886 C253.422,140.203 252.037,140.076 251.761,140.392 C241.916,142.184 234.441,151.888 237.471,162.11 C240.173,160.238 238.577,157.25 238.882,155.019 C239.955,147.174 247.132,142.429 254.186,142.124 C263.41,141.724 265.698,128.289 276.316,132.076 C279.823,133.327 283.372,136.978 282.813,142.06 C282.146,148.123 266.154,143.834 262.426,160.729 C260.758,168.291 253.114,173.349 245.603,174.525 C246.931,178.093 252.311,174.585 257.748,170.962 C257.748,170.962 258.343,174.127 258.343,174.127 C254.44,181.915 243.818,185.741 234.76,185.005 C232.109,184.07 229.405,183.457 228.459,179.612 C234.604,180.286 239.591,180.517 240.944,177.17 C241.634,177.3 242.077,176.392 241.246,176.017 C226.03,175.172 222.225,169.919 216.597,157.38 C216.597,157.38 215.281,160.165 215.281,160.165 C214.556,156.158 215.018,151.155 212.392,147.43 C212.392,147.43 202.479,133.363 202.479,133.363 C199.634,129.327 197.018,123.318 199.03,118.05 C200.332,114.642 204.852,116.714 206.659,118.356 C212.75,123.889 218.441,129.449 221.15,138.415 C219.952,140.392 216.251,141.013 216.052,144.27 C222.347,139.497 228.03,135.138 235.306,132.324 C237.977,131.291 240.712,131.93 243.755,129.903 C240.955,128.334 238.809,129.827 235.668,130.631 C235.668,130.631 234.593,109.983 234.593,109.983 C234.343,105.182 234.819,100.365 237.152,96.2614 C238.612,93.694 241.598,92.6798 243.745,94.0173 Z " fill="rgb(253,253,253)"/><path d="M339.341,417.666 C341.462,420.127 344.244,421.839 343.695,425.561 C343.351,427.895 342.49,431.707 340.165,432.873 C331.686,437.121 338.553,448.623 326.663,456.734 C325.419,457.583 324.558,458.761 324.873,460.155 C310.054,465.019 287.524,466.724 274.217,458.778 C270.941,456.822 268.803,454.287 267.946,450.592 C266.73,440.581 272.508,430.159 283.232,427.147 C287.949,425.822 292.535,426.417 296.86,425.587 C309.121,427.501 316.651,435.732 322.307,447.869 C322.373,437.41 312.862,430.976 304.647,426.252 C303.763,425.744 304.142,424.829 304.983,424.478 C305.024,425.064 305.514,424.968 305.745,424.866 C306.72,425.153 307.186,424.436 307.566,423.984 C308.288,423.125 307.889,422.072 307.736,421.09 C307.069,416.8 310.153,414.24 313.989,413.638 C315.386,413.419 316.566,413.64 316.971,414.434 C317.299,415.078 317.179,416.986 316.509,417.096 C316.509,417.096 314.352,417.452 314.352,417.452 C312.863,417.697 312.433,419.282 312.765,420.487 C312.969,421.228 313.294,421.914 314.267,422.923 C322.744,431.71 338.903,429.216 338.983,422.444 C338.998,421.203 336.966,420.185 336.328,421.175 C336.012,421.665 337.217,422.961 336.964,423.503 C336.739,423.986 335.391,424.362 335.267,423.959 C335.542,421.288 335.262,418.749 334.88,416.162 C334.88,416.162 339.341,417.666 339.341,417.666 Z " fill="rgb(253,253,253)"/><path d="M340.28,358.388 C337.913,361.405 337.513,366.18 336.835,369.971 C336.835,369.971 334.143,385.023 334.143,385.023 C334.143,385.023 333.446,392.443 333.446,392.443 C333.446,392.443 333.401,426.102 333.401,426.102 C328.585,427.467 324.52,426.746 319.53,424.759 C319.681,413.665 318.55,402.464 319.505,391.425 C319.505,391.425 320.523,379.656 320.523,379.656 C320.523,379.656 321.763,371.022 321.763,371.022 C321.763,371.022 324.188,360.053 324.188,360.053 C324.188,360.053 325.198,355.141 325.198,355.141 C325.198,355.141 326.797,350.668 326.797,350.668 C330.655,354.48 335.023,356.112 339.819,356.104 C340.185,356.827 340.054,357.729 340.28,358.388 Z " fill="rgb(138,211,183)"/><path d="M386.486,349.409 C393.791,371.74 396.774,395.355 394.931,419.515 C391.133,421.234 385.806,421.537 381.644,419.488 C381.644,419.488 380.55,393.277 380.55,393.277 C379.974,379.477 376.77,366.362 372.28,353.049 C378.048,351.822 381.814,350.512 385.665,347.978 C386.105,348.926 386.645,349.036 386.486,349.409 Z " fill="rgb(138,211,182)"/><path d="M256.875,192.106 C256.875,192.106 261.983,201.99 261.983,201.99 C268.4,212.263 276.147,221.839 284.895,230.577 C287.246,239.123 291.669,245.338 295.018,253.168 C295.018,253.168 288.772,249.956 288.772,249.956 C267.613,236.554 251.253,215.977 241.843,192.572 C246.576,192.965 250.835,191.07 254.782,187.981 C254.782,187.981 256.875,192.106 256.875,192.106 Z " fill="rgb(133,207,179)"/><path d="M456.906,301.481 C456.676,301.891 456.027,301.765 455.788,301.452 C455.59,301.193 456.302,296.221 450,289.571 C451.539,287.056 452.471,285.052 453.104,283.085 C456.619,272.166 452.035,261.141 442.288,254.639 C439.979,253.099 437.496,251.876 435.779,250.048 C437.261,245.174 437.965,240.464 437.296,235.591 C444.616,238.047 451.325,242.071 457.058,247.97 C471.977,263.325 471.448,286.666 456.906,301.481 Z " fill="rgb(130,204,177)"/><path d="M270.071,458.123 C283.833,468.911 311.551,467.567 326.646,461.648 C327.122,461.97 328.841,461.726 329.38,462.018 C329.882,462.289 329.608,463.904 329.411,464.554 C328.925,466.166 330.023,466.849 331.088,467.51 C311.55,474.204 285.771,478.997 268.296,466.842 C265.294,464.754 264.54,462.214 265.106,459.224 C265.106,459.224 267.371,455.729 267.371,455.729 C268.041,457.121 269.243,457.473 270.071,458.123 Z " fill="rgb(252,253,252)"/><path d="M220.659,98.6748 C220.659,98.6748 223.363,101.683 223.363,101.683 C228.301,110.447 234.892,122.468 233.228,130.978 C233.228,130.978 223.192,136.621 223.192,136.621 C223.192,136.621 218.699,128.289 218.699,128.289 C217.14,125.397 215.81,122.706 215.064,119.796 C213.506,113.722 211.204,107.126 213.715,100.917 C214.383,99.2641 215.937,97.7344 217.425,97.5258 C218.478,97.3781 219.625,98.0083 220.659,98.6748 Z " fill="rgb(253,254,254)"/><path d="M386.486,349.409 C386.645,349.036 386.105,348.926 385.665,347.978 C381.814,350.512 378.048,351.822 372.28,353.049 C376.77,366.362 379.974,379.477 380.55,393.277 C380.55,393.277 381.644,419.488 381.644,419.488 C385.806,421.537 391.133,421.234 394.931,419.515 C396.545,416.903 396.141,414.154 397.278,411.773 C398.154,413.598 396.793,415.361 397.34,418.258 C399.195,418.081 399.919,416.003 400.108,414.083 C401.257,413.674 402.205,414.707 402.144,415.522 C402.071,416.517 401.939,417.976 400.751,418.842 C389.836,426.803 376.212,420.903 375.232,417.441 C375.022,416.7 375.999,415.48 376.526,415.702 C377.177,415.977 377.833,416.923 378.555,418.361 C379.82,416.967 379.702,415.223 379.376,412.273 C375.122,412.084 369.683,415.423 369.941,420.24 C368.913,420.409 367.739,419.748 368.078,418.561 C369.555,413.39 373.29,411.749 379.253,410.058 C379.516,389.909 375.935,371.057 370.525,352.073 C370.065,350.457 370.356,348.483 368.966,347.441 C367.984,346.706 366.482,347.668 365.14,348.14 C365.14,348.14 362.511,349.065 362.511,349.065 C361.422,349.448 360.89,348.487 360.845,347.669 C368.574,345.539 375.809,340.904 380.907,334.613 C380.907,334.613 385.094,342.079 385.094,342.079 C386.204,344.262 388.144,346.979 386.486,349.409 Z " fill="rgb(2,2,2)"/><path d="M397.042,290.344 C394.171,298.261 388.464,305.122 387.541,314.382 C386.813,321.69 385.434,329.027 380.907,334.613 C375.809,340.904 368.574,345.539 360.845,347.669 C360.845,347.669 357.08,347.989 357.08,347.989 C353.846,346.799 349.799,348.604 346.002,345.519 C364.524,343.196 378.442,330.648 382.429,313.412 C384.691,303.636 390.266,296.26 397.042,290.344 Z " fill="rgb(94,177,149)"/><path d="M289.353,227.686 C292.262,233.816 297.196,238.816 301.443,244.422 C306.632,251.272 309.098,259.385 311.13,267.193 C307.893,267.432 310.577,264.208 304.338,260.713 C304.338,260.713 290.195,252.789 290.195,252.789 C289.676,252.498 288.656,251.868 288.475,251.508 C288.298,251.155 288.644,250.496 288.772,249.956 C288.772,249.956 295.018,253.168 295.018,253.168 C291.669,245.338 287.246,239.123 284.895,230.577 C276.147,221.839 268.4,212.263 261.983,201.99 C264.386,201.196 264.67,203.737 265.683,205.023 C265.683,205.023 277.231,219.688 277.231,219.688 C277.231,219.688 288.335,231.388 288.335,231.388 C288.335,231.388 288.244,228.807 288.244,228.807 C288.232,228.474 288.744,228.208 289.353,227.686 Z " fill="rgb(1,1,1)"/><path d="M444.174,429.308 C447.13,430.071 448.146,434.189 449.089,436.76 C452.545,446.179 448.124,455.442 438.455,458.509 C425.968,462.471 413.051,462.447 400.796,459.43 C412.99,457.111 426.528,458.085 437.005,449.995 C444.168,444.464 444.07,434.14 440.308,427.08 C442.894,427.186 442.603,429.602 444.174,429.308 Z " fill="rgb(200,196,190)"/><path d="M368.028,109.685 C368.033,110.93 367.18,111.243 366.025,111.155 C323.92,107.968 288.715,137.405 282.216,178.283 C281.583,182.264 282.397,186.845 279.864,190.042 C279.864,190.042 280.478,177.119 280.478,177.119 C281.925,166.895 285.178,156.983 289.968,147.909 C294.156,139.975 300.226,132.867 306.915,127.029 C323.817,112.274 345.841,106.592 368.028,109.685 Z " fill="rgb(205,246,232)"/><path d="M324.188,360.053 C324.188,360.053 321.763,371.022 321.763,371.022 C321.763,371.022 320.523,379.656 320.523,379.656 C320.523,379.656 319.505,391.425 319.505,391.425 C318.55,402.464 319.681,413.665 319.53,424.759 C324.52,426.746 328.585,427.467 333.401,426.102 C333.401,426.102 333.446,392.443 333.446,392.443 C333.446,392.443 334.143,385.023 334.143,385.023 C334.143,385.023 336.835,369.971 336.835,369.971 C339.384,371.12 337.529,374.226 337.304,375.886 C337.304,375.886 336.21,383.951 336.21,383.951 C336.21,383.951 335.493,392.47 335.493,392.47 C335.493,392.47 335.064,414.428 335.064,414.428 C338.379,414.344 338.473,416.66 339.341,417.666 C339.341,417.666 334.88,416.162 334.88,416.162 C335.262,418.749 335.542,421.288 335.267,423.959 C335.391,424.362 336.739,423.986 336.964,423.503 C337.217,422.961 336.012,421.665 336.328,421.175 C336.966,420.185 338.998,421.203 338.983,422.444 C338.903,429.216 322.744,431.71 314.267,422.923 C313.294,421.914 312.969,421.228 312.765,420.487 C312.433,419.282 312.863,417.697 314.352,417.452 C314.352,417.452 316.509,417.096 316.509,417.096 C317.179,416.986 317.299,415.078 316.971,414.434 C316.566,413.64 315.386,413.419 313.989,413.638 C310.153,414.24 307.069,416.8 307.736,421.09 C307.889,422.072 308.288,423.125 307.566,423.984 C307.186,424.436 306.72,425.153 305.745,424.866 C305.915,420.43 305.574,415.608 308.85,414.033 C311.763,412.633 314.459,412.014 317.098,411.391 C317.098,411.391 317.506,392.356 317.506,392.356 C317.506,392.356 318.39,380.311 318.39,380.311 C318.39,380.311 321.658,362.674 321.658,362.674 C321.769,362.077 321.837,360.474 322.456,360.053 C322.808,359.813 323.645,359.927 324.188,360.053 Z M317.453,418.996 C317.453,418.996 314.957,418.984 314.957,418.984 C313.53,418.977 313.761,420.58 314.521,421.03 C315.043,421.339 315.658,423.108 317.319,422.91 C318.366,422.784 318.46,419.557 317.453,418.996 Z " fill="rgb(6,8,10)"/><path d="M357.08,347.989 C355.803,352.272 350.874,351.194 343.626,350.328 C342.874,353.756 342.08,356.094 340.28,358.388 C340.054,357.729 340.185,356.827 339.819,356.104 C335.023,356.112 330.655,354.48 326.797,350.668 C326.797,350.668 325.198,355.141 325.198,355.141 C321.89,354.445 327.265,350.115 325.771,344.322 C314.903,334.652 307.896,321.75 309.474,307.37 C309.474,307.37 310.546,297.6 310.546,297.6 C310.546,297.6 311.018,274.968 311.018,274.968 C311.039,273.987 311.809,273.771 312.369,273.878 C314.336,285.429 312.252,297.077 311.245,308.903 C309.683,327.266 321.776,342.327 338.63,347.351 C345.051,349.265 351.104,349.783 357.08,347.989 Z " fill="rgb(1,1,2)"/><path d="M243.745,94.0173 C241.598,92.6798 238.612,93.694 237.152,96.2614 C234.819,100.365 234.343,105.182 234.593,109.983 C234.593,109.983 235.668,130.631 235.668,130.631 C238.809,129.827 240.955,128.334 243.755,129.903 C240.712,131.93 237.977,131.291 235.306,132.324 C228.03,135.138 222.347,139.497 216.052,144.27 C216.251,141.013 219.952,140.392 221.15,138.415 C218.441,129.449 212.75,123.889 206.659,118.356 C206.462,117.286 207.743,116.601 208.114,117.683 C209.905,119.216 211.21,120.333 212.815,122.045 C212.943,121.144 213.125,120.138 213.486,119.884 C213.813,119.654 214.576,119.836 215.064,119.796 C215.81,122.706 217.14,125.397 218.699,128.289 C218.699,128.289 223.192,136.621 223.192,136.621 C223.192,136.621 233.228,130.978 233.228,130.978 C234.892,122.468 228.301,110.447 223.363,101.683 C223.363,101.683 220.659,98.6748 220.659,98.6748 C220.89,98.3668 221.59,98.0631 222.233,98.0196 C227.002,103.463 229.755,109.954 232.724,116.438 C232.732,103.924 232.146,91.9583 243.109,92.0132 C243.109,92.0132 243.745,94.0173 243.745,94.0173 Z " fill="rgb(13,13,12)"/><path d="M452.452,453.876 C451.606,454.028 450.735,453.29 449.884,452.759 C447.408,456.393 443.658,458.417 440.14,459.708 C429.644,463.559 418.223,464.408 406.721,462.515 C392.819,460.226 379.192,455.96 368.565,446.379 C366.078,448.969 366.237,451.084 366.618,453.092 C366.327,453.461 365.975,454.011 365.096,453.938 C365.096,453.938 364.855,449.02 364.855,449.02 C365.924,446.715 368.377,444.399 368.749,441.696 C373.544,452.263 389.94,456.756 400.796,459.43 C413.051,462.447 425.968,462.471 438.455,458.509 C448.124,455.442 452.545,446.179 449.089,436.76 C449.388,436.87 450.239,435.783 450.551,436.104 C453.338,438.972 451.544,444.774 450.97,450.137 C450.859,451.167 453.214,453.177 452.452,453.876 Z " fill="rgb(7,7,6)"/><path d="M453.104,283.085 C452.471,285.052 451.539,287.056 450,289.571 C456.302,296.221 455.59,301.193 455.788,301.452 C456.027,301.765 456.676,301.891 456.906,301.481 C458.635,302.217 457.591,303.362 456.898,303.533 C456.459,303.641 454.767,304.241 454.713,304.705 C454.713,304.705 453.677,313.654 453.677,313.654 C453.218,317.619 450.171,320.412 446.785,321.744 C445.124,326.482 443.461,330.645 441.002,329.997 C441.002,329.997 441.033,328.934 441.033,328.934 C444.033,328.934 443.596,321.284 446.515,317.735 C449.122,323.311 456.324,309.722 449.461,300.925 C444.907,295.087 440.164,290.726 432.975,292.016 C432.985,291.91 432.989,291.398 432.703,290.607 C436.4,288.58 439.352,290.882 443.104,292.181 C450.335,291.004 449.588,282.362 453.104,283.085 Z " fill="rgb(2,2,2)"/><path d="M397.037,118.933 C387.969,113.844 378.317,111.119 368.028,109.685 C345.841,106.592 323.817,112.274 306.915,127.029 C306.653,125.705 306.929,124.86 307.955,124.051 C336.132,101.851 370.234,102.646 399.385,118.137 C398.692,119.715 397.669,118.447 397.558,118.098 C397.473,117.83 396.625,118.622 397.037,118.933 Z " fill="rgb(6,8,9)"/><path d="M256.875,192.106 C256.875,192.106 254.782,187.981 254.782,187.981 C250.835,191.07 246.576,192.965 241.843,192.572 C240.122,193.07 239.906,192.414 239.592,191.558 C239.592,191.558 238.214,187.798 238.214,187.798 C237.848,186.799 236.057,187.119 235.484,187.097 C234.911,187.076 234.458,185.584 234.76,185.005 C243.818,185.741 254.44,181.915 258.343,174.127 C258.833,176.733 256.68,179.438 254.193,181.718 C254.193,181.718 257.8,190.302 257.8,190.302 C258.327,191.086 258.277,191.878 256.875,192.106 Z " fill="rgb(1,1,2)"/><path d="M324.873,460.155 C330.302,458.372 336.119,456.853 339.828,452.065 C340.32,452.348 340.827,452.462 341.227,452.364 C340.576,455.051 338.109,457.153 335.252,458.273 C335.252,458.273 326.646,461.648 326.646,461.648 C311.551,467.567 283.833,468.911 270.071,458.123 C269.936,457.333 269.039,456.037 268.354,455.65 C265.812,454.213 266.731,451.742 267.946,450.592 C268.803,454.287 270.941,456.822 274.217,458.778 C287.524,466.724 310.054,465.019 324.873,460.155 Z " fill="rgb(9,9,8)"/><path d="M240.944,177.17 C236.792,177.697 232.167,178.906 227.82,177.181 C220.443,174.253 216.593,167.415 215.281,160.165 C215.281,160.165 216.597,157.38 216.597,157.38 C222.225,169.919 226.03,175.172 241.246,176.017 C242.077,176.392 241.634,177.3 240.944,177.17 Z " fill="rgb(203,199,194)"/><path d="M437.122,234.321 C437.122,234.321 437.296,235.591 437.296,235.591 C437.965,240.464 437.261,245.174 435.779,250.048 C434.851,249.06 433.409,248.491 432.085,248.961 C431.862,248.222 431.255,247.792 429.561,247.544 C429.561,247.544 434.707,234.582 434.707,234.582 C435.143,233.946 436.721,234.17 437.122,234.321 Z " fill="rgb(34,48,43)"/><path d="M304.983,424.478 C304.142,424.829 303.763,425.744 304.647,426.252 C312.862,430.976 322.373,437.41 322.307,447.869 C316.651,435.732 309.121,427.501 296.86,425.587 C299.339,425.111 302.381,424.609 304.983,424.478 Z " fill="rgb(12,12,10)"/><path d="M423.401,422.831 C412.861,426.319 405.319,432.557 400.977,443.674 C399.661,436.186 405.988,430.522 410.863,427.052 C410.863,427.052 414.281,424.619 414.281,424.619 C415.176,423.982 422.524,421.064 423.401,422.831 Z " fill="rgb(8,8,7)"/><path d="M251.761,140.392 C252.101,140.39 252.438,141.437 252.649,141.178 C253.171,140.537 254.583,141.144 254.186,142.124 C247.132,142.429 239.955,147.174 238.882,155.019 C238.577,157.25 240.173,160.238 237.471,162.11 C234.441,151.888 241.916,142.184 251.761,140.392 Z " fill="rgb(17,16,13)"/><path d="M289.968,147.909 C285.178,156.983 281.925,166.895 280.478,177.119 C279.257,177.167 278.635,176.317 278.868,175.007 C280.62,165.138 283.64,155.912 288.454,147.107 C288.81,147.502 289.45,148.11 289.968,147.909 Z " fill="rgb(4,5,9)"/><path d="M437.122,234.321 C436.721,234.17 435.143,233.946 434.707,234.582 C434.707,234.582 429.561,247.544 429.561,247.544 C431.255,247.792 431.862,248.222 432.085,248.961 C431.623,249.125 430.996,249.989 430.462,249.591 C430.462,249.591 428.968,248.479 428.968,248.479 C428.211,249.712 427.175,250.307 425.898,250.102 C429.752,243.159 432.636,235.436 434.743,227.952 C436.264,227.98 436.546,228.76 436.183,229.548 C435.922,230.113 435.222,231.14 435.186,231.88 C435.125,233.139 436.03,233.185 436.537,233.03 C437.414,232.761 437.852,233.909 437.122,234.321 Z " fill="rgb(4,6,7)"/><path d="M402.962,341.329 C403.255,340.584 402.106,339.671 402.025,339.089 C403.509,334.898 406.919,332.835 410.092,330.845 C407.647,334.17 406.78,338.401 407.076,342.86 C404.797,343.515 403.887,342.048 402.962,341.329 Z " fill="rgb(204,200,197)"/><path d="M441.033,328.934 C441.033,328.934 441.002,329.997 441.002,329.997 C440.963,331.147 439.729,331.57 439.16,332.23 C437.272,331.522 438.662,330.947 438.853,330.322 C439.206,329.172 439.878,328.934 441.033,328.934 Z " fill="rgb(226,225,223)"/><path d="M410.863,427.052 C405.988,430.522 399.661,436.186 400.977,443.674 C405.319,432.557 412.861,426.319 423.401,422.831 C429.598,422.147 439.896,422.756 444.174,429.308 C442.603,429.602 442.894,427.186 440.308,427.08 C444.07,434.14 444.168,444.464 437.005,449.995 C426.528,458.085 412.99,457.111 400.796,459.43 C389.94,456.756 373.544,452.263 368.749,441.696 C369.422,436.804 370.145,431.907 372.998,427.05 C372.998,427.05 369.941,420.24 369.941,420.24 C369.683,415.423 375.122,412.084 379.376,412.273 C379.702,415.223 379.82,416.967 378.555,418.361 C377.833,416.923 377.177,415.977 376.526,415.702 C375.999,415.48 375.022,416.7 375.232,417.441 C376.212,420.903 389.836,426.803 400.751,418.842 C401.939,417.976 402.071,416.517 402.144,415.522 C402.205,414.707 401.257,413.674 400.108,414.083 C399.919,416.003 399.195,418.081 397.34,418.258 C396.793,415.361 398.154,413.598 397.278,411.773 C396.504,411.442 396.554,410.719 396.796,410.362 C397.79,408.901 404.938,410.52 406.459,414.118 C407.724,417.11 406.468,419.542 405.939,423.009 C407.477,421.818 408.81,420.714 410.039,421.332 C410.918,421.774 413.545,423.7 413.008,424.366 C413.008,424.366 410.863,427.052 410.863,427.052 Z M392.545,431.966 C397.136,433.126 401.796,430.446 403.053,425.912 C399.932,428.851 396.866,429.677 392.545,431.966 Z " fill="rgb(253,253,253)"/><path d="M432.975,292.016 C440.164,290.726 444.907,295.087 449.461,300.925 C444.556,298.184 449.932,303.881 448.013,307.439 C447.18,308.984 446.016,308.685 444.613,308.242 C441.877,315.051 440.208,324.419 433.55,328.268 C425.931,332.671 418.763,337.59 414.875,345.67 C414.552,346.342 412.275,347.052 411.582,346.944 C411.056,346.861 410.605,346.061 409.979,345.773 C407.31,337.566 412.963,332.483 410.092,330.845 C406.919,332.835 403.509,334.898 402.025,339.089 C402.106,339.671 403.255,340.584 402.962,341.329 C399.58,338.7 396.839,335.319 396.363,331.028 C395.854,326.438 398.789,323.335 401.586,319.052 C396.838,319.53 396.914,324.203 394.474,326.347 C390.533,322.053 391.595,316.382 393.988,311.925 C396.572,307.115 401.306,305.174 405.405,301.5 C402.558,300.304 400.989,302.666 399.069,304.134 C397.792,299.331 401.222,294.958 405.794,293.648 C417.202,290.378 429.25,292.986 438.691,300.324 C437.985,296.37 434.353,294.959 431.07,293.759 C431.212,292.74 432.14,292.039 432.975,292.016 Z " fill="rgb(253,253,253)"/><path d="M449.461,300.925 C456.324,309.722 449.122,323.311 446.515,317.735 C443.596,321.284 444.033,328.934 441.033,328.934 C439.878,328.934 439.206,329.172 438.853,330.322 C438.662,330.947 437.272,331.522 439.16,332.23 C437.076,334.649 432.534,337.043 429.395,336.874 C429.395,336.874 428.437,334.408 428.437,334.408 C428.388,334.282 427.126,334.333 427.095,334.863 C426.907,338.024 424.886,339.463 423.727,342.107 C423.409,342.831 425.623,343.412 426.091,342.583 C426.091,342.583 427.42,340.229 427.42,340.229 C428.202,338.844 432.314,337.461 433.726,338.341 C436.468,341.408 434.366,346.766 430.721,348.772 C422.644,353.216 411.449,350.293 409.979,345.773 C410.605,346.061 411.056,346.861 411.582,346.944 C412.275,347.052 414.552,346.342 414.875,345.67 C418.763,337.59 425.931,332.671 433.55,328.268 C440.208,324.419 441.877,315.051 444.613,308.242 C446.016,308.685 447.18,308.984 448.013,307.439 C449.932,303.881 444.556,298.184 449.461,300.925 Z " fill="rgb(206,203,200)"/><path d="M409.311,250.228 C420.131,222.753 424.497,170.648 396.914,151.224 C398.057,155.672 403.168,156.876 404.654,161.018 C405.1,162.216 404.227,162.945 403.59,162.867 C402.136,162.689 396.136,148.299 381.603,152.545 C378.954,153.319 376.726,154.258 374.014,156.782 C373.212,153.671 375.717,153.483 376.303,151.546 C381.324,151.636 387.745,147.721 392.958,151.068 C393.738,151.255 395.523,151.807 396.363,151.513 C395.269,148.704 393.265,148.854 392.102,147.835 C384.849,141.474 378.27,151.339 373.445,145.236 C372.198,143.657 371.896,141.617 373.584,138.781 C366.719,137.683 361.448,137.791 354.734,138.095 C357.052,141.618 356.606,144.67 354.147,147.444 C346.736,148.613 342.86,139.341 326.049,153.181 C305.688,169.943 305.574,205.753 320.6,228.196 C329.664,241.734 341.48,241.303 346.858,248.792 C350.591,253.991 352.858,259.843 351.359,266.426 C348.036,281.009 334.851,279.288 336.24,289.061 C335.853,288.994 334.641,289.014 334.304,288.66 C333.826,284.708 336.109,280.733 339.794,278.721 C345.767,275.459 350.099,269.012 349.797,262.113 C349.335,251.558 341.522,245.775 332.828,241.928 C306.47,230.267 297.122,173.061 325.299,151.018 C323.166,149.74 322.116,148.221 321.963,146.475 C321.796,144.575 323.027,142.898 324.665,141.654 C331.715,134.688 342.024,132.263 351.146,136.819 C359.152,135.798 366.985,135.071 375.396,137.39 C385.414,131.648 398.031,133.355 405.483,142.448 C406.992,144.289 406.271,147.127 405.125,148.517 C403.515,150.468 401.744,150.506 399.043,149.973 C409.933,158.878 416.286,171.687 418.251,185.761 C420.829,204.235 419.718,222.741 414.855,240.75 C410.932,255.28 403.66,268.307 393.278,279.195 C393.278,279.195 385.641,285.168 385.641,285.168 C384.526,281.709 387.669,281.505 389.147,280.209 C398.619,271.898 404.885,261.466 409.311,250.228 Z " fill="rgb(1,1,1)"/><path d="M336.24,289.061 C334.851,279.288 348.036,281.009 351.359,266.426 C352.858,259.843 350.591,253.991 346.858,248.792 C350.311,247.76 352.511,250.752 354.827,252.998 C362.195,260.147 363.142,269.349 357.789,277.859 C353.151,285.233 344.575,290.489 336.24,289.061 Z " fill="rgb(102,181,155)"/><path d="M357.931,204.964 C351.881,212.382 341.734,215.197 333.123,210.798 C325.294,206.799 320.839,198.738 320.05,191.322 C319.078,182.191 322.312,174.05 328.983,168.077 C336.414,161.424 346.896,161.218 354.701,167.541 C365.979,176.677 367.303,193.473 357.931,204.964 Z M351.464,207.971 C358.366,203.284 361.748,195.625 362.114,188.457 C362.5,180.898 359.313,173.681 353.076,168.981 C346.351,163.914 337.646,163.614 330.916,169.061 C319.094,178.63 318.79,196.755 330.29,206.611 C336.147,211.63 344.734,212.541 351.464,207.971 Z " fill="rgb(10,11,9)"/><path d="M395.647,164.599 C410.327,172.326 413.676,191.338 404.027,204.11 C397.183,213.169 384.524,215.308 375.305,207.598 C368.711,202.085 365.459,194.275 365.992,185.594 C366.437,178.352 370.053,170.535 377.022,166.108 C382.815,162.427 390.014,161.635 395.647,164.599 Z M399.125,206.125 C410.362,196.592 410.315,179.194 399.467,169.625 C393.258,164.149 385.009,163.261 377.798,167.981 C370.36,172.85 367.035,181.928 368.341,191.109 C369.421,198.702 374.678,206.781 383.056,209.546 C388.732,211.42 394.608,209.957 399.125,206.125 Z " fill="rgb(6,7,5)"/><path d="M355.778,157.265 C349.965,153.972 345.033,150.784 338.123,152.293 C332.515,153.517 328.304,157.35 323.511,163.021 C323.916,155.848 331.5,152.051 336.376,150.742 C343.865,148.732 351.839,150.086 355.778,157.265 Z " fill="rgb(10,15,12)"/><path d="M409.311,250.228 C409.673,234.096 413.872,219.836 405.728,202.97 C405.294,203.392 404.665,204.206 404.027,204.11 C413.676,191.338 410.327,172.326 395.647,164.599 C392.219,159.346 387.137,155.565 381.603,152.545 C396.136,148.299 402.136,162.689 403.59,162.867 C404.227,162.945 405.1,162.216 404.654,161.018 C403.168,156.876 398.057,155.672 396.914,151.224 C424.497,170.648 420.131,222.753 409.311,250.228 Z " fill="rgb(101,176,151)"/><path d="M440.14,459.708 C439.88,463.087 438.199,466.211 436.526,468.756 C422.37,472.006 407.625,471.236 393.358,467.849 C393.229,469.333 391.497,469.03 391.963,467.567 C382.724,464.147 370.242,460.655 366.618,453.092 C366.237,451.084 366.078,448.969 368.565,446.379 C379.192,455.96 392.819,460.226 406.721,462.515 C418.223,464.408 429.644,463.559 440.14,459.708 Z " fill="rgb(252,253,252)"/><path d="M341.172,451.019 C340.3,450.504 339.655,451.431 339.828,452.065 C336.119,456.853 330.302,458.372 324.873,460.155 C324.558,458.761 325.419,457.583 326.663,456.734 C338.553,448.623 331.686,437.121 340.165,432.873 C337.029,435.565 340.797,437.858 341.087,439.776 C341.581,443.037 341.218,448.214 341.172,451.019 Z " fill="rgb(203,199,194)"/><path d="M331.088,467.51 C330.023,466.849 328.925,466.166 329.411,464.554 C329.608,463.904 329.882,462.289 329.38,462.018 C328.841,461.726 327.122,461.97 326.646,461.648 C326.646,461.648 335.252,458.273 335.252,458.273 C338.109,457.153 340.576,455.051 341.227,452.364 C341.694,452.249 342.116,451.98 342.479,452.098 C343.016,452.272 343.156,453.305 343.216,453.962 C343.948,461.997 337.241,465.401 331.088,467.51 Z " fill="rgb(204,203,199)"/><path d="M452.452,453.876 C452.116,454.184 451.915,455.29 451.976,455.756 C452.882,464 445.332,466.734 436.526,468.756 C438.199,466.211 439.88,463.087 440.14,459.708 C443.658,458.417 447.408,456.393 449.884,452.759 C450.735,453.29 451.606,454.028 452.452,453.876 Z " fill="rgb(214,213,208)"/><path d="M392.545,431.966 C396.866,429.677 399.932,428.851 403.053,425.912 C401.796,430.446 397.136,433.126 392.545,431.966 Z " fill="rgb(20,18,17)"/><path d="M317.453,418.996 C317.016,419.589 317.29,420.499 316.94,421.479 C316.657,422.268 315.715,421.57 315.429,421.046 C314.95,420.171 314.906,419.852 314.957,418.984 C314.957,418.984 317.453,418.996 317.453,418.996 Z " fill="rgb(240,239,230)"/><path d="M317.453,418.996 C318.46,419.557 318.366,422.784 317.319,422.91 C315.658,423.108 315.043,421.339 314.521,421.03 C313.761,420.58 313.53,418.977 314.957,418.984 C314.906,419.852 314.95,420.171 315.429,421.046 C315.715,421.57 316.657,422.268 316.94,421.479 C317.29,420.499 317.016,419.589 317.453,418.996 Z " fill="rgb(104,102,95)"/><path d="M392.958,151.068 C391.805,148.702 389.914,148.245 392.102,147.835 C393.265,148.854 395.269,148.704 396.363,151.513 C395.523,151.807 393.738,151.255 392.958,151.068 Z " fill="rgb(101,176,151)"/><path d="M392.102,147.835 C389.914,148.245 391.805,148.702 392.958,151.068 C387.745,147.721 381.324,151.636 376.303,151.546 C368.949,151.414 361.554,146.275 354.147,147.444 C356.606,144.67 357.052,141.618 354.734,138.095 C361.448,137.791 366.719,137.683 373.584,138.781 C371.896,141.617 372.198,143.657 373.445,145.236 C378.27,151.339 384.849,141.474 392.102,147.835 Z " fill="rgb(111,187,164)"/><path d="M351.464,207.971 C344.734,212.541 336.147,211.63 330.29,206.611 C318.79,196.755 319.094,178.63 330.916,169.061 C337.646,163.614 346.351,163.914 353.076,168.981 C359.313,173.681 362.5,180.898 362.114,188.457 C361.748,195.625 358.366,203.284 351.464,207.971 Z M341.466,198.593 C346.015,201.428 352.294,199.756 355.499,195.949 C358.854,191.962 359.058,185.706 356.006,181.555 C352.938,177.384 347.196,175.316 341.985,178.005 C337.874,180.125 336.48,184.577 336.488,188.507 C336.496,192.36 337.737,196.269 341.466,198.593 Z " fill="rgb(253,253,253)"/><path d="M399.125,206.125 C394.608,209.957 388.732,211.42 383.056,209.546 C374.678,206.781 369.421,198.702 368.341,191.109 C367.035,181.928 370.36,172.85 377.798,167.981 C385.009,163.261 393.258,164.149 399.467,169.625 C410.315,179.194 410.362,196.592 399.125,206.125 Z M385.398,197.439 C390.322,201.575 397.047,199.226 400.205,195.432 C403.992,190.882 403.267,184.443 400.415,180.733 C396.803,176.036 390.097,174.778 385.252,178.515 C379.669,182.824 380.043,192.941 385.398,197.439 Z " fill="rgb(252,253,253)"/><path d="M341.466,198.593 C337.737,196.269 336.496,192.36 336.488,188.507 C336.48,184.577 337.874,180.125 341.985,178.005 C347.196,175.316 352.938,177.384 356.006,181.555 C359.058,185.706 358.854,191.962 355.499,195.949 C352.294,199.756 346.015,201.428 341.466,198.593 Z M343.226,185.309 C344.561,184.452 344.713,183.477 344.635,182.638 C344.518,181.367 343.302,180.537 342.487,180.606 C341.658,180.676 340.872,181.276 340.071,182.056 C338.882,183.215 339.121,185.056 339.959,185.526 C340.95,186.081 342.282,185.915 343.226,185.309 Z " fill="rgb(1,1,1)"/><path d="M385.398,197.439 C380.043,192.941 379.669,182.824 385.252,178.515 C390.097,174.778 396.803,176.036 400.415,180.733 C403.267,184.443 403.992,190.882 400.205,195.432 C397.047,199.226 390.322,201.575 385.398,197.439 Z M385.23,185.742 C386.857,186.535 388.323,185.269 388.8,184.365 C389.589,182.868 389.504,181.133 387.711,180.238 C386.204,179.485 384.946,181.087 384.386,181.9 C383.571,183.081 383.499,184.898 385.23,185.742 Z " fill="rgb(1,0,1)"/><path d="M343.226,185.309 C342.282,185.915 340.95,186.081 339.959,185.526 C339.121,185.056 338.882,183.215 340.071,182.056 C340.872,181.276 341.658,180.676 342.487,180.606 C343.302,180.537 344.518,181.367 344.635,182.638 C344.713,183.477 344.561,184.452 343.226,185.309 Z " fill="rgb(253,252,251)"/><path d="M385.23,185.742 C383.499,184.898 383.571,183.081 384.386,181.9 C384.946,181.087 386.204,179.485 387.711,180.238 C389.504,181.133 389.589,182.868 388.8,184.365 C388.323,185.269 386.857,186.535 385.23,185.742 Z " fill="rgb(254,253,253)"/></svg>